<?xml version="1.0" encoding="UTF-8"?>
<svg width="318px" height="205px" viewBox="0 0 318 205" version="1.1" xmlns="http://www.w3.org/2000/svg" xmlns:xlink="http://www.w3.org/1999/xlink">
    <!-- Generator: Sketch 52.5 (67469) - http://www.bohemiancoding.com/sketch -->
    <title>Group 3</title>
    <desc>Created with Sketch.</desc>
    <defs>
        <path d="M23.6239442,-2.13162821e-14 C10.5640558,0.0755612903 -1.42108547e-14,10.5941652 -1.42108547e-14,23.5590658 C-1.42108547e-14,36.57072 10.6398026,47.1181316 23.7654335,47.1181316 L148.065923,47.1181316 C153.021382,47.1181316 157.620974,45.6135174 161.429275,43.0416 L171.831833,47.1181316 L167.719592,36.8054323 C170.313562,33.0302013 171.831833,28.4710219 171.831833,23.5590658 C171.831833,10.5941652 161.267777,0.0755612903 148.207412,-2.13162821e-14 L23.6239442,-2.13162821e-14 Z" id="path-1"></path>
        <linearGradient x1="11.6918619%" y1="17.8540691%" x2="88.2711467%" y2="82.1089396%" id="linearGradient-3">
            <stop stop-color="#106EC2" offset="0%"></stop>
            <stop stop-color="#116FC3" offset="2%"></stop>
            <stop stop-color="#2A84D1" offset="63%"></stop>
            <stop stop-color="#338CD6" offset="100%"></stop>
        </linearGradient>
        <linearGradient x1="0.014858841%" y1="50.0485437%" x2="100.014859%" y2="50.0485437%" id="linearGradient-4">
            <stop stop-color="#4A4843" offset="0%"></stop>
            <stop stop-color="#737069" offset="100%"></stop>
        </linearGradient>
        <linearGradient x1="50.0488145%" y1="100.053476%" x2="50.0488145%" y2="0.0401069519%" id="linearGradient-5">
            <stop stop-color="#106EC2" offset="0%"></stop>
            <stop stop-color="#116FC3" offset="2%"></stop>
            <stop stop-color="#2A84D1" offset="63%"></stop>
            <stop stop-color="#338CD6" offset="100%"></stop>
        </linearGradient>
        <linearGradient x1="4.11001232%" y1="85.4473235%" x2="110.960929%" y2="19.9032652%" id="linearGradient-6">
            <stop stop-color="#414042" offset="0%"></stop>
            <stop stop-color="#333132" offset="100%"></stop>
            <stop stop-color="#222323" offset="100%"></stop>
        </linearGradient>
    </defs>
    <g id="Design" stroke="none" stroke-width="1" fill="none" fill-rule="evenodd">
        <g id="404-option2" transform="translate(-473.000000, -219.000000)">
            <g id="Group-3" transform="translate(465.000000, 219.000000)">
                <g id="Group-2" transform="translate(0.000000, 22.000000)">
                    <mask id="mask-2" fill="white">
                        <use xlink:href="#path-1"></use>
                    </mask>
                    <g id="Clip-2"></g>
                    <path d="M31.6239442,-2.13162821e-14 C18.5640558,0.0755612903 8,10.5941652 8,23.5590658 C8,36.57072 18.6398026,47.1181316 31.7654335,47.1181316 L148.065923,47.1181316 C153.021382,47.1181316 157.620974,45.6135174 161.429275,43.0416 L171.831833,47.1181316 L167.719592,36.8054323 C170.313562,33.0302013 171.831833,28.4710219 171.831833,23.5590658 C171.831833,10.5941652 161.267777,0.0755612903 148.207412,-2.13162821e-14 L31.6239442,-2.13162821e-14 Z" id="Fill-1" fill-opacity="0.1" fill="#FF5B6F" mask="url(#mask-2)"></path>
                    <text id="Nothing-found!" font-family="Montserrat-Regular, Montserrat" font-size="18" font-weight="normal" line-spacing="30" fill="#2B313D">
                        <tspan x="22.874" y="25">Nothing found!</tspan>
                    </text>
                </g>
                <g id="Kyro-Character" transform="translate(184.000000, -0.000000)">
                    <g id="Layer_2_1_">
                        <g id="Layer_1-2">
                            <circle id="Oval" fill="url(#linearGradient-3)" cx="61.9150538" cy="61.9150538" r="61.9150538"></circle>
                            <ellipse id="Oval" fill="url(#linearGradient-4)" cx="68.8623656" cy="196.73871" rx="51.3795699" ry="7.86344086"></ellipse>
                            <path d="M106.423656,15.8795699 C102.453763,16.7193548 98.3311828,20.9946237 96.2698925,26.7967742 C94.2849462,32.2935484 94.7430108,37.7139785 97.0333333,40.6913978 C101.003226,39.8516129 105.125806,35.5763441 107.187097,29.7741935 C109.172043,24.2010753 108.713978,18.8569892 106.423656,15.8795699 Z" id="Path" fill="#6B6A66"></path>
                            <path d="M47.1043011,91.1548387 C47.1043011,91.1548387 28.2473118,119.478495 25.3462366,140.854839 C30.8430108,148.031183 42.2182796,148.031183 46.111828,145.053763 C47.944086,130.930108 61.6096774,105.965591 61.6096774,105.965591" id="Path" fill="#615F59"></path>
                            <path d="M40.2333333,33.8967742 L40.6913978,32.9043011 C37.7139785,33.8204301 34.8892473,35.1946237 32.2172043,36.8741935 C22.6741935,43.2870968 16.872043,54.0516129 16.7956989,65.5795699 C21.3,66.6483871 25.8806452,67.2591398 30.4612903,67.3354839 C28.5526882,55.4258065 31.911828,42.6763441 40.2333333,33.8967742 Z" id="Path" fill="#BFB9B2"></path>
                            <path d="M38.7064516,37.8666667 C39.088172,36.4924731 39.6225806,35.1946237 40.2333333,33.9731183 C31.911828,42.6763441 28.5526882,55.4258065 30.3849462,67.3354839 C35.3473118,67.411828 38.7827957,66.6483871 43.5924731,64.8924731 C37.6376344,57.2580645 35.8053763,47.1043011 38.7064516,37.8666667 Z" id="Path" fill="#D7D2CD"></path>
                            <path d="M82.527957,30.4612903 C83.9784946,30.2322581 85.5053763,30.0795699 87.0322581,30.0795699 C73.7483871,28.0182796 59.7010753,31.7591398 57.0290323,34.4311828 C52.2193548,39.2408602 54.0516129,55.5784946 57.4107527,59.3193548 C57.716129,55.6548387 58.3268817,52.1430108 60.0064516,49.0892473 C64.8924731,40.2333333 71.9924731,32.1408602 82.527957,30.4612903 Z" id="Path" fill="#615F59"></path>
                            <path d="M33.6677419,81.7645161 C31.7591398,77.183871 30.6903226,72.2978495 30.3849462,67.411828 C25.8043011,67.3354839 21.2236559,66.7247312 16.7956989,65.655914 L16.7956989,65.8849462 C16.7193548,81.5354839 27.2548387,95.2774194 42.3709677,99.2473118 C43.8215054,99.6290323 45.3483871,99.9344086 46.7989247,100.087097 C41.0731183,94.972043 36.3397849,88.9408602 33.6677419,81.7645161 Z" id="Path" fill="#615F59"></path>
                            <path d="M68.2516129,181.698925 L67.2591398,181.546237 C58.1741935,180.401075 51.6086022,179.103226 51.7612903,178.110753 C31.988172,157.87957 29.9268817,126.349462 46.7989247,103.675269 C46.7225806,105.660215 47.4096774,103.751613 47.4096774,105.812903 C47.4096774,131.846237 54.6623656,159.711828 67.3354839,174.827957 L67.8698925,175.43871 L68.2516129,181.698925 Z" id="Path" fill="#615F59"></path>
                            <path d="M67.8698925,175.43871 C67.8698925,175.43871 52.372043,176.583871 45.5010753,170.858065 C48.0967742,180.553763 40.6150538,197.12043 47.4860215,197.12043 L68.0989247,197.12043 C68.6333333,189.944086 68.5569892,182.691398 67.8698925,175.43871 Z" id="Path" fill="#615F59"></path>
                            <path d="M124.746237,139.93871 C124.746237,120.165591 119.096774,100.850538 108.484946,84.2075269 C108.790323,83.8258065 109.095699,83.3677419 109.324731,82.9096774 C110.698925,80.2376344 110.011828,76.8784946 107.645161,74.9698925 C110.851613,70.3892473 112.531183,64.8924731 112.531183,59.3193548 C112.531183,40.6150538 101.46129,32.7516129 89.1698925,30.3086022 C88.4827957,30.155914 87.7193548,30.0032258 87.0322581,29.9268817 C85.5053763,29.9268817 84.0548387,30.0795699 82.527957,30.3086022 C71.9924731,32.1408602 64.8924731,40.2333333 60.0064516,49.0892473 C58.3268817,52.0666667 57.716129,55.6548387 57.4107527,59.3193548 L57.5634409,59.472043 C57.5634409,59.472043 57.4870968,59.5483871 57.4107527,59.5483871 C56.1892473,60.1591398 47.7150538,62.9075269 44.4322581,65.8849462 C44.2032258,65.5795699 43.9741935,65.2741935 43.6688172,64.9688172 C39.3172043,66.4956989 34.8129032,67.3354839 30.155914,67.411828 C30.3086022,72.3741935 31.988172,77.4892473 33.744086,81.7645161 C36.3397849,88.9408602 41.0731183,94.972043 46.8752688,100.010753 L47.027957,100.010753 C47.8677419,100.087097 48.783871,100.163441 49.6236559,100.163441 C49.2419355,100.545161 48.9365591,101.003226 48.5548387,101.384946 C48.0967742,101.995699 47.5623656,102.606452 47.1043011,103.217204 L46.7225806,103.675269 C46.6462366,105.660215 47.3333333,103.751613 47.3333333,105.812903 C47.3333333,132.227957 54.8150538,160.322581 67.7935484,175.43871 L67.7172043,175.43871 C68.4043011,182.615054 68.5569892,189.944086 67.9462366,197.12043 L74.8172043,197.12043 C77.4129032,197.12043 77.8709677,188.493548 77.8709677,182.691398 C80.6956989,182.92043 83.5204301,183.149462 86.3451613,183.302151 C85.7344086,189.104301 85.2,197.12043 87.1086022,197.12043 L115.584946,197.12043 C120.089247,197.12043 119.02043,182.004301 118.256989,174.904301 C121.845161,163.834409 124.746237,152.306452 124.746237,139.93871 Z" id="Path" fill="#A39D94"></path>
                            <path d="M111.233333,121.845161 C96.1172043,121.845161 83.9021505,134.670968 83.9021505,150.397849 C83.9021505,166.124731 96.1172043,178.950538 111.233333,178.950538 C114.821505,179.026882 118.409677,178.263441 121.768817,176.889247 C121.845161,176.812903 121.463441,170.934409 121.539785,170.934409 C131.388172,166.582796 138.717204,162.231183 138.717204,150.397849 C138.64086,134.670968 126.349462,121.845161 111.233333,121.845161 Z" id="Path" fill="#615F59"></path>
                            <g id="Group" opacity="0.8" transform="translate(91.612903, 122.150538)" fill="#FFFFFF">
                                <path d="M23.055914,48.783871 C10.5354839,48.783871 0.305376344,37.9430108 0.305376344,24.5064516 C0.305376344,11.0698925 10.5354839,0.229032258 23.055914,0.229032258 C35.5763441,0.229032258 45.8827957,11.0698925 45.8827957,24.5064516 C45.8827957,37.9430108 35.7290323,48.783871 23.055914,48.783871 Z" id="Path"></path>
                            </g>
                            <path d="M113.905376,118.409677 C98.7892473,118.409677 86.5741935,131.235484 86.5741935,146.962366 C86.5741935,162.689247 98.7892473,175.515054 113.905376,175.515054 C129.021505,175.515054 141.312903,162.689247 141.312903,146.962366 C141.312903,131.235484 129.021505,118.409677 113.905376,118.409677 Z" id="Path" fill="url(#linearGradient-5)"></path>
                            <path d="M110.622581,132.304301 C108.637634,130.624731 105.125806,131.846237 105.125806,134.212903 L105.125806,160.704301 C105.125806,163.070968 108.56129,164.292473 110.622581,162.612903 L126.425806,149.405376 C127.494624,148.565591 127.647312,147.115054 126.883871,146.046237 C126.731183,145.893548 126.578495,145.74086 126.425806,145.588172 L110.622581,132.304301 Z" id="Path" fill="#FFFFFF"></path>
                            <path d="M94.972043,104.056989 C94.972043,104.056989 99.6290323,128.945161 100.621505,142.763441 C101.003226,147.954839 105.507527,151.924731 110.698925,151.619355 C117.569892,151.237634 125.433333,149.023656 126.960215,145.35914 C129.403226,139.251613 94.972043,104.056989 94.972043,104.056989 Z" id="Path" fill="#615F59" opacity="0.75"></path>
                            <path d="M112.912903,91.0021505 C112.912903,91.0021505 128.029032,121.539785 128.029032,143.145161 C121.616129,149.558065 110.393548,148.031183 106.88172,144.595699 C106.88172,130.395699 96.5752688,103.827957 96.5752688,103.827957" id="Path" fill="#A39D94"></path>
                            <path d="M59.7010753,195.822581 C59.6247312,193.37957 61.5333333,191.241935 63.9763441,191.165591 C64.1290323,191.165591 64.2817204,191.165591 64.4344086,191.165591 C66.8010753,191.31828 68.7096774,193.455914 69.0150538,195.822581" id="Path" fill="#CCCCCC"></path>
                            <path d="M48.783871,195.746237 C48.8602151,192.997849 51.0741935,190.783871 53.6698925,191.089247 C56.0365591,191.394624 57.8688172,193.37957 58.0978495,195.746237 L48.783871,195.746237 Z" id="Path" fill="#CCCCCC"></path>
                            <path d="M70.3892473,95.5064516 C65.1978495,98.483871 59.2430108,100.010753 53.288172,100.010753 L49.9290323,100.010753" id="Path" fill="#A39D94"></path>
                            <path d="M100.926882,195.975269 C100.850538,193.532258 102.75914,191.394624 105.202151,191.31828 C105.354839,191.31828 105.507527,191.31828 105.660215,191.31828 C108.026882,191.470968 109.935484,193.608602 110.24086,195.975269" id="Path" fill="#CCCCCC"></path>
                            <path d="M90.0096774,195.898925 C90.0860215,193.150538 92.3,190.936559 94.8956989,191.241935 C97.2623656,191.547312 99.0946237,193.532258 99.3236559,195.898925 L90.0096774,195.898925 Z" id="Path" fill="#CCCCCC"></path>
                            <path d="M115.890323,145.282796 C116.043011,143.832258 114.974194,142.610753 113.523656,142.458065 C112.073118,142.305376 110.851613,143.374194 110.698925,144.824731 C110.698925,144.824731 110.698925,144.824731 110.698925,144.824731 C112.302151,145.664516 114.134409,145.817204 115.890323,145.282796 Z" id="Path" fill="#CCCCCC"></path>
                            <path d="M124.669892,143.603226 C124.211828,141.61828 122.837634,140.854839 121.463441,141.160215 C120.089247,141.465591 119.249462,142.916129 119.631183,144.901075 C121.387097,145.206452 123.295699,144.748387 124.669892,143.603226 Z" id="Path" fill="#CCCCCC"></path>
                            <path d="M69.244086,105.431183 C66.2666667,106.652688 62.983871,107.339785 59.7774194,107.263441 C52.6774194,107.263441 45.9591398,104.056989 41.4548387,98.5602151 C41.4548387,98.5602151 47.5623656,100.774194 57.2580645,99.7817204" id="Path" fill="#615F59"></path>
                            <path d="M43.1344086,75.9623656 C44.2032258,76.5731183 44.355914,78.3290323 43.4397849,80.0086022 C42.5236559,81.688172 40.9204301,82.527957 39.8516129,81.9172043 C38.7827957,81.3064516 38.6301075,79.5505376 39.5462366,77.8709677 C40.4623656,76.1913978 42.1419355,75.3516129 43.1344086,75.9623656 Z M24.7354839,75.9623656 C23.6666667,76.5731183 23.5139785,78.3290323 24.4301075,80.0086022 C25.3462366,81.688172 26.9494624,82.527957 28.0182796,81.9172043 C29.0870968,81.3064516 29.2397849,79.5505376 28.3236559,77.8709677 C27.4075269,76.1913978 25.8043011,75.3516129 24.7354839,75.9623656 Z M96.6516129,37.5612903 C95.811828,37.3322581 94.972043,37.7903226 94.7430108,38.6301075 C94.5139785,39.4698925 94.972043,40.3096774 95.811828,40.5387097 C96.5752688,40.844086 97.4913978,40.5387097 97.7967742,39.6989247 C98.1021505,38.9354839 97.7967742,38.0193548 96.9569892,37.7139785 C96.8043011,37.6376344 96.727957,37.5612903 96.6516129,37.5612903 Z M98.3311828,42.6763441 C98.3311828,42.9817204 98.5602151,43.2870968 98.9419355,43.2870968 C99.2473118,43.2870968 99.5526882,43.0580645 99.5526882,42.6763441 C99.5526882,42.3709677 99.3236559,42.0655914 98.9419355,42.0655914 C98.5602151,42.1419355 98.3311828,42.3709677 98.3311828,42.6763441 Z M99.7817204,39.3935484 C99.3236559,39.3935484 98.9419355,39.7752688 98.9419355,40.2333333 C98.9419355,40.6913978 99.3236559,41.0731183 99.7817204,41.0731183 C100.239785,41.0731183 100.621505,40.6913978 100.621505,40.2333333 C100.621505,40.2333333 100.621505,40.2333333 100.621505,40.2333333 C100.621505,39.7752688 100.239785,39.3935484 99.7817204,39.3935484 C99.7817204,39.3935484 99.7817204,39.3935484 99.7817204,39.3935484 Z M102.606452,43.8978495 C103.293548,43.8978495 103.827957,43.3634409 103.827957,42.6763441 C103.827957,41.9892473 103.293548,41.5311828 102.606452,41.5311828 C101.919355,41.5311828 101.384946,42.0655914 101.384946,42.6763441 C101.384946,43.2870968 101.995699,43.8978495 102.606452,43.8978495 Z M100.621505,45.4247312 C100.621505,45.7301075 100.850538,45.9591398 101.155914,45.9591398 C101.46129,45.9591398 101.690323,45.7301075 101.690323,45.4247312 C101.690323,45.1193548 101.46129,44.8903226 101.155914,44.8903226 C100.850538,44.8139785 100.545161,45.1193548 100.621505,45.4247312 C100.545161,45.4247312 100.545161,45.4247312 100.621505,45.4247312 Z M96.9569892,43.8978495 C96.4989247,43.8978495 96.1935484,44.2032258 96.1935484,44.6612903 C96.1935484,45.1193548 96.4989247,45.4247312 96.9569892,45.4247312 C97.4150538,45.4247312 97.7204301,45.1193548 97.7204301,44.6612903 C97.7204301,44.2032258 97.4150538,43.8978495 96.9569892,43.8978495 C96.9569892,43.8978495 96.9569892,43.8978495 96.9569892,43.8978495 Z M48.9365591,145.74086 C48.9365591,144.290323 47.7150538,143.068817 46.2645161,143.068817 C44.8139785,143.068817 43.5924731,144.290323 43.5924731,145.74086 C43.5924731,147.191398 44.8139785,148.412903 46.2645161,148.412903 C47.7150538,148.412903 48.9365591,147.191398 48.9365591,145.74086 C48.9365591,145.74086 48.9365591,145.74086 48.9365591,145.74086 Z M45.272043,152.688172 C45.272043,153.298925 45.7301075,153.756989 46.3408602,153.756989 C46.9516129,153.756989 47.4096774,153.298925 47.4096774,152.688172 C47.4096774,152.077419 46.9516129,151.619355 46.3408602,151.619355 C46.3408602,151.619355 46.3408602,151.619355 46.3408602,151.619355 C45.7301075,151.619355 45.272043,152.077419 45.272043,152.688172 Z M51.2268817,151.084946 C51.2268817,150.550538 50.7688172,150.092473 50.2344086,150.092473 C49.7,150.092473 49.2419355,150.550538 49.2419355,151.084946 C49.2419355,151.619355 49.7,152.077419 50.2344086,152.077419 C50.7688172,152.077419 51.2268817,151.619355 51.2268817,151.084946 C51.2268817,151.084946 51.2268817,151.084946 51.2268817,151.084946 Z M50.8451613,156.352688 C51.3795699,156.352688 51.7612903,155.970968 51.7612903,155.436559 C51.7612903,154.902151 51.3795699,154.52043 50.8451613,154.52043 C50.3107527,154.52043 49.9290323,154.902151 49.9290323,155.436559 C49.9290323,155.970968 50.3107527,156.352688 50.8451613,156.352688 Z M70.7709677,58.0978495 C69.7784946,58.0978495 68.9387097,58.9376344 68.9387097,59.9301075 C68.9387097,60.8462366 69.5494624,61.5333333 70.3892473,61.7623656 C70.6946237,63.9 72.4505376,65.4268817 74.588172,65.5795699 C76.7258065,65.4268817 78.4053763,63.8236559 78.7870968,61.7623656 L80.2376344,61.7623656 C81.2301075,61.6860215 81.9935484,60.8462366 81.9935484,59.7774194 C81.9172043,58.8612903 81.2301075,58.0978495 80.2376344,58.0215054 L70.7709677,58.0978495 Z M94.8193548,104.515054 C94.4376344,103.598925 94.8956989,102.530108 95.888172,102.148387 C96.8806452,101.766667 97.8731183,102.224731 98.2548387,103.217204 C98.6365591,104.286022 107.568817,127.41828 108.637634,142.152688 C109.630108,140.549462 111.386022,139.556989 113.294624,139.556989 L113.752688,139.556989 C115.050538,139.633333 116.272043,140.244086 117.188172,141.160215 C117.875269,139.709677 119.173118,138.64086 120.7,138.25914 C121.158065,138.182796 121.616129,138.106452 122.074194,138.106452 C123.601075,138.106452 125.051613,138.793548 126.044086,139.93871 C124.746237,119.936559 112.302151,93.9032258 111.309677,91.9946237 C110.011828,89.627957 108.713978,87.2612903 107.187097,84.9709677 C106.729032,84.283871 106.805376,83.444086 107.339785,82.8333333 C107.568817,82.527957 107.797849,82.2225806 107.950538,81.9172043 C108.943011,80.0086022 108.408602,77.6419355 106.729032,76.2677419 C105.965591,75.6569892 105.812903,74.588172 106.347312,73.7483871 C109.324731,69.4731183 110.927957,64.3580645 110.851613,59.1666667 C110.851613,46.6462366 105.660215,38.0956989 95.5064516,33.8967742 C81.1537634,27.9419355 61.3043011,32.6752688 58.555914,35.4236559 C56.8,37.1795699 55.883871,41.683871 56.1892473,47.1043011 C56.4946237,52.372043 57.8688172,56.7236559 59.0139785,57.8688172 C59.0903226,57.9451613 59.1666667,58.0215054 59.2430108,58.0978495 L65.9612903,58.0978495 C66.9537634,58.1741935 67.7172043,59.0139785 67.7172043,60.0827957 C67.6408602,60.9989247 66.9537634,61.7623656 65.9612903,61.8387097 L64.5107527,61.8387097 C64.1290323,63.9 62.4494624,65.5032258 60.311828,65.655914 C58.1741935,65.5032258 56.4946237,63.9763441 56.1129032,61.9150538 C53.0591398,62.983871 50.0817204,64.3580645 47.2569892,65.9612903 C49.2419355,68.0225806 51.6086022,69.7021505 54.127957,71 C55.044086,71.4580645 55.4258065,72.6032258 54.9677419,73.4430108 C54.6623656,74.0537634 54.0516129,74.4354839 53.3645161,74.4354839 C53.0591398,74.4354839 52.8301075,74.3591398 52.5247312,74.2064516 C48.9365591,72.4505376 45.7301075,69.9311828 43.1344086,66.8010753 C38.4010753,61.0752688 35.7290323,53.8989247 35.7290323,46.4172043 C35.7290323,43.2107527 36.1870968,40.0806452 37.1032258,37.0268817 C37.1795699,36.6451613 37.3322581,36.3397849 37.4849462,35.9580645 C36.1870968,36.6451613 34.8892473,37.4086022 33.5913978,38.2483871 C18.3989247,47.8677419 13.9709677,67.9462366 23.5903226,83.0623656 C29.3924731,92.1473118 39.2408602,97.7204301 50.0053763,98.1021505 C50.0817204,98.1021505 50.0817204,98.1021505 50.0817204,98.1021505 L53.3645161,98.1021505 C59.0139785,98.1021505 64.5870968,96.6516129 69.5494624,93.9032258 C70.4655914,93.3688172 71.5344086,93.7505376 72.0688172,94.5903226 C72.6032258,95.5064516 72.2215054,96.5752688 71.3817204,97.1096774 C67.3354839,99.4 62.8311828,100.926882 58.1741935,101.537634 C54.6623656,101.995699 51.1505376,101.995699 47.5623656,101.766667 C53.8225806,105.965591 61.6860215,106.729032 68.6333333,103.827957 C69.5494624,103.446237 70.6182796,103.904301 71.0763441,104.82043 C71.4580645,105.736559 71,106.805376 70.083871,107.263441 C66.8774194,108.56129 63.4419355,109.248387 60.0064516,109.248387 L59.8537634,109.248387 C55.5784946,109.248387 51.3032258,108.17957 47.5623656,106.11828 C41.0731183,115.432258 37.5612903,126.502151 37.5612903,137.877419 C37.6376344,142.534409 38.172043,147.191398 39.3172043,151.772043 C40.9204301,158.032258 43.5924731,163.910753 47.2569892,169.178495 L47.3333333,169.178495 C48.3258065,169.331183 49.0129032,170.323656 48.783871,171.316129 C47.6387097,177.423656 46.7225806,186.126882 47.2569892,191.31828 C48.6311828,189.333333 50.8451613,188.188172 53.211828,188.188172 C53.4408602,188.188172 53.7462366,188.188172 53.9752688,188.188172 C56.3419355,188.493548 58.4032258,189.791398 59.7010753,191.7 C59.8537634,191.470968 60.0064516,191.31828 60.2354839,191.089247 C61.3806452,190.02043 62.983871,189.409677 64.5870968,189.562366 C67.6408602,189.944086 70.0075269,192.234409 70.4655914,195.288172 L76.1913978,195.288172 C77.3365591,193.76129 77.9473118,185.668817 77.5655914,177.576344 C77.4892473,176.583871 78.2526882,175.667742 79.2451613,175.591398 C80.2376344,175.515054 81.1537634,176.278495 81.2301075,177.270968 C81.2301075,177.347312 81.2301075,177.347312 81.2301075,177.423656 C81.3064516,178.339785 81.3064516,179.790323 81.3827957,181.546237 C82.9860215,181.622581 84.6655914,181.775269 86.3451613,181.851613 C86.6505376,179.255914 86.955914,177.423656 86.955914,177.270968 C87.1086022,176.278495 88.0247312,175.591398 89.0172043,175.744086 C90.0096774,175.896774 90.6967742,176.812903 90.544086,177.805376 C89.9333333,182.004301 89.4752688,186.27957 89.2462366,190.478495 C90.6204301,189.027957 92.4526882,188.264516 94.4376344,188.264516 C94.6666667,188.264516 94.972043,188.264516 95.2010753,188.264516 C97.5677419,188.569892 99.6290323,189.867742 100.926882,191.776344 C101.07957,191.547312 101.232258,191.394624 101.46129,191.165591 C102.606452,190.096774 104.209677,189.486022 105.812903,189.63871 C108.790323,190.02043 111.156989,192.234409 111.691398,195.211828 L117.188172,195.211828 C117.188172,195.211828 119.02043,194.066667 118.63871,183.302151 C118.562366,180.324731 118.256989,177.347312 118.027957,175.133333 C119.249462,174.904301 120.470968,174.675269 121.692473,174.293548 C122.455914,180.85914 123.448387,193.684946 120.165591,197.502151 C119.478495,198.341935 118.409677,198.876344 117.264516,198.876344 L88.788172,198.876344 C88.0247312,198.876344 87.3376344,198.570968 86.8795699,197.960215 C85.9634409,196.891398 85.2,194.677419 85.9634409,186.050538 C85.9634409,185.592473 86.0397849,185.134409 86.116129,184.6 C84.5129032,184.523656 82.9860215,184.447312 81.4591398,184.294624 C81.3827957,189.562366 80.8483871,195.746237 78.8634409,197.807527 C78.2526882,198.494624 77.4129032,198.8 76.5731183,198.876344 L49.0892473,198.876344 C47.7913978,198.876344 46.5698925,198.265591 45.7301075,197.273118 C41.9129032,192.692473 44.0505376,177.805376 44.9666667,172.07957 C39.8516129,164.97957 36.416129,156.887097 34.8892473,148.260215 C30.6139785,147.496774 26.7967742,145.282796 24.0483871,141.923656 C23.7430108,141.541935 23.5903226,141.083871 23.6666667,140.549462 C24.888172,131.464516 28.9344086,120.165591 35.8053763,107.034409 C37.1795699,104.43871 38.4774194,101.995699 39.7752688,99.8580645 C20.6892473,93.216129 10.688172,72.3741935 17.3301075,53.4408602 C19.9258065,45.9591398 24.888172,39.5462366 31.4537634,35.1946237 C34.2021505,33.3623656 37.1795699,31.988172 40.3860215,30.9956989 C41.3784946,30.6903226 42.3709677,31.2247312 42.6763441,32.2172043 C42.8290323,32.6752688 42.7526882,33.2096774 42.5236559,33.6677419 C41.7602151,35.1182796 41.1494624,36.6451613 40.6150538,38.2483871 C39.7752688,40.9204301 39.3935484,43.6688172 39.3935484,46.4935484 C39.3935484,52.4483871 41.3021505,58.3268817 44.8903226,63.1365591 C47.8677419,61.1516129 52.2956989,59.3956989 54.9677419,58.4032258 C53.5172043,55.4258065 52.7537634,50.9215054 52.5247312,47.4096774 C52.372043,44.2795699 52.2956989,36.5688172 55.9602151,32.9043011 C58.1741935,30.6903226 65.7322581,28.2473118 74.6645161,27.6365591 C74.588172,27.4075269 74.511828,27.1021505 74.4354839,26.8731183 C72.8322581,21.4526882 73.8247312,15.6505376 77.1075269,12.5204301 C77.4892473,12.1387097 77.9473118,11.9860215 78.4817204,12.1387097 C82.6043011,12.9784946 86.3451613,16.872043 87.872043,22.0634409 C88.4827957,24.0483871 88.711828,26.1860215 88.5591398,28.2473118 C90.3150538,28.5526882 91.9946237,28.9344086 93.6741935,29.4688172 C93.9032258,28.4 94.2086022,27.3311828 94.5903226,26.3387097 C96.8806452,20.0021505 101.384946,15.2688172 106.11828,14.2 C106.805376,14.0473118 107.492473,14.3526882 107.950538,14.8870968 C110.698925,18.3989247 111.080645,24.5827957 109.019355,30.5376344 C108.255914,32.5989247 107.263441,34.583871 105.965591,36.416129 C110.851613,40.9967742 114.668817,48.1731183 114.668817,59.3956989 C114.668817,64.816129 113.141935,70.1602151 110.317204,74.7408602 C112.378495,77.2602151 112.836559,80.772043 111.309677,83.7494624 C111.233333,83.9021505 111.156989,84.0548387 111.080645,84.2075269 C114.363441,89.3989247 117.111828,94.8956989 119.402151,100.621505 C120.31828,102.911828 121.158065,105.278495 121.921505,107.645161 C121.997849,107.950538 122.150538,108.255914 122.226882,108.56129 C127.265591,122.455914 129.86129,134.212903 129.86129,143.374194 C129.86129,143.832258 129.632258,144.366667 129.326882,144.672043 C126.12043,147.878495 121.539785,149.634409 116.348387,149.634409 C111.92043,149.634409 107.721505,148.260215 105.583871,146.122581 C105.202151,145.74086 105.049462,145.282796 105.049462,144.824731 C105.049462,130.930108 94.8956989,104.82043 94.8193548,104.515054 Z M102.453763,195.364516 L108.637634,195.364516 C108.17957,193.990323 107.034409,192.921505 105.583871,192.768817 C104.82043,192.692473 103.980645,192.997849 103.446237,193.532258 C102.911828,193.990323 102.606452,194.601075 102.453763,195.364516 Z M90.0860215,195.364516 L99.2473118,195.364516 C98.7892473,193.226882 97.1096774,191.547312 94.8956989,191.241935 C94.7430108,191.241935 94.5903226,191.241935 94.4376344,191.241935 C92.1473118,191.31828 90.3150538,193.074194 90.0860215,195.364516 Z M61.227957,195.364516 L67.488172,195.364516 C67.1064516,193.913978 65.8849462,192.845161 64.4344086,192.616129 C63.6709677,192.539785 62.9075269,192.845161 62.2967742,193.37957 C61.6860215,193.837634 61.3043011,194.524731 61.227957,195.364516 Z M48.783871,195.364516 L58.0215054,195.364516 C57.6397849,193.150538 55.883871,191.394624 53.6698925,191.089247 L53.211828,191.089247 C50.8451613,191.165591 48.9365591,192.997849 48.783871,195.364516 Z M42.5236559,102.377419 C36.9505376,112.225806 29.2397849,127.570968 27.4075269,140.396774 C29.2397849,142.38172 31.6064516,143.832258 34.2784946,144.519355 C34.0494624,142.305376 33.8967742,140.015054 33.8967742,137.801075 C33.8204301,125.73871 37.5612903,113.905376 44.4322581,104.056989 C43.7451613,103.522581 43.1344086,102.988172 42.5236559,102.377419 Z M105.431183,29.0870968 C106.88172,24.9645161 106.958065,20.6892473 105.583871,18.0172043 C102.530108,19.3150538 99.5526882,22.9795699 97.9494624,27.4075269 C97.5677419,28.4763441 97.2623656,29.4688172 97.1096774,30.6139785 C99.1709677,31.4537634 101.155914,32.5989247 102.988172,33.8967742 C104.056989,32.3698925 104.82043,30.7666667 105.431183,29.0870968 Z M119.631183,144.824731 C120.012903,144.901075 120.470968,144.977419 120.852688,144.977419 C121.08172,144.977419 121.310753,144.977419 121.539785,144.901075 C122.608602,144.519355 123.677419,144.06129 124.593548,143.450538 C124.211828,141.847312 123.143011,141.007527 121.997849,141.007527 C121.768817,141.007527 121.616129,141.007527 121.387097,141.083871 C120.012903,141.465591 119.173118,142.916129 119.631183,144.824731 Z M110.698925,144.748387 C111.844086,145.130108 112.989247,145.35914 114.210753,145.511828 C114.745161,145.435484 115.355914,145.35914 115.890323,145.206452 C115.966667,143.755914 114.897849,142.534409 113.523656,142.458065 L113.294624,142.458065 C111.92043,142.458065 110.851613,143.450538 110.698925,144.748387 Z" id="Shape" fill="url(#linearGradient-6)" fill-rule="nonzero"></path>
                        </g>
                    </g>
                    <path d="M73.9010753,62.3731183 C73.9774194,62.4494624 74.0537634,62.4494624 74.1301075,62.4494624 C74.2064516,62.4494624 74.2827957,62.4494624 74.3591398,62.3731183 L74.8172043,61.9150538 L75.2752688,62.3731183 C75.3516129,62.4494624 75.427957,62.4494624 75.5043011,62.4494624 C75.5806452,62.4494624 75.6569892,62.4494624 75.7333333,62.3731183 C75.8860215,62.2204301 75.8860215,61.9913978 75.7333333,61.9150538 L75.2752688,61.4569892 L75.7333333,60.9989247 C75.8860215,60.8462366 75.8860215,60.6172043 75.7333333,60.5408602 C75.5806452,60.388172 75.3516129,60.388172 75.2752688,60.5408602 L74.8172043,60.9989247 L74.3591398,60.5408602 C74.2064516,60.388172 73.9774194,60.388172 73.9010753,60.5408602 C73.7483871,60.6935484 73.7483871,60.9225806 73.9010753,60.9989247 L74.3591398,61.4569892 L73.9010753,61.9150538 C73.7483871,61.9913978 73.7483871,62.2204301 73.9010753,62.3731183 Z" id="Path" fill="#FFFFFF"></path>
                    <path d="M59.5483871,63.2892473 C59.6247312,63.3655914 59.7010753,63.3655914 59.7774194,63.3655914 C59.8537634,63.3655914 59.9301075,63.3655914 60.0064516,63.2892473 L60.4645161,62.8311828 L60.9225806,63.2892473 C60.9225806,63.3655914 61.0752688,63.3655914 61.1516129,63.3655914 C61.227957,63.3655914 61.3043011,63.3655914 61.3806452,63.2892473 C61.5333333,63.1365591 61.5333333,62.9075269 61.3806452,62.8311828 L60.9225806,62.3731183 L61.3806452,61.9150538 C61.5333333,61.7623656 61.5333333,61.5333333 61.3806452,61.4569892 C61.227957,61.3043011 60.9989247,61.3043011 60.9225806,61.4569892 L60.4645161,61.9150538 L60.0064516,61.4569892 C59.8537634,61.3043011 59.6247312,61.3043011 59.5483871,61.4569892 C59.3956989,61.6096774 59.3956989,61.8387097 59.5483871,61.9150538 L60.0064516,62.3731183 L59.5483871,62.7548387 C59.472043,62.9075269 59.472043,63.1365591 59.5483871,63.2892473 Z" id="Path" fill="#FFFFFF"></path>
                </g>
            </g>
        </g>
    </g>
</svg>