<?xml version="1.0" encoding="UTF-8"?>
<svg width="740px" height="691px" viewBox="0 0 740 691" version="1.1" xmlns="http://www.w3.org/2000/svg" xmlns:xlink="http://www.w3.org/1999/xlink">
    <!-- Generator: Sketch 52.5 (67469) - http://www.bohemiancoding.com/sketch -->
    <title>Group</title>
    <desc>Created with Sketch.</desc>
    <defs>
        <linearGradient x1="54.4440437%" y1="100%" x2="0%" y2="0%" id="linearGradient-1">
            <stop stop-color="#FA709A" offset="0%"></stop>
            <stop stop-color="#FEC140" offset="100%"></stop>
        </linearGradient>
        <linearGradient x1="54.4440437%" y1="100%" x2="-34.7002525%" y2="-33.1610577%" id="linearGradient-2">
            <stop stop-color="#FA709A" offset="0%"></stop>
            <stop stop-color="#FEC140" offset="100%"></stop>
        </linearGradient>
    </defs>
    <g id="Design" stroke="none" stroke-width="1" fill="none" fill-rule="evenodd">
        <g id="Price-Plan" transform="translate(0.000000, -159.000000)">
            <g id="Group" transform="translate(-30.000000, 159.000000)">
                <rect id="Rectangle-7" fill="url(#linearGradient-1)" x="0" y="40" width="60" height="60" rx="30"></rect>
                <rect id="Rectangle-7" fill="url(#linearGradient-1)" x="74" y="0" width="20" height="20" rx="10"></rect>
                <rect id="Rectangle-7" fill="url(#linearGradient-1)" x="700" y="80" width="20" height="20" rx="10"></rect>
                <rect id="Rectangle-7" fill="url(#linearGradient-1)" x="750" y="474" width="20" height="20" rx="10"></rect>
                <rect id="Rectangle-7" fill="url(#linearGradient-1)" x="64" y="671" width="20" height="20" rx="10"></rect>
                <polygon id="Triangle" fill="url(#linearGradient-2)" transform="translate(604.627417, 601.627417) rotate(45.000000) translate(-604.627417, -601.627417) " points="604.627417 585.627417 620.627417 617.627417 588.627417 617.627417"></polygon>
                <polygon id="Triangle" fill="url(#linearGradient-2)" transform="translate(531.435029, 20.435029) rotate(-45.000000) translate(-531.435029, -20.435029) " points="531.435029 10.9350288 540.935029 29.9350288 521.935029 29.9350288"></polygon>
            </g>
        </g>
    </g>
</svg>