<?xml version="1.0" encoding="UTF-8"?>
<svg width="25px" height="25px" viewBox="0 0 25 25" version="1.1" xmlns="http://www.w3.org/2000/svg" xmlns:xlink="http://www.w3.org/1999/xlink">
    <!-- Generator: Sketch 52.5 (67469) - http://www.bohemiancoding.com/sketch -->
    <title>Group 6</title>
    <desc>Created with Sketch.</desc>
    <g id="Design" stroke="none" stroke-width="1" fill="none" fill-rule="evenodd">
        <g id="Video-Uploaded" transform="translate(-365.000000, -126.000000)">
            <g id="Group-11" transform="translate(365.000000, 126.000000)">
                <g id="Group-6">
                    <path d="M12.5000533,0 C19.4035591,0 25,5.59644091 25,12.4999467 C25,19.4035591 19.4035591,25 12.5000533,25 C5.59644091,25 0,19.4035591 0,12.4999467 C0,5.59644091 5.59644091,0 12.5000533,0" id="Fill-1-Copy-3" fill="#7ED321"></path>
                    <path d="M11.3450094,16.9999984 C11.0607459,17.0004667 10.7877323,16.8955847 10.5864376,16.7083892 L6.30068743,12.7128564 C5.88966042,12.3159907 5.9015131,11.6837026 6.32710486,11.3004153 C6.74235063,10.9265862 7.40047599,10.9265862 7.81572176,11.3004153 L11.3450094,14.5887444 L19.1578375,7.30497614 C19.5689649,6.90811045 20.24728,6.89715404 20.6728718,7.28044126 C21.098564,7.66363484 21.1103162,8.29601662 20.6991888,8.6928823 C20.6905504,8.70112303 20.6818115,8.7092701 20.6728718,8.71732354 L12.1014719,16.7083892 C11.9006794,16.8950229 11.6286703,16.9999984 11.3450094,16.9999984" id="Fill-4-Copy-3" fill="#FAFAFA"></path>
                </g>
            </g>
        </g>
    </g>
</svg>