<?xml version="1.0" encoding="UTF-8"?>
<svg width="158px" height="70px" viewBox="0 0 158 70" version="1.1" xmlns="http://www.w3.org/2000/svg" xmlns:xlink="http://www.w3.org/1999/xlink">
    <!-- Generator: Sketch 52.5 (67469) - http://www.bohemiancoding.com/sketch -->
    <title>Asset 1</title>
    <desc>Created with Sketch.</desc>
    <defs>
        <linearGradient x1="11.6935981%" y1="17.8611077%" x2="88.3002344%" y2="82.1388923%" id="linearGradient-1">
            <stop stop-color="#106EC2" offset="0%"></stop>
            <stop stop-color="#116FC3" offset="2%"></stop>
            <stop stop-color="#2A84D1" offset="63%"></stop>
            <stop stop-color="#338CD6" offset="100%"></stop>
        </linearGradient>
        <linearGradient x1="0%" y1="50%" x2="100%" y2="50%" id="linearGradient-2">
            <stop stop-color="#4A4843" offset="0%"></stop>
            <stop stop-color="#737069" offset="100%"></stop>
        </linearGradient>
        <linearGradient x1="50.0069725%" y1="100%" x2="50.0069725%" y2="0%" id="linearGradient-3">
            <stop stop-color="#106EC2" offset="0%"></stop>
            <stop stop-color="#116FC3" offset="2%"></stop>
            <stop stop-color="#2A84D1" offset="63%"></stop>
            <stop stop-color="#338CD6" offset="100%"></stop>
        </linearGradient>
        <linearGradient x1="14.9375%" y1="85%" x2="85.375%" y2="14.625%" id="linearGradient-4">
            <stop stop-color="#106EC2" offset="0%"></stop>
            <stop stop-color="#116FC3" offset="2%"></stop>
            <stop stop-color="#2A84D1" offset="63%"></stop>
            <stop stop-color="#338CD6" offset="100%"></stop>
        </linearGradient>
        <linearGradient x1="4.03622549%" y1="85.4710763%" x2="111.035301%" y2="19.9439312%" id="linearGradient-5">
            <stop stop-color="#414042" offset="0%"></stop>
            <stop stop-color="#333132" offset="100%"></stop>
            <stop stop-color="#222323" offset="100%"></stop>
        </linearGradient>
        <linearGradient x1="-0.00797212759%" y1="49.8954716%" x2="99.9991419%" y2="49.8954716%" id="linearGradient-6">
            <stop stop-color="#4A4843" offset="0%"></stop>
            <stop stop-color="#7D7A72" offset="100%"></stop>
        </linearGradient>
        <linearGradient x1="-0.0154846702%" y1="49.9999946%" x2="100%" y2="49.9999946%" id="linearGradient-7">
            <stop stop-color="#106EC2" offset="0%"></stop>
            <stop stop-color="#116FC3" offset="2%"></stop>
            <stop stop-color="#2A84D1" offset="63%"></stop>
            <stop stop-color="#338CD6" offset="100%"></stop>
        </linearGradient>
        <linearGradient x1="14.6875%" y1="85.0000235%" x2="85.0625%" y2="14.6251336%" id="linearGradient-8">
            <stop stop-color="#106EC2" offset="0%"></stop>
            <stop stop-color="#116FC3" offset="2%"></stop>
            <stop stop-color="#2A84D1" offset="63%"></stop>
            <stop stop-color="#338CD6" offset="100%"></stop>
        </linearGradient>
    </defs>
    <g id="Design" stroke="none" stroke-width="1" fill="none" fill-rule="evenodd">
        <g id="Search-Results" transform="translate(-65.000000, -23.000000)">
            <g id="header" transform="translate(0.000000, -1.000000)">
                <g id="Asset-1" transform="translate(65.000000, 24.000000)">
                    <ellipse id="Oval" fill="url(#linearGradient-1)" cx="21.5" cy="21" rx="21.5" ry="21"></ellipse>
                    <ellipse id="Oval" fill="url(#linearGradient-2)" cx="23" cy="67.5" rx="18" ry="2.5"></ellipse>
                    <path d="M37.2515989,5 C35.7765683,5.31005844 34.2391324,6.84927715 33.4647413,8.96431867 C32.7300626,10.968625 32.8974218,12.9231006 33.7484011,14 C35.2205951,13.6927099 36.758031,12.159028 37.5352587,10.0356813 C38.2699374,8.02860658 38.1025782,6.07689942 37.2515989,5 Z" id="Path" fill="#6B6A66"></path>
                    <path d="M16.1883814,31 C16.1883814,31 9.93959166,40.6377755 9,47.9356541 C10.8185645,50.3717468 14.5870343,50.3743466 15.8625553,49.3655911 C16.4763208,44.5584028 21,36.061977 21,36.061977" id="Path" fill="#615F59"></path>
                    <path d="M13.8189655,11.3382157 L14,11 C12.8737409,11.3220929 11.802662,11.7910627 10.8189655,12.3928096 C7.19948065,14.6093035 5.01562894,18.3562963 5,22.3768309 C6.68199666,22.7625205 8.40548573,22.971559 10.137931,23 C9.41954023,18.8242344 10.6867816,14.3954727 13.8189655,11.3382157 Z" id="Path" fill="#BFB9B2"></path>
                    <path d="M13.2097429,13.2884041 C13.3608869,12.8474528 13.5469817,12.4168747 13.766588,12 C10.7289978,14.8832122 9.50115432,19.0598516 10.1832896,22.9978975 C11.9818994,23.0255241 13.2459378,22.7819078 15,22.2067722 C12.8320183,19.6730626 12.1643474,16.3469844 13.2097429,13.2884041 Z" id="Path" fill="#D7D2CD"></path>
                    <path d="M28.5049079,10.3384014 C28.9993062,10.2559196 29.4989386,10.2089407 30,10.1978226 C25.5733047,9.51282035 20.8919089,10.7550259 19.985175,11.6649542 C18.3678266,13.2854446 18.9842019,18.7475706 20.1023372,20 C20.1991234,18.7833542 20.3952429,17.5897123 20.9683191,16.5852128 C22.6111375,13.6253897 24.9823995,10.9134966 28.5049079,10.3384014 Z" id="Path" fill="#615F59"></path>
                    <path d="M11.6236306,27.6368876 C10.9954353,26.0406645 10.6254646,24.3460103 10.5289033,22.6224784 C9.00194405,22.5915211 7.4830126,22.3827442 6.00013568,22 L6.00013568,22.0877854 C5.97487545,27.5419134 9.47907802,32.3218107 14.5166572,33.7047218 C15.0039584,33.8391016 15.4996056,33.9377665 16,34 C14.0645424,32.2336511 12.4923006,30.1374418 11.6236306,27.6368876 Z" id="Path" fill="#615F59"></path>
                    <path d="M23,62 L22.6601777,61.9592756 C19.6247722,61.5800294 17.4120945,61.1320607 17.4708608,60.8139011 C10.865717,54.0763833 10.1582643,43.5548502 15.8024098,36 C15.7691941,36.6643172 16.0144794,36.0381791 16.0144794,36.7126774 C16.0144794,45.3895252 18.4468918,54.6772394 22.6933934,59.7168869 L22.859472,59.9103279 L23,62 Z" id="Path" fill="#615F59"></path>
                    <path d="M23.7710143,60.5693112 C23.7710143,60.5693112 17.957192,60.9616391 15.3824993,59 C16.3591069,62.3269398 13.5409783,68 16.1213989,68 L23.8683887,68 C24.0719161,65.5252108 24.0393352,63.0389434 23.7710143,60.5693112 Z" id="Path" fill="#615F59"></path>
                    <path d="M42.9999652,48.4965048 C43.0095471,41.759003 41.0409722,35.1604791 37.328221,29.4852195 C37.4415986,29.3534173 37.5389949,29.2092219 37.6184652,29.0555124 C38.1068903,28.1326369 37.8566202,27.0005693 37.0220001,26.3574725 C38.1315441,24.7918128 38.7243973,22.9314573 38.7208605,21.0264997 C38.7208605,14.6538128 34.8678024,11.9766071 30.5860349,11.1302143 C30.3383954,11.0807329 30.0880931,11.03646 29.8377907,11 C29.3139514,11.0113283 28.791606,11.059195 28.2747326,11.1432357 C24.5894303,11.7187828 22.1103721,14.4819299 20.3928721,17.4976927 C19.7937442,18.521177 19.5940349,19.7373784 19.4875233,20.9770183 L19.5354535,21.0264997 C19.5354535,21.0264997 19.516814,21.0421255 19.4821977,21.0577512 C19.0481628,21.2530726 16.1031163,22.214054 14.9554535,23.216704 C14.8675814,23.1151368 14.7850349,23.0109654 14.7024884,22.906794 C13.1936486,23.4384694 11.6037275,23.716712 10,23.7297483 C10.0585814,25.4225339 10.6497209,27.1621967 11.2435233,28.6362224 C12.1541977,31.0842509 13.8024651,33.136428 15.8315116,34.8552565 L15.8874302,34.8552565 C16.1856628,34.8891123 16.4892209,34.9099465 16.7954419,34.9177594 C16.6729535,35.0557865 16.5504651,35.196418 16.4306395,35.3396537 C16.2602209,35.5453922 16.0898023,35.7537351 15.9247093,35.9672865 L15.8048837,36.1235437 C15.7702675,36.8032622 16.0258954,36.1626079 16.0258954,36.8527436 C16.0258954,45.8531548 18.638093,55.4577603 23.1701628,60.5986202 L23.1515233,60.5986202 C23.4011523,63.0585081 23.4314448,65.5349754 23.2420582,68 L25.6385698,68 C26.5465814,68 26.7036861,65.0597615 26.7036861,63.0752958 C27.6782675,63.158633 28.6741512,63.231553 29.6620466,63.2888473 C29.4463605,65.2655001 29.2626279,68 29.9283256,68 L39.8605349,68 C41.436907,68 41.0508024,62.8357016 40.7818605,60.4215288 C41.9774536,56.6296889 42.9999652,52.6998218 42.9999652,48.4965048 Z" id="Path" fill="#A39D94"></path>
                    <path d="M38.488077,42 C33.2472459,42 29,46.2616136 29,51.501011 C29,56.7404085 33.2392972,60.9994824 38.488077,60.9994824 C39.7375922,61.0124225 40.976894,60.7826149 42.131223,60.3239227 C42.1577186,60.3112242 42.0199414,58.3429581 42.046437,58.3327993 C45.4590713,56.887711 48,55.4299242 48,51.501011 C48,46.2616136 43.7262585,42 38.488077,42 Z" id="Path" fill="#615F59"></path>
                    <g id="Group" opacity="0.8" transform="translate(31.000000, 42.000000)" fill="#FFFFFF">
                        <path d="M7.93180328,15.98 C3.63016393,15.98 0.118032787,12.4275 0.118032787,8.0225 C0.118032787,3.6175 3.63016393,0.065 7.93180328,0.065 C12.2334426,0.065 15.7770492,3.6175 15.7770492,8.0225 C15.7770492,12.4275 12.267541,15.98 7.93180328,15.98 Z" id="Path"></path>
                    </g>
                    <path d="M38.4854274,41 C33.2472459,41 29,45.2617297 29,50.5012699 C29,55.7408101 33.2392972,60 38.4854274,60 C43.7315577,60 48,55.7408101 48,50.5012699 C48,45.2617297 43.723609,41 38.4854274,41 Z" id="Path" fill="url(#linearGradient-3)"></path>
                    <path d="M37.9729223,45.2738024 C37.2464907,44.6890211 36,45.1025827 36,45.9323398 L36,55.0702052 C36,55.8973282 37.2464907,56.3108897 37.9729223,55.7261085 L43.6605519,51.1584929 C43.8745339,51.0014683 44,50.758061 44,50.4999554 C44,50.2418499 43.8745339,49.9984426 43.6605519,49.841418 L37.9729223,45.2738024 Z" id="Path" fill="#FFFFFF"></path>
                    <path d="M33,35 C33,35 34.5917883,43.3660549 34.9321377,48.0192875 C35.0622053,49.7701474 36.5995411,51.0947546 38.3853758,50.9946842 C40.7416413,50.8739211 43.4304021,50.1159401 43.9566348,48.8749067 C44.8022723,46.8501981 33,35 33,35 Z" id="Path" fill="#615F59" opacity="0.75" style="mix-blend-mode: multiply;"></path>
                    <path d="M38.7218173,31 C38.7218173,31 44,41.2610837 44,48.5156699 C41.765792,50.6602364 37.8131681,50.1651391 36.6078717,49.0082019 C36.6078717,44.2239717 33,35.3147857 33,35.3147857" id="Path" fill="#A39D94"></path>
                    <path d="M21.0015208,67 C20.9827748,66.4591519 21.1380228,65.933128 21.4287391,65.552464 C21.7194554,65.1718 22.1183903,64.9721768 22.5265459,65.0031319 C23.2780075,65.0779332 23.8944025,65.9788004 24,67" id="Path" fill="#CCCCCC"></path>
                    <path d="M16,67 C16.0270049,65.8183202 16.7364975,64.8931038 17.5711948,65.0099732 C18.3383902,65.1560111 18.9294884,65.9792873 19,67 L16,67 Z" id="Path" fill="#CCCCCC"></path>
                    <path d="M24,32 C22.2144109,33.3148913 20.1988743,34.0038701 18.1492537,33.9999836 L17,34" id="Path" fill="#A39D94"></path>
                    <path d="M35.0015208,67 C34.9827748,66.4591519 35.1380228,65.933128 35.4287391,65.552464 C35.7194554,65.1718 36.1183903,64.9721768 36.5265459,65.0031319 C37.2780075,65.0779332 37.8944025,65.9788004 38,67" id="Path" fill="#CCCCCC"></path>
                    <path d="M30,67 C30.027027,65.8183202 30.7371007,64.8931038 31.5700246,65.0099732 C32.3387245,65.1537687 32.9311709,65.9782475 33,67 L30,67 Z" id="Path" fill="#CCCCCC"></path>
                    <path d="M39.9966556,50.8049998 C40.0259268,50.208728 39.8614693,49.6319566 39.5656012,49.2932416 C39.269733,48.9545265 38.8877228,48.9056922 38.5643256,49.1652433 C38.2409284,49.4247944 38.0256248,49.953019 38,50.5497569 C38.6236416,51.0439125 39.3350971,51.1348616 39.9966556,50.8049998 Z" id="Path" fill="#CCCCCC"></path>
                    <path d="M43,49.2814528 C42.830886,48.2869997 42.2820074,47.8580199 41.7420295,48.0413113 C41.2020516,48.2246027 40.8756913,48.9421688 41.0448053,49.936622 C41.738533,50.1264392 42.4600767,49.8846561 43,49.2814528 Z" id="Path" fill="#CCCCCC"></path>
                    <path d="M23,35.3602918 C22.0285136,35.7916902 20.985022,36.009198 19.9324361,35.9997019 C17.6322488,35.9983199 15.4543119,34.8970587 14,33 C14,33 15.9774787,33.7683447 19.1167262,33.4183795" id="Path" fill="#615F59"></path>
                    <path d="M46.0925,40.11 C46.1099157,40.1124294 46.1275843,40.1124294 46.145,40.11 L46.195,40.11 C46.2992018,40.0883834 46.3937885,40.0340836 46.465,39.955 C46.5381409,39.8583404 46.5736781,39.7384022 46.565,39.6175 C46.568416,39.5325454 46.5556912,39.4477135 46.5275,39.3675 C46.5028196,39.3056062 46.4622981,39.2512902 46.41,39.21 C46.3520588,39.1697901 46.286577,39.1417264 46.2175,39.1275 C46.1300828,39.1115927 46.0413477,39.1040586 45.9525,39.105 L45.57,39.105 C45.5342272,39.1020545 45.4982728,39.1020545 45.4625,39.105 C45.4389629,39.1072667 45.4164898,39.1159103 45.3975,39.13 C45.3806275,39.1418551 45.3689844,39.1597676 45.365,39.18 C45.3618,39.208243 45.3618,39.236757 45.365,39.265 L45.365,40.765 C45.3659871,40.797859 45.3793863,40.8291239 45.4025,40.8525 C45.4341155,40.8857308 45.479391,40.9023626 45.525,40.8975 C45.5722707,40.9012674 45.6190835,40.8859632 45.655,40.855 C45.6805973,40.8321057 45.6951592,40.7993416 45.695,40.765 L45.695,40.1425 L46.3675,40.85 C46.3979207,40.8798633 46.4401133,40.894539 46.4825,40.89 C46.528311,40.8866185 46.5711619,40.8660857 46.6025,40.8325 C46.6348853,40.8031094 46.653094,40.7612294 46.6525,40.7175 C46.6501546,40.6726687 46.6304244,40.6305177 46.5975,40.6 L46.0925,40.11 Z M45.685,39.835 L45.685,39.385 L45.9525,39.385 C45.9882292,39.3811367 46.0242708,39.3811367 46.06,39.385 C46.0921437,39.388582 46.1229838,39.3997187 46.15,39.4175 C46.1773888,39.4328987 46.1992505,39.4565093 46.2125,39.485 C46.2286668,39.518458 46.2363919,39.5553669 46.235,39.5925 C46.235,39.6875 46.2125,39.75 46.1625,39.78 C46.097955,39.8139844 46.025303,39.8295527 45.9525,39.825 L45.685,39.835 Z M46,38 C44.8954305,38 44,38.8954305 44,40 C44,41.1045695 44.8954305,42 46,42 C47.1045695,42 48,41.1045695 48,40 C48.0000077,38.8983528 47.1091394,38.0041312 46.0075,38 L46,38 Z M46,41.5 C45.1632886,41.5 44.485,40.8217114 44.485,39.985 C44.485,39.1482886 45.1632886,38.47 46,38.47 C46.8367114,38.47 47.515,39.1482886 47.515,39.985 C47.5189956,40.3883312 47.3622539,40.7766588 47.0793967,41.0642067 C46.7965396,41.3517547 46.4108423,41.5148618 46.0075,41.5175 L46,41.5 Z" id="Shape" fill="url(#linearGradient-4)" fill-rule="nonzero"></path>
                    <path d="M14.500341,26.9110471 C14.8644059,27.114893 14.9086138,27.7316575 14.5965581,28.2935405 C14.2845025,28.8554234 13.7384051,29.1455118 13.3769407,28.9416659 C13.0154763,28.73782 12.9712684,28.1210555 13.2807236,27.5591726 C13.5901787,26.9972896 14.1362761,26.7098147 14.500341,26.9110471 Z M8.2202214,26.9110471 C7.85615649,27.114893 7.81194861,27.7316575 8.12140378,28.2935405 C8.43085895,28.8554234 8.97955677,29.1455118 9.34362167,28.9416659 C9.70768657,28.73782 9.74929399,28.1210555 9.43983882,27.5591726 C9.13038366,26.9972896 8.5842863,26.7098147 8.2202214,26.9110471 Z M32.7061866,13.7499199 C32.5273433,13.6967 32.3338335,13.7434096 32.1985504,13.8724536 C32.0632673,14.0014975 32.0067637,14.193271 32.050324,14.3755348 C32.0938842,14.5577986 32.2308904,14.7028625 32.4097338,14.7560823 C32.5933409,14.8337199 32.8049436,14.7991449 32.95462,14.6670501 C33.1042965,14.5349554 33.1657501,14.3285486 33.1128658,14.1355434 C33.0599815,13.9425382 32.9020506,13.7968437 32.7061866,13.7603735 L32.7061866,13.7499199 Z M33.2886905,15.5165843 C33.2886905,15.6262786 33.3771748,15.7152034 33.4863257,15.7152034 C33.5954766,15.7152034 33.6839609,15.6262786 33.6839609,15.5165843 C33.6839609,15.40689 33.5954766,15.3179652 33.4863257,15.3179652 C33.3771748,15.3179652 33.2886905,15.40689 33.2886905,15.5165843 Z M33.7723767,14.3928184 C33.6562133,14.3917619 33.5509501,14.4614127 33.5060093,14.5690691 C33.4610685,14.6767254 33.485376,14.801005 33.5675193,14.8835572 C33.6496626,14.9661094 33.7733265,14.9905379 33.8804496,14.9453734 C33.9875728,14.9002088 34.0568785,14.7944217 34.0558272,14.67768 C34.0558272,14.60213 34.0259638,14.5296744 33.9728065,14.4762525 C33.9196492,14.4228306 33.8475524,14.3928184 33.7723767,14.3928184 Z M34.7579524,15.9216627 C34.9805628,15.9216627 35.1610242,15.7403029 35.1610242,15.5165843 C35.1610242,15.2928657 34.9805628,15.1115059 34.7579524,15.1115059 C34.5353419,15.1115059 34.3548805,15.2928657 34.3548805,15.5165843 C34.3548805,15.7403029 34.5353419,15.9216627 34.7579524,15.9216627 Z M34.0558272,16.4443444 C34.0558272,16.551152 34.141983,16.6377367 34.2482615,16.6377367 C34.3545401,16.6377367 34.4406958,16.551152 34.4406958,16.4443444 C34.4406958,16.3375368 34.3545401,16.2509522 34.2482615,16.2509522 C34.1953703,16.2508745 34.144779,16.2726783 34.1083761,16.31124 C34.0719731,16.3498017 34.0529682,16.4017213 34.0558272,16.4547981 L34.0558272,16.4443444 Z M32.8232075,15.9216627 C32.6795878,15.9216627 32.5631611,16.038669 32.5631611,16.1830036 C32.5631611,16.3273381 32.6795878,16.4443444 32.8232075,16.4443444 C32.9668271,16.4443444 33.0832538,16.3273381 33.0832538,16.1830036 C33.0832573,16.1132364 33.055503,16.0463642 33.0061709,15.9972775 C32.9568389,15.9481907 32.890025,15.920965 32.820607,15.9216627 L32.8232075,15.9216627 Z M16.4584901,50.7897644 C16.4584901,50.28748 16.0533251,49.8802981 15.5535287,49.8802981 C15.0537324,49.8802981 14.6485674,50.28748 14.6485674,50.7897644 C14.6485674,51.2920488 15.0537324,51.6992307 15.5535287,51.6992307 C15.7937513,51.6999274 16.0243348,51.6043327 16.1941984,51.4336234 C16.3640621,51.2629141 16.4591834,51.0311828 16.4584901,50.7897644 Z M15.2102675,53.1731933 C15.2092141,53.3214101 15.2972446,53.4556222 15.4331995,53.5130774 C15.5691544,53.5705326 15.7261699,53.5398781 15.8308316,53.4354467 C15.9354933,53.3310152 15.9671207,53.173442 15.9109262,53.0364019 C15.8547316,52.8993618 15.7218188,52.8099333 15.5743324,52.8099295 C15.3742761,52.8099244 15.2116965,52.9721463 15.2102675,53.1731933 Z M17.2386291,52.6217641 C17.2386291,52.4355724 17.0884387,52.2846343 16.9031693,52.2846343 C16.7179,52.2846343 16.5677095,52.4355724 16.5677095,52.6217641 C16.5677095,52.8079557 16.7179,52.9588938 16.9031693,52.9588938 C16.9925912,52.9588965 17.0783132,52.9230191 17.1412994,52.8592286 C17.2042856,52.7954382 17.2393223,52.709015 17.2386291,52.6191506 L17.2386291,52.6217641 Z M17.1060055,54.430243 C17.2797853,54.430243 17.4206616,54.2886654 17.4206616,54.1140205 C17.4206616,53.9393757 17.2797853,53.7977981 17.1060055,53.7977981 C16.9322257,53.7977981 16.7913494,53.9393757 16.7913494,54.1140205 C16.7927773,54.2876439 16.9332362,54.4276355 17.1060055,54.4276296 L17.1060055,54.430243 Z M23.9114187,20.8035105 C23.5888976,20.8005345 23.3167942,21.0440533 23.2825048,21.3663567 C23.2482154,21.68866 23.4629384,21.9844885 23.7787951,22.0501066 C23.8873481,22.7711733 24.4844867,23.3167289 25.2090501,23.356811 C25.9281862,23.3050466 26.5183838,22.7648502 26.6367046,22.0501066 L27.1255917,22.0501066 C27.4567679,22.0286786 27.7144711,21.7524822 27.7144711,21.4189683 C27.7144711,21.0854545 27.4567679,20.8092581 27.1255917,20.7878301 L23.9114187,20.8035105 Z M32.0976781,36.6930367 C31.9720109,36.3682839 32.1320977,36.0026392 32.4552419,35.8763464 C32.7783861,35.7500537 33.1422196,35.9109373 33.2678867,36.2356902 C33.4031109,36.5911138 36.4534546,44.5254232 36.7915149,49.5640756 C37.1371845,49.0175612 37.7360312,48.6856202 38.3803982,48.6833568 L38.5260241,48.6833568 C38.9713131,48.7178813 39.3898316,48.91058 39.7066346,49.2269459 C39.9397172,48.7329564 40.3804262,48.3696226 40.9080488,48.2364639 C41.0578138,48.1991972 41.2114456,48.1798976 41.3657304,48.1789689 C41.8849444,48.1826223 42.377895,48.40893 42.7205719,48.8009602 C42.2784931,41.9564423 38.0397374,33.0421045 37.7068781,32.380912 C37.2752011,31.5681418 36.8123186,30.7658253 36.3156301,29.984416 C36.1681563,29.7520231 36.1881744,29.4502573 36.3650389,29.2395945 C36.4435537,29.1454176 36.5115711,29.0428835 36.567875,28.9338256 C36.899612,28.2728269 36.7261415,27.4687111 36.1518009,27.0051299 C35.8945209,26.7978608 35.8400625,26.4261563 36.0269786,26.1531586 C37.0377422,24.6880501 37.5777199,22.9469595 37.5742545,21.1641609 C37.5742545,16.8677167 35.8111401,13.9537657 32.3369208,12.5085506 C27.4402478,10.4700917 20.6972457,12.0799516 19.7454761,13.0312324 C19.1421685,13.6375433 18.8353138,15.1663875 18.9445333,17.0245212 C19.0511523,18.8303868 19.5192357,20.3174165 19.9119057,20.7120412 C19.9365756,20.737174 19.9591864,20.7642672 19.9795178,20.7930569 L22.2705262,20.7930569 C22.6017023,20.8144849 22.8594056,21.0906813 22.8594056,21.4241951 C22.8594056,21.757709 22.6017023,22.0339054 22.2705262,22.0553334 L21.781639,22.0553334 C21.6633183,22.770077 21.0731206,23.3102734 20.3539845,23.3620378 C19.6362196,23.3224587 19.0424135,22.7865684 18.92633,22.0736272 C17.8860534,22.4495651 16.8795076,22.9138144 15.9175936,23.4613474 C16.5964058,24.1608347 17.3876146,24.7404088 18.2580109,25.1757436 C18.5146109,25.3055482 18.6511724,25.5935099 18.5898925,25.8755689 C18.5286126,26.1576279 18.2850481,26.3621795 17.9979645,26.3726849 C17.9012745,26.3716385 17.8061013,26.3483972 17.7197149,26.3047363 C16.4890041,25.6934868 15.3973582,24.8330841 14.5133433,23.7775699 C12.89166,21.8214382 12.0028676,19.3563077 12.0012955,16.8102217 C11.9997724,15.7230676 12.1619708,14.6419421 12.4823812,13.603569 C12.5187877,13.4807387 12.5577947,13.3605219 12.5994021,13.2403051 C12.1244999,13.4623829 11.666455,13.7191867 11.2289578,14.0086473 C7.13285539,16.6256727 5.21330491,21.6208749 6.495875,26.32544 C7.7784451,31.0300052 11.9633726,34.3443791 16.8147536,34.4977732 C16.8277559,34.4977732 16.8329568,34.4977732 16.8355573,34.4977732 L17.9537566,34.4977732 C19.8819574,34.4972863 21.7776682,33.9987261 23.4589381,33.0499447 C23.6540399,32.9393035 23.8930554,32.9416705 24.0859497,33.0561541 C24.2788441,33.1706377 24.3963121,33.3798452 24.3941047,33.60497 C24.3918972,33.8300948 24.2703497,34.0369352 24.0752479,34.1475764 C22.6877668,34.9332627 21.1632368,35.4442648 19.5842473,35.6529 C18.3873636,35.7975494 17.1791217,35.8220621 15.9774043,35.7260754 C18.1000135,37.154818 20.7934259,37.4206927 23.1520834,36.4343092 C23.4716371,36.2993564 23.8395455,36.4502945 23.9738298,36.771439 C24.1081142,37.0925834 23.9579237,37.4623234 23.6383701,37.5972762 C22.5533106,38.0511407 21.3888392,38.2821732 20.2135595,38.2767625 L20.1537488,38.2767625 C18.6894502,38.2722295 17.2494509,37.9003317 15.964402,37.1948112 C13.7430973,40.3806708 12.5568054,44.1790884 12.5681965,48.0692057 C12.5843136,49.6715324 12.7841341,51.2666538 13.1637027,52.8229965 C13.7077115,54.9551572 14.618595,56.9752679 15.8551825,58.7920225 L15.9175936,58.7920225 C16.2583793,58.8567302 16.4828371,59.1863272 16.4194831,59.5290038 C16.0294136,61.619731 15.7173579,64.6042439 15.8993904,66.3761352 C16.356238,65.7073777 17.1101882,65.3060683 17.9173501,65.3020241 C18.000565,65.3020241 18.0863803,65.3020241 18.1773965,65.3020241 C18.9739837,65.3943896 19.687615,65.8402325 20.1225433,66.5172593 C20.1789059,66.4488189 20.2387987,66.3833939 20.3019753,66.3212536 C20.7021173,65.9455075 21.2408565,65.7558679 21.78684,65.7985718 C22.8182636,65.9243241 23.6395092,66.726138 23.7943979,67.7586285 L25.7343437,67.7586285 C26.1270137,67.2359467 26.3454527,64.4788003 26.2076281,61.6981332 C26.1867996,61.4679303 26.2931206,61.2447579 26.4846185,61.1167184 C26.6761164,60.988679 26.9220174,60.9763484 27.1252466,61.0845945 C27.3284758,61.1928406 27.4563743,61.4042681 27.4584511,61.6354114 C27.4766543,61.9542473 27.4948576,62.450795 27.502659,63.0361986 C28.0487563,63.0753997 28.6130569,63.109374 29.1877594,63.1355081 C29.2891774,62.2547893 29.3853946,61.6118907 29.3905955,61.5674628 C29.4422986,61.2232248 29.7618899,60.986287 30.1044228,61.0382475 C30.4469556,61.0902079 30.6827197,61.4113902 30.6310167,61.7556282 C30.4134203,63.1967872 30.2702032,64.6483002 30.2019402,66.1043406 C30.6626676,65.615352 31.3027707,65.3376322 31.9728559,65.3359984 C32.0594563,65.330649 32.1463018,65.330649 32.2329022,65.3359984 C33.0294894,65.4283639 33.7431207,65.8742068 34.178049,66.5512336 C34.2330415,66.4816038 34.293011,66.416095 34.357481,66.3552279 C34.757623,65.9794818 35.2963622,65.7898422 35.8423457,65.8325461 C36.8536052,65.9548036 37.6653598,66.729172 37.8395017,67.7377212 L39.7170365,67.7377212 C39.7170365,67.7377212 40.3515496,67.3378697 40.2085241,63.6660301 C40.1695171,62.6389604 40.0785009,61.6301846 39.9978865,60.8775228 C40.416892,60.8096494 40.830548,60.7118341 41.2357072,60.584821 C41.4957536,62.8323527 41.823412,67.2333333 40.7156145,68.5269707 C40.4709371,68.8237806 40.1083519,68.9968898 39.7248378,68.9999977 L30.0251086,68.9999977 C29.7715298,68.999383 29.5313708,68.88541 29.3697918,68.6890021 C29.0551357,68.3231248 28.8002903,67.5756899 29.0499348,64.6068573 C29.0499348,64.4422126 29.0785399,64.2801812 29.0941427,64.1207633 C28.5558467,64.0972426 28.0253521,64.0632683 27.5130608,64.0266806 C27.4844557,65.8168657 27.2972223,67.9467939 26.6211018,68.6471875 C26.4220421,68.8698772 26.1388239,68.9979598 25.8409627,68.9999977 L16.4792938,68.9999977 C16.036453,69.0007839 15.6176752,68.7975757 15.3428912,68.4485684 C14.0426594,66.8805231 14.7629878,61.7843757 15.0828448,59.824319 C13.3508638,57.3969421 12.1782992,54.6125218 11.6502329,51.6730966 C10.1975142,51.4233864 8.88591139,50.6481239 7.9627755,49.4935136 C7.86198146,49.3609487 7.8171435,49.1938469 7.83795325,49.0283268 C8.24362557,45.9131434 9.63227313,42.0531384 11.9622885,37.5554617 C12.4277715,36.6590624 12.8854531,35.8279984 13.3067282,35.0857902 C8.8667736,33.5225751 5.68819521,29.5705541 5.09822872,24.8799187 C4.50826222,20.1892834 6.60836731,15.5667072 10.5216317,12.9423765 C11.4615144,12.3203158 12.4840429,11.8346604 13.5589732,11.4997748 C13.8036419,11.4216696 14.070991,11.5007488 14.2345475,11.6996029 C14.3981041,11.898457 14.4250767,12.1772179 14.3027057,12.4040143 C14.0410509,12.9053977 13.8268708,13.4303886 13.6629917,13.9720596 C13.3807574,14.8868899 13.2378489,15.8393634 13.2391161,16.7971546 C13.2398682,18.8466848 13.891225,20.842526 15.0984476,22.4943861 C16.1178293,21.8148998 17.6260982,21.2190425 18.5232582,20.8740726 C18.0213687,19.8496163 17.7639228,18.3103184 17.6937103,17.1081503 C17.6286987,16.0340392 17.6156964,13.3971096 18.858718,12.1426734 C19.6024506,11.392625 22.174309,10.5563342 25.2168515,10.3289676 C25.1856459,10.2401117 25.1570408,10.1512558 25.1284357,10.0676267 C24.5719365,8.21471977 24.9334009,6.23636922 26.033397,5.1465777 C26.152587,5.02706244 26.3236875,4.97596805 26.4884782,5.01068044 C27.9057308,5.30599565 29.1643552,6.63883419 29.6974502,8.40811203 C29.9052777,9.09583701 29.9880822,9.81557269 29.9418938,10.5328135 C30.5304585,10.6336863 31.1123192,10.7707115 31.6842044,10.9431187 C31.7593235,10.5775006 31.8601272,10.2176914 31.9858582,9.8663942 C32.7659973,7.69465139 34.3002708,6.06911105 35.9151587,5.71891425 C36.1511963,5.66875352 36.3949278,5.75921032 36.5418704,5.95150765 C37.4780373,7.16412938 37.6158619,9.26531015 36.892933,11.3037691 C36.6376514,12.0143463 36.2877397,12.6868838 35.8527476,13.3030269 C37.5092429,14.8710723 38.822477,17.3381303 38.822477,21.1693878 C38.8255685,23.0274984 38.3121944,24.8495449 37.3402127,26.4301799 C38.0544483,27.2964891 38.1873517,28.5067936 37.678273,29.5087756 C37.6522684,29.5610438 37.6210628,29.6159254 37.5898572,29.670807 C38.6970328,31.4568835 39.6463647,33.3370156 40.426963,35.2896361 C40.7424859,36.0823702 41.0294038,36.8855578 41.2877165,37.6991991 C41.3267234,37.7985087 41.3631299,37.9004316 41.3995364,38.0023546 C43.1288447,42.7639856 44,46.7729549 44,49.9142724 C43.9999621,50.0814585 43.9345923,50.2419425 43.8179675,50.3611653 C42.7283733,51.4535703 41.1602938,52.0572677 39.3971794,52.0572677 C37.891511,52.0572677 36.4534546,51.5868541 35.7331262,50.8629399 C35.6153101,50.7442996 35.5489426,50.583661 35.5484933,50.4160469 C35.5666966,45.7171377 32.1314842,36.784506 32.0976781,36.6930367 Z M34.6981417,67.7716955 L36.7941154,67.7716955 C36.6506432,67.2943713 36.2450148,66.9437943 35.7539299,66.8726829 C35.484744,66.8535537 35.2198431,66.9482938 35.0231997,67.1340238 C34.8477313,67.3046595 34.733429,67.5288882 34.6981417,67.7716955 Z M30.4723884,67.7716955 L33.5929447,67.7716955 C33.4477583,67.0352498 32.8534368,66.4726098 32.1132809,66.3709084 C32.063906,66.3683052 32.0144293,66.3683052 31.9650545,66.3709084 C31.1933096,66.4040761 30.5618791,66.9997532 30.4801898,67.7716955 L30.4723884,67.7716955 Z M20.642636,67.7716955 L22.7620138,67.7716955 C22.6314455,67.2762298 22.2247027,66.9032293 21.7218284,66.8178013 C21.4533905,66.7984439 21.189202,66.8932666 20.9936986,67.0791422 C20.7959569,67.258784 20.6709812,67.5053279 20.642636,67.7716955 Z M16.4168826,67.7716955 L19.5582427,67.7716955 C19.430636,67.0117961 18.8276221,66.4227023 18.068177,66.3160268 L17.9173501,66.3160268 C17.1215063,66.344588 16.4747745,66.9708843 16.4168826,67.7690821 L16.4168826,67.7716955 Z M14.2715002,35.9586688 C12.3653604,39.3351931 9.75709538,44.5829182 9.10957995,48.9603782 C9.73393884,49.65112 10.5486164,50.1396307 11.4499972,50.3637788 C11.3634795,49.6002612 11.3200689,48.8324313 11.319974,48.0639789 C11.3056507,43.9298388 12.5596596,39.8917412 14.9112142,36.4996445 C14.6910416,36.330644 14.4778036,36.1503188 14.2715002,35.9586688 Z M35.7097221,10.8699432 C36.214212,9.456089 36.2298148,7.99519342 35.7721332,7.07527348 C34.7319477,7.51693959 33.7047646,8.76614905 33.1716696,10.2819262 C33.0471199,10.6352248 32.9506012,10.9978796 32.8830181,11.3664909 C33.5914682,11.6632393 34.2648089,12.0384005 34.890576,12.4850299 C35.2333493,11.9881649 35.5088151,11.4476734 35.7097221,10.8777835 L35.7097221,10.8699432 Z M40.5439839,50.4918358 C40.6805392,50.5228024 40.8200698,50.5385777 40.9600581,50.5388772 C41.0392561,50.5380808 41.1183128,50.5319692 41.1967002,50.5205833 C41.5627828,50.4007191 41.9122907,50.2347546 42.2368857,50.026649 C42.104262,49.4778331 41.7453981,49.1929716 41.3527281,49.1929716 C41.2815854,49.1935223 41.2108027,49.2031826 41.1420905,49.2217191 C40.6818085,49.3419359 40.3957575,49.8254165 40.5439839,50.4918358 Z M37.5014415,50.4683151 C37.8872448,50.6007344 38.2868407,50.6884168 38.6924538,50.729656 C38.8830011,50.7155352 39.0718777,50.6840448 39.2567544,50.6355733 C39.294089,50.1462812 38.9296768,49.7192122 38.4428093,49.681679 L38.3751972,49.681679 C37.9274217,49.6828254 37.5516333,50.021145 37.5014415,50.4683151 Z" id="Shape" fill="url(#linearGradient-5)" fill-rule="nonzero"></path>
                    <circle id="Oval" fill="#FFFFFF" cx="26.5" cy="21.5" r="1"></circle>
                    <circle id="Oval" fill="#FFFFFF" cx="20.5" cy="21.5" r="1"></circle>
                    <path d="M58.5438814,52.1061651 L58.5438814,56.4779054 C58.5427126,56.5875207 58.4988465,56.6924913 58.4213716,56.7710692 C58.3071667,56.8667603 58.158743,56.9130995 58.0095301,56.8996498 C57.8582934,56.9148152 57.7078809,56.8640982 57.5976885,56.7607828 C57.5208124,56.6857712 57.4760307,56.5845238 57.4725721,56.4779054 L57.4725721,52.1061651 L56.4299353,52.1061651 C56.3250642,52.1038177 56.2240544,52.0666739 56.1432102,52.000729 C56.0399286,51.907045 55.9877185,51.7706405 56.0024542,51.6329885 C55.9890448,51.4992896 56.0379562,51.3668249 56.1353904,51.2729629 C56.2159916,51.2008843 56.3211549,51.1614035 56.4299353,51.1623835 L59.6073709,51.1623835 C59.7929356,51.1919941 59.9467855,51.320227 60.0073739,51.4957831 C60.0679622,51.6713392 60.0253956,51.8655525 59.8967026,52.000729 C59.8146567,52.0663456 59.7129512,52.1034083 59.6073709,52.1061651 L58.5438814,52.1061651 Z M64.2497112,51.5044079 C64.2522394,51.3997444 64.2908553,51.2990577 64.3591881,51.218959 C64.4710664,51.115131 64.6236611,51.0652624 64.7762428,51.0826636 C64.926265,51.0690937 65.0755418,51.1154061 65.1906909,51.2112442 C65.2717531,51.2878662 65.3178417,51.3936536 65.3184139,51.5044079 L65.3184139,56.4830487 C65.3187974,56.5909546 65.2756584,56.6945791 65.1985107,56.7710692 C65.0867243,56.8678022 64.9401408,56.9160077 64.7918824,56.904793 C64.6403133,56.9246726 64.4878067,56.8754656 64.3774342,56.7710692 C64.2994918,56.6944395 64.2538569,56.5915311 64.2497112,56.4830487 L64.2497112,54.3743269 L61.7473829,54.3743269 L61.7473829,56.4856203 C61.7463808,56.5932544 61.7034482,56.6963833 61.6274797,56.7736408 C61.5144523,56.8700138 61.3672364,56.9181188 61.2182448,56.9073646 C61.0669274,56.9246697 60.9155081,56.8758134 60.8037966,56.7736408 C60.7258542,56.6970111 60.6802194,56.5941027 60.6760736,56.4856203 L60.6760736,51.5044079 C60.6798286,51.396588 60.7255756,51.2943477 60.8037966,51.218959 C61.0491554,51.042278 61.3821209,51.042278 61.6274797,51.218959 C61.7033324,51.2983657 61.7461343,51.4030166 61.7473829,51.5121228 L61.7473829,53.4691195 L64.2497112,53.4691195 L64.2497112,51.5044079 Z M67.2942106,55.917294 L69.2908601,55.917294 C69.4461164,55.9034183 69.6019001,55.9375723 69.7365873,56.0150153 C69.8357696,56.1065551 69.8842687,56.2395734 69.8669169,56.3724694 C69.8834036,56.5052709 69.8350417,56.6379127 69.7365873,56.7299234 C69.6008941,56.8046274 69.4457181,56.837753 69.2908601,56.8250731 L66.7572527,56.8250731 C66.6213747,56.8326345 66.4862603,56.8004275 66.3688705,56.732495 C66.2649532,56.6459732 66.2128808,56.5131772 66.2307211,56.3801842 L66.2307211,51.609844 C66.2146672,51.4793747 66.2631598,51.3492449 66.3610507,51.2601048 C66.479381,51.1871551 66.6180474,51.1529537 66.7572527,51.1623835 L69.2908601,51.1623835 C69.4195389,51.1515298 69.5477206,51.1881854 69.6505698,51.265248 C69.7406689,51.3602223 69.7869028,51.4877537 69.7782928,51.6175589 C69.7969653,51.7488304 69.7503901,51.8809371 69.6531764,51.9724413 C69.5446071,52.0457033 69.4143082,52.0810094 69.2830403,52.0727342 L67.2916041,52.0727342 L67.2916041,53.445975 L69.202236,53.445975 C69.3375353,53.4334972 69.472598,53.4720938 69.5801918,53.5539827 C69.6646733,53.6525569 69.7059372,53.7802386 69.6948819,53.9088651 C69.7076673,54.0345526 69.6660097,54.1597163 69.5801918,54.2534611 C69.4703178,54.3301999 69.3363043,54.3657612 69.202236,54.353754 L67.2916041,54.353754 L67.2942106,55.917294 Z M78.6745912,56.2798913 C78.6865766,56.3572995 78.6909412,56.4356703 78.6876241,56.513908 C78.6864805,56.5838846 78.6686194,56.652608 78.6354923,56.7144937 C78.5978461,56.7745465 78.5435819,56.8227289 78.4790968,56.8533608 C78.3848883,56.8911841 78.2835779,56.9087193 78.1819453,56.904793 C78.0503837,56.9263333 77.9165687,56.8820057 77.8248422,56.7864989 C77.7461887,56.6631215 77.6988034,56.5228733 77.6866928,56.3776126 L77.2930974,53.445975 C77.2696381,53.319966 77.238359,53.2582473 77.1940469,53.2582473 C77.1497349,53.2582473 77.1080294,53.319966 77.0715371,53.445975 L76.1488036,56.5627686 C76.1269109,56.658606 76.0802111,56.747208 76.0132608,56.8199298 C75.908963,56.893351 75.7809117,56.9263074 75.6535511,56.9125079 C75.5765749,56.9135134 75.4997015,56.9066186 75.424171,56.891935 C75.3706105,56.8810628 75.3199808,56.8591548 75.2755953,56.8276447 C75.2384721,56.800113 75.2089052,56.7638713 75.1895777,56.7222086 C75.1680307,56.6728524 75.1497463,56.6221713 75.1348393,56.5704835 C74.9749683,56.0458746 74.8177039,55.5315522 74.6630461,55.0275163 C74.5083884,54.5234804 74.3528617,54.0048719 74.1964662,53.4716911 C74.1599739,53.3405389 74.1182684,53.2762486 74.0791695,53.2762486 C74.0400707,53.2762486 74.006185,53.3405389 73.9827256,53.4716911 L73.59695,56.3467532 C73.58415,56.503426 73.528275,56.6536865 73.4353413,56.7813557 C73.3195567,56.8895572 73.1610116,56.9413823 73.0026471,56.9227943 C72.8685234,56.9383275 72.7356924,56.8849374 72.6507571,56.7813557 C72.5764796,56.6309036 72.5616129,56.4585644 72.6090517,56.2978926 L73.3154381,51.6921356 C73.3331334,51.5252818 73.4108066,51.3701955 73.5343918,51.2549616 C73.6563198,51.150676 73.8136197,51.0955793 73.9749059,51.1006649 C74.1334762,51.096322 74.289413,51.1413057 74.4206331,51.2292455 C74.5709321,51.3660664 74.6739486,51.5459496 74.715178,51.7435678 L75.6535511,55.1380956 L76.5684649,51.7281382 C76.6025,51.5285267 76.7056802,51.346749 76.8604032,51.2138158 C76.9877567,51.1282621 77.1390668,51.0841977 77.2930974,51.0878068 C77.4517191,51.0872701 77.6052644,51.1429362 77.7257917,51.2446751 C77.8607739,51.3638283 77.9469822,51.5275294 77.9682048,51.7049937 L78.6745912,56.2798913 Z M80.4210078,55.9147224 L82.4124441,55.9147224 C82.5677003,55.9008467 82.7234841,55.9350007 82.8581713,56.0124437 C82.9562692,56.1046838 83.0045646,56.2371433 82.9885009,56.3698977 C83.0037374,56.5025581 82.9555708,56.6346643 82.8581713,56.7273518 C82.7224781,56.8020558 82.5673021,56.8351813 82.4124441,56.8225014 L79.8762301,56.8225014 C79.7411973,56.8298589 79.6069755,56.7976485 79.4904545,56.7299234 C79.3859767,56.6436608 79.332978,56.5110057 79.3496985,56.3776126 L79.3496985,51.609844 C79.3347323,51.4789941 79.3841501,51.3489816 79.4826347,51.2601048 C79.6001582,51.1875195 79.7378812,51.1533259 79.8762301,51.1623835 L82.4202638,51.1623835 C82.5489426,51.1515298 82.6771244,51.1881854 82.7799735,51.265248 C82.8700726,51.3602223 82.9163065,51.4877537 82.9076965,51.6175589 C82.9263691,51.7488304 82.8797939,51.8809371 82.7825801,51.9724413 C82.6740108,52.0457033 82.543712,52.0810094 82.4124441,52.0727342 L80.4210078,52.0727342 L80.4210078,53.445975 L82.3238199,53.445975 C82.4590695,53.4340109 82.5939458,53.4725542 82.7017758,53.5539827 C82.7862573,53.6525569 82.8275212,53.7802386 82.8164658,53.9088651 C82.8292512,54.0345526 82.7875937,54.1597163 82.7017758,54.2534611 C82.5917065,54.329789 82.4578483,54.3653091 82.3238199,54.353754 L80.413188,54.353754 L80.4210078,55.9147224 Z M85.7801609,51.1623835 C86.161057,51.1529024 86.5393625,51.22667 86.8879625,51.3783989 C87.1861301,51.5147545 87.4477154,51.7182197 87.6516939,51.9724413 C87.8598589,52.2371223 88.0114871,52.5406832 88.0974211,52.8647907 C88.196075,53.2287231 88.244301,53.6041636 88.2407837,53.9808702 C88.2453525,54.3740521 88.1953635,54.7660014 88.092208,55.1458105 C88.004547,55.471829 87.8511796,55.7770713 87.6412676,56.043303 C87.4382361,56.2925094 87.1783157,56.4907818 86.8827493,56.6219157 C86.5474708,56.7620161 86.1858905,56.8303816 85.8218664,56.8225014 L84.2579112,56.8225014 C84.0650234,56.8225014 83.9425135,56.7916421 83.8903817,56.7299234 C83.8326371,56.6509584 83.8049493,56.5544411 83.812184,56.4573325 L83.812184,51.5275524 C83.805116,51.4320166 83.8308223,51.3369117 83.8851685,51.2575332 C83.9346938,51.1932429 84.0598102,51.1623835 84.2579112,51.1623835 L85.7801609,51.1623835 Z M84.8834933,55.9790127 L85.8218664,55.9790127 C86.7202717,55.9790127 87.1703433,55.3052504 87.172081,53.9577257 C87.1746236,53.6799221 87.1493033,53.4025517 87.0964898,53.1296667 C87.0551344,52.9087678 86.9662501,52.6991852 86.8358306,52.5150514 C86.7141745,52.3490193 86.5493874,52.2184257 86.3588243,52.1370245 C86.1208667,52.0445995 85.8663512,52.0008539 85.6107324,52.0084439 L84.8782801,52.0084439 L84.8834933,55.9790127 Z M90.0262992,56.3853274 C90.0372796,56.5270996 89.9914165,56.6674596 89.8985762,56.7762124 C89.7835713,56.872309 89.6341819,56.9186563 89.4841281,56.904793 C89.3361942,56.9211761 89.1882178,56.8743843 89.0774997,56.7762124 C88.9901075,56.6679127 88.9472948,56.5310977 88.9575965,56.3930422 L88.9575965,51.6021292 C88.9384579,51.4607719 88.9871924,51.3186905 89.0894066,51.217848 C89.1916207,51.1170055 89.3356348,51.068925 89.4789149,51.0878068 C89.6228501,51.0778158 89.7657896,51.1178476 89.8829366,51.2009577 C89.9866902,51.3069972 90.0373083,51.4530447 90.021086,51.5995576 L90.0262992,56.3853274 Z M92.2419024,55.5392671 L91.8795861,56.4753338 C91.8376699,56.5940595 91.766979,56.7008799 91.6736653,56.7864989 C91.5648151,56.8725522 91.4270058,56.91481 91.2878897,56.904793 C91.1384074,56.9124649 90.9917273,56.8626914 90.8786548,56.765926 C90.7769977,56.6759196 90.7665713,56.5087648 90.8421625,56.295321 L92.5390539,51.4092583 C92.5721189,51.3157047 92.6341159,51.2347511 92.7163021,51.1778132 C92.8234331,51.1056555 92.9517093,51.070401 93.081225,51.0775203 C93.2115129,51.070785 93.3404934,51.1059817 93.4487545,51.1778132 C93.5296085,51.2355068 93.590567,51.3162925 93.6233961,51.4092583 L95.335927,56.295321 C95.4120518,56.4419911 95.3914996,56.6194101 95.2837952,56.7453531 C95.1724961,56.8436157 95.0263214,56.89446 94.8771669,56.8867917 C94.7403149,56.9029192 94.6027493,56.862947 94.4966044,56.7762124 C94.4134621,56.6979016 94.3493096,56.6020852 94.3089298,56.4959067 L93.9127278,55.5212658 L92.2419024,55.5392671 Z M93.7146268,54.6237732 L93.081225,52.6076295 L92.4347902,54.6314881 L93.7146268,54.6237732 Z M99.0320745,52.6076295 C99.0299006,52.7268992 99.0715669,52.8429128 99.1493711,52.9342242 C99.228856,53.0297564 99.3240121,53.111466 99.430883,53.1759557 C99.54321,53.2465464 99.6618744,53.306804 99.7853795,53.3559685 C99.9104959,53.4048292 100.019973,53.4511182 100.119023,53.4948356 C100.340181,53.5896818 100.555198,53.6978949 100.762852,53.8188587 C100.927619,53.9149297 101.078435,54.0325792 101.211185,54.1685979 C101.328631,54.2884199 101.417658,54.4324648 101.471845,54.5903423 C101.525144,54.7635325 101.548064,54.9444326 101.539616,55.1252376 C101.550066,55.6034404 101.36718,56.0660853 101.03133,56.4110435 C100.700293,56.7376382 100.199828,56.9125079 99.5247203,56.9253659 C99.2894988,56.9371652 99.0539917,56.9084482 98.8287603,56.8405027 C98.6348656,56.7798359 98.4458027,56.7050538 98.2631298,56.6167725 C98.1371254,56.5555016 98.0218516,56.4747642 97.9216663,56.3776126 C97.8444851,56.2979738 97.7818701,56.2057468 97.7365982,56.1050217 C97.7025723,56.0234207 97.6848697,55.9360958 97.6844664,55.8478605 C97.6847206,55.7688163 97.7092592,55.6917053 97.7548444,55.6267019 C97.8098546,55.5222604 97.9110349,55.4490573 98.0285365,55.4286878 C98.1345019,55.4153374 98.2418031,55.4399775 98.3309012,55.4981213 L98.5915604,55.6729909 C98.6842548,55.7355681 98.7808943,55.7922583 98.8808921,55.8427173 C98.9836906,55.8941762 99.0909985,55.9363512 99.2015029,55.9687263 C99.3200666,56.0025355 99.4430172,56.0189977 99.5664258,56.0175869 C99.6775824,56.0180245 99.7879241,55.998865 99.8922498,55.9610114 C99.9962015,55.9246039 100.092502,55.8696912 100.176368,55.7989999 C100.260055,55.7280304 100.327568,55.6403894 100.374469,55.5418387 C100.425135,55.4285222 100.450046,55.3056381 100.447454,55.181813 C100.450701,55.0618951 100.420012,54.9434569 100.35883,54.8397886 C100.298878,54.7440416 100.225121,54.6574131 100.139876,54.5826274 C100.054645,54.5109789 99.961007,54.4496793 99.8609707,54.400043 C99.7711148,54.3571999 99.6788669,54.3194222 99.584672,54.2868921 C99.3644599,54.2132424 99.1486382,54.1273854 98.9382371,54.0297309 C98.7487335,53.9431351 98.5730989,53.8296382 98.4169188,53.6928497 C97.9223915,53.2342503 97.791046,52.5100494 98.0937013,51.9107226 C98.1963089,51.7184699 98.3404602,51.5507946 98.5159692,51.4195447 C98.6966151,51.289081 98.898474,51.1899408 99.1128788,51.126381 C99.333684,51.0626043 99.563202,51.0331067 99.7931993,51.0389462 C100.03622,51.0420342 100.277234,51.0828213 100.507406,51.1598119 C100.705734,51.2236965 100.891685,51.3202065 101.057396,51.4452609 C101.186514,51.5402905 101.288081,51.6670974 101.351941,51.8130014 C101.404413,51.9362507 101.393749,52.076856 101.323269,52.1910283 C101.287203,52.2484716 101.238131,52.2968849 101.179906,52.332467 C101.124458,52.3685689 101.062526,52.3938819 100.997445,52.4070437 C100.936443,52.4198947 100.873379,52.4198947 100.812377,52.4070437 C100.757803,52.3994948 100.706395,52.3772499 100.663801,52.3427534 L100.476126,52.2167444 C100.40289,52.170744 100.327188,52.1286798 100.249353,52.0907355 C100.164586,52.0529054 100.077534,52.0202696 99.9886937,51.9930142 C99.898886,51.9674244 99.8058733,51.9544389 99.712395,51.95444 C99.6161131,51.9533316 99.5208053,51.9735434 99.4334896,52.0135871 C99.3541077,52.0517964 99.2825363,52.1041008 99.2223557,52.1678838 C99.1661579,52.2306621 99.1204086,52.3018371 99.0868129,52.378756 C99.0500118,52.4502329 99.0270293,52.5278481 99.0190415,52.6076295 L99.0320745,52.6076295 Z M103.176556,55.917294 L105.167992,55.917294 C105.323248,55.9034183 105.479032,55.9375723 105.613719,56.0150153 C105.711817,56.1072555 105.760113,56.2397149 105.744049,56.3724694 C105.759285,56.5051297 105.711119,56.6372359 105.613719,56.7299234 C105.478026,56.8046274 105.32285,56.837753 105.167992,56.8250731 L102.634385,56.8250731 C102.498507,56.8326345 102.363392,56.8004275 102.246002,56.732495 C102.141525,56.6462324 102.088526,56.5135773 102.105246,56.3801842 L102.105246,51.609844 C102.09028,51.4789941 102.139698,51.3489816 102.238183,51.2601048 C102.356513,51.1871551 102.495179,51.1529537 102.634385,51.1623835 L105.175812,51.1623835 C105.304491,51.1515298 105.432672,51.1881854 105.535521,51.265248 C105.625621,51.3602223 105.671854,51.4877537 105.663244,51.6175589 C105.681917,51.7488304 105.635342,51.8809371 105.538128,51.9724413 C105.429559,52.0457033 105.29926,52.0810094 105.167992,52.0727342 L103.176556,52.0727342 L103.176556,53.445975 L105.087188,53.445975 C105.222437,53.4340109 105.357313,53.4725542 105.465143,53.5539827 C105.549625,53.6525569 105.590889,53.7802386 105.579833,53.9088651 C105.592619,54.0345526 105.550961,54.1597163 105.465143,54.2534611 C105.355074,54.329789 105.221216,54.3653091 105.087188,54.353754 L103.176556,54.353754 L103.176556,55.917294 Z M107.868421,55.5418387 L107.506105,56.4779054 C107.464189,56.5966311 107.393498,56.7034515 107.300184,56.7890705 C107.191334,56.8751238 107.053525,56.9173816 106.914409,56.9073646 C106.764926,56.9150365 106.618246,56.865263 106.505174,56.7684976 C106.403517,56.6784912 106.39309,56.5113364 106.468681,56.2978926 L108.165573,51.4118299 C108.198638,51.3182763 108.260635,51.2373227 108.342821,51.1803848 C108.449952,51.1082272 108.578228,51.0729726 108.707744,51.080092 C108.838032,51.0733567 108.967012,51.1085534 109.075273,51.1803848 C109.156742,51.2380525 109.218549,51.3187584 109.252522,51.4118299 L110.965052,56.2978926 C111.039047,56.4453109 111.01756,56.6219633 110.910314,56.7479247 C110.799015,56.8461873 110.65284,56.8970316 110.503686,56.8893634 C110.366834,56.9054908 110.229268,56.8655186 110.123123,56.778784 C110.04078,56.6998177 109.976753,56.6041893 109.935449,56.4984783 L109.539247,55.5238374 L107.868421,55.5418387 Z M109.341146,54.6263448 L108.707744,52.6102011 L108.066522,54.6314881 L109.341146,54.6263448 Z M111.614094,51.7024221 C111.612205,51.6090396 111.621833,51.5157771 111.642766,51.424688 C111.658301,51.3607511 111.694988,51.3037444 111.74703,51.2626764 C111.808166,51.2187873 111.880245,51.1921204 111.955557,51.185528 C112.071357,51.1706464 112.188069,51.163772 112.304841,51.1649552 L113.548185,51.1649552 C113.836823,51.1617591 114.125039,51.1876089 114.40836,51.2421035 C114.633433,51.2816832 114.846973,51.3694643 115.033943,51.4992647 C115.204853,51.6273067 115.335823,51.8001843 115.411898,51.9981574 C115.503685,52.2449988 115.54703,52.5068153 115.539621,52.769641 C115.566495,53.1562403 115.451799,53.5395112 115.216404,53.849718 C114.987078,54.1057067 114.678121,54.2793673 114.337982,54.3434675 L114.173767,54.3768985 C114.116856,54.3874782 114.059437,54.3952029 114.001732,54.400043 L115.615213,55.9687263 C115.719515,56.0662276 115.781222,56.1999763 115.787248,56.34161 C115.792083,56.4830942 115.73513,56.6198201 115.630852,56.7170654 C115.526475,56.8222889 115.38621,56.8855233 115.237257,56.8945066 C115.101043,56.9102211 114.964719,56.8660166 114.864514,56.7736408 L112.685403,54.5080507 L112.685403,56.4727622 C112.683779,56.5843478 112.635706,56.6903622 112.552467,56.765926 C112.435023,56.8613116 112.284358,56.9074742 112.132806,56.8945066 C111.98381,56.9105779 111.835404,56.8595691 111.728784,56.7556395 C111.657806,56.677722 111.617163,56.577479 111.614094,56.4727622 L111.614094,51.7024221 Z M112.685403,53.5282665 L113.548185,53.5282665 C113.786283,53.5430154 114.024006,53.4941543 114.236325,53.3868279 C114.415103,53.2422634 114.504109,53.015904 114.470919,52.7902139 C114.475056,52.6692927 114.449102,52.5492129 114.395328,52.4404747 C114.349997,52.3515185 114.280512,52.2767335 114.19462,52.2244593 C114.102863,52.1718414 114.002176,52.1361155 113.897468,52.1190232 C113.781999,52.1003576 113.665194,52.0908977 113.548185,52.0907355 L112.685403,52.0907355 L112.685403,53.5282665 Z M119.055914,56.9896562 C118.663344,56.9922287 118.273659,56.923358 117.906407,56.7864989 C117.561302,56.654968 117.24853,56.4524663 116.988887,56.1924565 C116.723881,55.922059 116.519604,55.5996025 116.38937,55.2461033 C116.240811,54.8417488 116.170948,54.4133628 116.18345,53.9834419 C116.181667,53.5551086 116.254858,53.1296874 116.399797,52.7259236 C116.525842,52.380477 116.718844,52.0625415 116.968034,51.7898569 C117.206109,51.5380109 117.495771,51.3390204 117.817783,51.2061009 C118.152096,51.0685489 118.511249,50.9994322 118.873453,51.0029436 C119.124929,50.9999332 119.375411,51.0346168 119.616331,51.1058081 C119.821039,51.1672407 120.017179,51.2536281 120.200208,51.3629693 C120.345143,51.448383 120.475366,51.5560244 120.585983,51.6818492 C120.664154,51.7617078 120.718299,51.8614225 120.742379,51.9698697 C120.75858,52.027937 120.75858,52.0892436 120.742379,52.1473109 C120.721526,52.1961715 120.705887,52.2321741 120.69546,52.252747 C120.634302,52.338817 120.547881,52.4043333 120.447834,52.4404747 C120.357994,52.4866703 120.250949,52.4866703 120.161109,52.4404747 C120.067272,52.3916141 119.963008,52.3298954 119.848318,52.2578902 C119.719169,52.1762013 119.583123,52.1056493 119.44169,52.0470181 C119.257354,51.9730113 119.059335,51.9379688 118.86042,51.9441536 C118.619267,51.9402736 118.381524,52.0006886 118.172279,52.1190232 C117.973592,52.2337375 117.80277,52.3899779 117.671814,52.5767701 C117.532033,52.7760601 117.428809,52.9980174 117.366842,53.2325312 C117.295993,53.4836778 117.260902,53.7433277 117.262579,54.0040147 C117.263174,54.2652669 117.301799,54.5250805 117.377269,54.7754983 C117.450445,55.0169026 117.566986,55.243373 117.721339,55.4441174 C117.871018,55.6398518 118.063453,55.7998199 118.284363,55.9121508 C118.526473,56.0322893 118.79554,56.0898049 119.06634,56.0793056 C119.20265,56.0764267 119.33819,56.0583097 119.470362,56.0253017 C119.575805,55.9995324 119.678071,55.9624517 119.775333,55.9147224 C119.858637,55.8748666 119.938039,55.8275201 120.012533,55.7732838 L120.226274,55.6164154 C120.338184,55.5216248 120.495308,55.4986226 120.630296,55.5572684 C120.739618,55.5909291 120.83246,55.6632897 120.890955,55.7604257 C120.934135,55.8436301 120.951368,55.9375882 120.94048,56.030445 C120.911468,56.1262167 120.860648,56.2141778 120.791904,56.2876062 C120.686286,56.414605 120.561439,56.5247659 120.421768,56.6142009 C120.019101,56.8691657 119.550007,57.0031811 119.071554,56.9999427 L119.055914,56.9896562 Z M125.163159,51.5069795 C125.165563,51.4018317 125.20522,51.3008356 125.275242,51.2215306 C125.386504,51.1184277 125.537978,51.0686139 125.689691,51.0852352 C125.840492,51.0718312 125.990513,51.1180837 126.106745,51.2138158 C126.186594,51.2912623 126.232455,51.3965265 126.234468,51.5069795 L126.234468,56.4830487 C126.233466,56.5906828 126.190533,56.6938117 126.114565,56.7710692 C126.002337,56.8670411 125.856085,56.9151376 125.707937,56.904793 C125.555752,56.9228771 125.403213,56.8739671 125.290882,56.7710692 C125.212939,56.6944395 125.167305,56.5915311 125.163159,56.4830487 L125.163159,54.3743269 L122.660831,54.3743269 L122.660831,56.4856203 C122.661214,56.5935262 122.618075,56.6971508 122.540927,56.7736408 C122.429141,56.8703738 122.282558,56.9185793 122.134299,56.9073646 C121.982114,56.9254487 121.829575,56.8765387 121.717244,56.7736408 C121.641106,56.6960484 121.59657,56.5935273 121.592128,56.4856203 L121.592128,51.5044079 C121.596222,51.3971786 121.640857,51.2953461 121.717244,51.218959 C121.831035,51.1183416 121.982126,51.0689645 122.134299,51.0826636 C122.282233,51.0662805 122.430209,51.1130723 122.540927,51.2112442 C122.617679,51.2900802 122.66063,51.3950975 122.660831,51.5044079 L122.660831,53.4614046 L125.163159,53.4614046 L125.163159,51.5069795 Z M130.259046,55.917294 L132.250483,55.917294 C132.405739,55.9034183 132.561523,55.9375723 132.69621,56.0150153 C132.795392,56.1065551 132.843891,56.2395734 132.826539,56.3724694 C132.843026,56.5052709 132.794664,56.6379127 132.69621,56.7299234 C132.560517,56.8046274 132.405341,56.837753 132.250483,56.8250731 L129.716875,56.8250731 C129.581025,56.8323288 129.445999,56.8001428 129.328493,56.732495 C129.224576,56.6459732 129.172503,56.5131772 129.190344,56.3801842 L129.190344,51.609844 C129.17429,51.4793747 129.222782,51.3492449 129.320673,51.2601048 C129.439003,51.1871551 129.57767,51.1529537 129.716875,51.1623835 L132.260909,51.1623835 C132.388715,51.1521775 132.515851,51.1887993 132.618012,51.265248 C132.708111,51.3602223 132.754345,51.4877537 132.745735,51.6175589 C132.764204,51.7483221 132.718753,51.8799821 132.623225,51.9724413 C132.513436,52.045184 132.382503,52.0804137 132.250483,52.0727342 L130.259046,52.0727342 L130.259046,53.445975 L132.169678,53.445975 C132.304978,53.4334972 132.44004,53.4720938 132.547634,53.5539827 C132.633165,53.6519812 132.674573,53.7801088 132.662324,53.9088651 C132.676472,54.0346957 132.634636,54.1603982 132.547634,54.2534611 C132.43776,54.3301999 132.303746,54.3657612 132.169678,54.353754 L130.259046,54.353754 L130.259046,55.917294 Z M134.716319,56.4830487 C134.715557,56.5932499 134.670569,56.6986641 134.591202,56.7762124 C134.478241,56.8722848 134.330437,56.9187245 134.181967,56.904793 C134.030731,56.9199584 133.880318,56.8692415 133.770126,56.765926 C133.69325,56.6909144 133.648468,56.589667 133.645009,56.4830487 L133.645009,51.4632621 C133.646133,51.3712431 133.675186,51.2816685 133.72842,51.2061009 C133.783159,51.1289526 133.908275,51.0903784 134.106376,51.0903784 C134.2029,51.087907 134.296533,51.1230101 134.367035,51.1880997 C134.431043,51.2478109 134.490301,51.3122914 134.544283,51.3809706 L137.150875,54.8346454 L137.150875,51.5044079 C137.153761,51.3974203 137.197521,51.2954606 137.273385,51.218959 C137.384028,51.1165757 137.534385,51.0668163 137.685227,51.0826636 C137.834504,51.068619 137.983157,51.1150298 138.097068,51.2112442 C138.174543,51.289822 138.218409,51.3947927 138.219578,51.5044079 L138.219578,56.5396241 C138.221654,56.6317258 138.193291,56.7219919 138.138774,56.7967853 C138.084035,56.8713621 137.958919,56.9099362 137.768638,56.9099362 C137.667295,56.9131998 137.568498,56.8782572 137.492339,56.812215 C137.423233,56.7543099 137.361132,56.6887284 137.307271,56.6167725 L134.700679,53.273677 L134.716319,56.4830487 Z M143.104331,54.6134868 L142.223303,54.6134868 C142.073598,54.6261059 141.923744,54.590948 141.795822,54.5131939 C141.696266,54.4196222 141.647039,54.28535 141.662886,54.1505966 C141.64973,54.0116312 141.701556,53.8743368 141.803642,53.7777129 C141.929026,53.6933029 142.079751,53.6534073 142.231123,53.664562 L143.607404,53.664562 C143.777151,53.642151 143.946861,53.7060268 144.058344,53.8342884 C144.150999,54.0182021 144.190672,54.2236906 144.173034,54.4283307 C144.174508,54.757199 144.132447,55.0848493 144.047918,55.4029716 C143.967511,55.7012345 143.823553,55.9791495 143.62565,56.2181726 C143.422652,56.4608096 143.164583,56.6528653 142.872345,56.778784 C142.516535,56.9272623 142.132459,56.9983101 141.746297,56.9870846 C141.345996,56.9924783 140.948466,56.9208524 140.575937,56.7762124 C140.241476,56.6408945 139.940199,56.4366012 139.692303,56.1770268 C139.447335,55.9082575 139.261802,55.5920915 139.147525,55.2486749 C139.014451,54.8558941 138.949247,54.4438384 138.954637,54.0297309 C138.951549,53.6248046 139.014025,53.2219899 139.139705,52.8365029 C139.25287,52.4844436 139.43633,52.158298 139.67927,51.8772917 C139.918,51.6041559 140.214207,51.3856402 140.547265,51.2369603 C140.916054,51.0745479 141.316423,50.9937932 141.720231,51.000372 C141.957994,50.9991237 142.195356,51.0197863 142.429224,51.0620907 C142.675935,51.1136342 142.912091,51.2057855 143.127791,51.3346815 C143.27222,51.4231861 143.409871,51.5220301 143.539632,51.6304169 C143.653299,51.7239119 143.755635,51.8300519 143.844604,51.9467252 C143.914599,52.0363479 143.958731,52.1429748 143.972327,52.2553186 C143.978474,52.3590986 143.926428,52.4578432 143.836784,52.5124798 C143.782381,52.5568936 143.722893,52.5948692 143.659536,52.6256307 C143.519188,52.6905937 143.359333,52.7015968 143.211202,52.6564901 C143.129622,52.6331681 143.055834,52.5887792 142.997461,52.5279095 C142.823937,52.3300318 142.612146,52.1682931 142.374486,52.0521613 C142.156473,51.9634378 141.922109,51.9205221 141.686345,51.9261523 C141.461452,51.9251225 141.239347,51.9752833 141.037304,52.0727342 C140.835286,52.1720163 140.657442,52.3132595 140.515986,52.4867637 C140.359663,52.6811903 140.239629,52.9014921 140.161489,53.1373815 C140.069614,53.4118741 140.024688,53.6995391 140.028553,53.9885851 C140.025086,54.2805787 140.068187,54.5712936 140.156276,54.8500751 C140.233022,55.0875965 140.35512,55.3084388 140.515986,55.5006929 C140.661859,55.6756593 140.844074,55.8177216 141.050337,55.917294 C141.272933,56.0167985 141.514969,56.0668388 141.75933,56.0638759 C141.939078,56.0638459 142.116771,56.0261547 142.280648,55.9532966 C142.441526,55.8812261 142.586703,55.7790452 142.708129,55.652418 C142.834047,55.5205046 142.93315,55.3659881 143.000068,55.1972427 C143.074137,55.0113759 143.111304,54.8131953 143.109545,54.6134868 L143.104331,54.6134868 Z M145.971583,56.3853274 C145.981457,56.5269683 145.935724,56.6669287 145.84386,56.7762124 C145.727627,56.8719445 145.577606,56.918197 145.426805,56.904793 C145.27904,56.9195469 145.131717,56.8729618 145.020177,56.7762124 C144.932784,56.6679127 144.889972,56.5310977 144.900273,56.3930422 L144.900273,51.6021292 C144.882225,51.4610108 144.931316,51.3195868 145.033261,51.2190098 C145.135206,51.1184329 145.278554,51.0700008 145.421592,51.0878068 C145.565573,51.0773731 145.708663,51.117447 145.825613,51.2009577 C145.931284,51.3059459 145.983042,51.4525187 145.966369,51.5995576 L145.971583,56.3853274 Z M147.955199,56.4830487 C147.954438,56.5932499 147.909449,56.6986641 147.830083,56.7762124 C147.717122,56.8722848 147.569318,56.9187245 147.420848,56.904793 C147.269611,56.9199584 147.119199,56.8692415 147.009006,56.765926 C146.93213,56.6909144 146.887348,56.589667 146.88389,56.4830487 L146.88389,51.4632621 C146.885013,51.3712431 146.914067,51.2816685 146.967301,51.2061009 C147.022039,51.1289526 147.147156,51.0903784 147.345257,51.0903784 C147.441781,51.087907 147.535414,51.1230101 147.605916,51.1880997 C147.669924,51.2478109 147.729181,51.3122914 147.783164,51.3809706 L150.389756,54.8346454 L150.389756,51.5044079 C150.392642,51.3974203 150.436401,51.2954606 150.512266,51.218959 C150.622909,51.1165757 150.773266,51.0668163 150.924107,51.0826636 C151.073385,51.068619 151.222038,51.1150298 151.335949,51.2112442 C151.413424,51.289822 151.45729,51.3947927 151.458459,51.5044079 L151.458459,56.5396241 C151.460534,56.6317258 151.432171,56.7219919 151.377654,56.7967853 C151.322916,56.8713621 151.1978,56.9099362 151.007518,56.9099362 C150.906176,56.9131998 150.807379,56.8782572 150.73122,56.812215 C150.662113,56.7543099 150.600013,56.6887284 150.546152,56.6167725 L147.93956,53.273677 L147.955199,56.4830487 Z M153.429042,55.9147224 L155.420479,55.9147224 C155.575735,55.9008467 155.731519,55.9350007 155.866206,56.0124437 C155.965388,56.1039835 156.013887,56.2370018 155.996535,56.3698977 C156.013022,56.5026993 155.96466,56.6353411 155.866206,56.7273518 C155.730513,56.8020558 155.575337,56.8351813 155.420479,56.8225014 L152.886871,56.8225014 C152.751021,56.8297571 152.615995,56.7975711 152.498489,56.7299234 C152.394572,56.6434016 152.342499,56.5106056 152.36034,56.3776126 L152.36034,51.609844 C152.344286,51.4793747 152.392778,51.3492449 152.490669,51.2601048 C152.608999,51.1871551 152.747666,51.1529537 152.886871,51.1623835 L155.430905,51.1623835 C155.558711,51.1521775 155.685847,51.1887993 155.788008,51.265248 C155.878107,51.3602223 155.924341,51.4877537 155.915731,51.6175589 C155.9342,51.7483221 155.888749,51.8799821 155.793221,51.9724413 C155.683432,52.045184 155.552499,52.0804137 155.420479,52.0727342 L153.431649,52.0727342 L153.431649,53.445975 L155.342281,53.445975 C155.47758,53.4334972 155.612643,53.4720938 155.720237,53.5539827 C155.805767,53.6519812 155.847175,53.7801088 155.834927,53.9088651 C155.849075,54.0346957 155.807238,54.1603982 155.720237,54.2534611 C155.610363,54.3301999 155.476349,54.3657612 155.342281,54.353754 L153.431649,54.353754 L153.429042,55.9147224 Z" id="Shape" fill="url(#linearGradient-6)" fill-rule="nonzero"></path>
                    <path d="M142.985135,13 C135.269588,13 129.012388,19.5048677 129.012388,27.4999984 C129.012388,35.4951292 135.269588,41.9999968 142.985135,41.9999968 C150.700681,41.9999968 157,35.4951292 157,27.4999984 C157,19.5048677 150.700681,13 142.985135,13 Z M149.910963,28.6869799 L141.847941,35.4088508 C140.816042,36.2716347 139.047073,35.6703005 139.047073,34.441487 L139.047073,20.9846728 C139.047073,19.7663173 140.816042,19.1545251 141.847941,20.017309 L149.910963,26.7417944 C150.214124,26.9723353 150.391915,27.3299348 150.391915,27.7091582 C150.391915,28.0883815 150.214124,28.4459811 149.910963,28.6765219 L149.910963,28.6869799 Z M123.676525,27.3797316 C124.399409,25.9061359 124.79785,24.2964689 124.845308,22.6579506 C124.845308,18.7649651 123.052648,15.7818244 119.799009,14.1660655 C118.313858,13.4521348 116.694056,13.0566185 115.044906,13.005229 L108.411273,13.005229 C107.084001,13.0109326 106.008644,14.0766462 106,15.3948789 L106,39.5894309 C106.001451,40.9158206 107.083701,41.9907124 108.41917,41.9921534 C109.762801,41.9937543 110.858881,40.9237554 110.880458,39.5894309 L110.880458,32.3472752 L114.950139,32.3472752 L120.330753,40.8809923 C120.790345,41.5802866 121.574803,42.0013288 122.415609,41.9999968 C122.860035,41.9980799 123.294368,41.8682119 123.665996,41.6261238 C124.384752,41.1981532 124.827518,40.4295703 124.834779,39.5972744 C124.832761,39.1419888 124.702355,38.696371 124.458346,38.3109421 L119.983277,31.1864387 C121.580109,30.3237056 122.869901,28.9924645 123.676525,27.3745026 L123.676525,27.3797316 Z M119.256736,25.3038212 C118.467018,26.7966988 117.129762,27.4999984 115.044906,27.4999984 L110.872561,27.4999984 L110.872561,17.8472768 L115.044906,17.8472768 C115.940655,17.8747303 116.820906,18.0866196 117.629916,18.469527 C119.209353,19.253876 119.96485,20.5820403 119.96485,22.6527216 C119.921451,23.5764008 119.680034,24.4802387 119.256736,25.3038212 Z" id="Shape" fill="url(#linearGradient-7)" fill-rule="nonzero"></path>
                    <path d="M156.0875,16.110003 L156.14,16.110003 L156.19,16.110003 C156.294995,16.0905103 156.390222,16.035843 156.46,15.9550032 C156.533141,15.8583438 156.568678,15.7384058 156.56,15.6175037 C156.562888,15.5325788 156.550178,15.4478441 156.5225,15.3675041 C156.497965,15.3062225 156.457377,15.2526805 156.405,15.2125044 C156.347059,15.1722945 156.281577,15.1442309 156.2125,15.1300045 C156.125174,15.1131826 156.036431,15.1048107 155.9475,15.1050045 L155.565,15.1050045 C155.529235,15.1018668 155.493265,15.1018668 155.4575,15.1050045 C155.434099,15.1078337 155.411766,15.1164235 155.3925,15.1300045 C155.376444,15.1426263 155.365016,15.1602069 155.36,15.1800044 C155.356943,15.2082552 155.356943,15.2367535 155.36,15.2650043 L155.36,16.7650019 C155.360064,16.7975681 155.372587,16.8288754 155.395,16.8525018 C155.42739,16.8861418 155.4736,16.9027773 155.52,16.8975017 C155.566463,16.9008698 155.612351,16.8855738 155.6475,16.8550018 C155.673097,16.8321076 155.687659,16.7993435 155.6875,16.7650019 L155.6875,16.1425029 L156.36,16.8500018 C156.390421,16.8798651 156.432613,16.8945408 156.475,16.8900017 C156.521388,16.8860723 156.56484,16.8656767 156.5975,16.8325018 C156.628446,16.8023123 156.645621,16.7607298 156.645,16.717502 C156.64306,16.6730888 156.624289,16.6310787 156.5925,16.6000022 L156.0875,16.110003 Z M155.685,15.8350034 L155.685,15.3850041 L155.9525,15.3850041 C155.988229,15.3811408 156.024271,15.3811408 156.06,15.3850041 C156.092829,15.3889857 156.124395,15.4000766 156.1525,15.417504 C156.178567,15.4337756 156.199397,15.4572092 156.2125,15.4850039 C156.230626,15.5178313 156.239281,15.5550469 156.2375,15.5925038 C156.247243,15.6633194 156.21985,15.7341638 156.165,15.7800035 C156.099459,15.8137185 156.026082,15.8292572 155.9525,15.8250034 L155.685,15.8350034 Z M156,14.0000063 C154.895431,14.0000063 154,14.8954354 154,16.0000031 C154,17.1045709 154.895431,18 156,18 C157.104569,18 158,17.1045709 158,16.0000031 C158.000002,15.4687035 157.788602,14.9592373 157.412447,14.5840211 C157.036292,14.2088048 156.526299,13.998678 155.995,14.0000063 L156,14.0000063 Z M156,17.5000008 C155.38724,17.5000008 154.834816,17.1308835 154.600323,16.5647676 C154.365829,15.9986518 154.495446,15.3470243 154.928733,14.9137381 C155.36202,14.4804518 156.013649,14.350835 156.579765,14.5853279 C157.145882,14.8198207 157.515,15.3722438 157.515,15.9850032 C157.516331,16.3887678 157.356696,16.7764153 157.071424,17.062156 C156.786152,17.3478968 156.398767,17.5081681 155.995,17.5075008 L156,17.5000008 Z" id="Shape" fill="url(#linearGradient-8)" fill-rule="nonzero"></path>
                    <path d="M74.3878372,37.9376607 C74.7839962,38.3962293 75.0016829,38.9860008 74.9999902,39.5961473 C74.999991,40.9226808 73.9422886,41.9984549 72.6366146,41.9999031 C71.9677576,42.0060544 71.3287046,41.7191934 70.8828091,41.2126468 L60.7706609,29.9443855 L60.7706609,39.5882747 C60.7494895,40.923197 59.6774768,41.9936378 58.3633756,41.9920305 C57.0577016,41.9905823 55.9999992,40.9148082 56,39.5882747 L56,15.4011381 C56,14.0750297 57.0581193,13.0000065 58.3633756,13.0000065 C59.6770554,12.9969627 60.7494759,14.0666417 60.7706609,15.4011381 L60.7706609,25.0555241 L70.8828091,13.7872627 C71.3345182,13.2889036 71.9698011,13.0037349 72.6366146,13.0000065 C73.5758023,13.0136901 74.4205749,13.5834398 74.7976119,14.4574728 C75.1746489,15.3315059 75.0144607,16.3487336 74.3878372,17.0596246 L64.9808273,27.4986427 L74.3878372,37.9376607 Z" id="Path" fill="#1C73C1"></path>
                    <path d="M101,15.4065564 C100.995061,15.9125275 100.833976,16.4048926 100.53837,16.8175559 L92.4506043,28.2753949 L92.4506043,39.6496191 C92.4072084,40.9599809 91.3222606,42 89.9986872,42 C88.6751138,42 87.5901659,40.9599809 87.5467701,39.6496191 L87.5467701,28.2753949 L79.4590048,16.8175559 C79.1605735,16.4544751 78.998375,16.0001785 79.0000123,15.5319786 C79.0000123,14.2855956 79.9206353,13.0000182 81.4295073,13.0000182 C82.2329898,12.9969214 82.9858187,13.388373 83.4395781,14.0452031 L89.978903,23.302928 L96.5577962,14.0452031 C97.0118725,13.3887259 97.7644979,12.9973801 98.5678671,13.0000182 C99.0654459,13.0108522 99.5481329,13.1702275 99.9527584,13.4572866 C100.603017,13.897976 100.994219,14.6261349 101,15.4065564 Z" id="Path" fill="#1C73C1"></path>
                </g>
            </g>
        </g>
    </g>
</svg>