<?xml version="1.0" encoding="UTF-8"?>
<svg width="409px" height="310px" viewBox="0 0 409 310" version="1.1" xmlns="http://www.w3.org/2000/svg" xmlns:xlink="http://www.w3.org/1999/xlink">
    <!-- Generator: Sketch 52.5 (67469) - http://www.bohemiancoding.com/sketch -->
    <title>undraw_High_five_u364</title>
    <desc>Created with Sketch.</desc>
    <defs>
        <linearGradient x1="50.0049089%" y1="100.006199%" x2="50.0049089%" y2="0.00039645933%" id="linearGradient-1">
            <stop stop-color="#808080" stop-opacity="0.25" offset="0%"></stop>
            <stop stop-color="#808080" stop-opacity="0.12" offset="54%"></stop>
            <stop stop-color="#808080" stop-opacity="0.1" offset="100%"></stop>
        </linearGradient>
    </defs>
    <g id="Design" stroke="none" stroke-width="1" fill="none" fill-rule="evenodd">
        <g id="after-subscription" transform="translate(-516.000000, -202.000000)">
            <g id="undraw_High_five_u364" transform="translate(516.000000, 202.000000)">
                <path d="M97.5048698,258.384221 C94.0595366,258.031653 90.4601767,257.654488 87.1972435,258.576903 C83.9343103,259.499318 81.230737,262.192771 82.1994837,264.767335 C84.3639636,270.506809 97.0671098,266.509676 102.924176,270.433016 C105.015696,271.835087 105.830416,274.040685 107.46391,275.762527 C110.106683,278.558471 114.650469,279.862152 119.036176,280.579586 C145.382842,284.888291 175.418041,273.798807 198.50988,284.478328 C205.98828,287.938411 211.885879,293.444206 220.085772,295.752295 C230.948705,298.810614 242.845238,295.543214 254.085131,293.448306 C268.102891,290.857485 282.391757,290.099679 296.600543,291.193513 C307.110836,292.013438 321.090783,292.288112 324.455049,284.56852 C326.619529,279.603875 322.039262,274.077582 315.959263,271.728497 C309.879263,269.379413 302.76161,269.453206 295.972277,269.678685 C282.86785,270.154242 269.759371,271.113554 256.654945,270.646196 C231.313505,269.73608 207.37452,259.577211 182.697827,259.241042 C153.959695,258.888474 126.376762,261.327751 97.5048698,258.384221 Z" id="Shape" fill="#4777F4" fill-rule="nonzero" opacity="0.1"></path>
                <path d="M70.1181037,131.206501 C66.2367619,135.072658 66,141 66,141 C66,141 72.0121985,140.66348 75.878015,136.793499 C79.7438314,132.923518 80,127 80,127 C80,127 73.9839202,127.347992 70.1181037,131.206501 Z" id="Shape" fill="#4777F4" fill-rule="nonzero" opacity="0.1"></path>
                <path d="M86.4009676,31.0387784 C87.8361027,36.5641953 93.1009752,40 93.1009752,40 C93.1009752,40 96.0403596,34.4826201 94.6052244,28.9572031 C93.1700893,23.4317862 87.9052168,20 87.9052168,20 C87.9052168,20 84.9495703,25.5173799 86.4009676,31.0387784 Z" id="Shape" fill="#4777F4" fill-rule="nonzero" opacity="0.1"></path>
                <path d="M324.121985,46.2091753 C320.240643,50.0742764 320,56 320,56 C320,56 326.01608,55.6635718 329.881896,51.7946477 C333.747713,47.9257236 334,42 334,42 C334,42 327.987801,42.3631895 324.121985,46.2091753 Z" id="Shape" fill="#4777F4" fill-rule="nonzero" opacity="0.1"></path>
                <path d="M200.042459,102.664062 C199.544314,108.1875 203.593891,113 203.593891,113 C203.593891,113 208.459396,108.855469 208.957541,103.328125 C209.455686,97.8007813 205.406109,93 205.406109,93 C205.406109,93 200.540604,97.1367187 200.042459,102.664062 Z" id="Shape" fill="#4777F4" fill-rule="nonzero" opacity="0.1"></path>
                <path d="M333.042459,182.666081 C332.544314,188.18844 336.593891,193 336.593891,193 C336.593891,193 341.459396,188.856278 341.957541,183.333919 C342.455686,177.81156 338.406109,173 338.406109,173 C338.406109,173 333.540604,177.143722 333.042459,182.666081 Z" id="Shape" fill="#4777F4" fill-rule="nonzero" opacity="0.1"></path>
                <path d="M237.632726,38.9086502 C211.412485,38.1214615 186.440056,30.8349206 162.593897,22.8419283 C138.747739,14.8489361 115.128455,6.01223906 89.5361711,1.78160477 C73.0755966,-0.939242097 54.2490423,-1.32274425 40.9890225,6.28674586 C28.2232655,13.6055817 24.0990064,26.2450053 21.8829261,37.9720975 C20.213776,46.7926471 19.2333529,56.0774361 23.8032589,64.3368614 C26.9795057,70.0732463 32.6108615,74.8932628 36.5082458,80.3833989 C50.0680645,99.4979536 40.4826056,123.06517 25.7924645,141.743744 C18.9051948,150.499703 10.903808,158.84794 5.58440495,168.16906 C0.265001952,177.490181 -2.19415846,188.163652 2.46082558,197.666431 C7.07124494,207.088474 18.0625171,214.165098 29.969391,219.142552 C54.1518103,229.234714 82.6367474,232.145293 110.432958,233.784261 C171.944379,237.417439 233.779906,235.843062 295.453381,234.268684 C318.278603,233.687376 341.201057,233.097994 363.653556,230.054198 C376.123565,228.366788 388.994657,225.68631 398.049391,219.211179 C409.538977,210.992122 412.387066,197.077049 404.685478,186.770933 C391.769822,169.489115 356.069457,165.193891 347.030928,146.644497 C342.063991,136.435266 347.164622,125.063418 354.388153,115.592934 C369.880458,95.27943 395.845465,77.4566719 397.210765,54.2325889 C398.150674,38.286973 385.668511,22.3171359 366.367951,14.7722356 C346.139634,6.85998066 318.084139,7.85708626 303.167123,20.9486387 C287.792306,34.4115828 260.786106,39.598954 237.632726,38.9086502 Z" id="Shape" fill="#1D79CA" fill-rule="nonzero" opacity="0.1"></path>
                <path d="M322.694684,115.114792 C321.566372,115.403484 320.644803,116.216058 320.216551,117.299831 L319.812946,117.235208 L318.3075,116.992875 C318.3075,116.992875 310.332271,116.334536 308.84297,116.435509 C307.353668,116.536481 306.421341,115.066326 306.421341,115.066326 L300.492388,110.045988 L300.032279,109.642099 C300.67401,109.399766 301.073579,109.27456 301.073579,109.27456 C301.073579,109.27456 285.163481,89.4840097 281.732841,89.1003153 C278.302201,88.716621 272.631555,84.0961332 272.57505,84.0517054 L272.514509,83.7366722 C272.389392,83.0702557 272.296563,82.3957614 272.22795,81.7172282 L273.071484,82.2342059 C273.071484,81.9999504 273.071484,81.7656949 273.0957,81.5314394 C273.221628,79.0890075 274.04529,76.7340325 275.468896,74.7461077 C277.127711,72.4439416 279.581628,70.6345198 280.562387,67.9809704 C280.953287,66.8398457 281.129808,65.6361894 281.083037,64.430788 C281.108105,62.2593559 280.535616,60.1228878 279.428258,58.2553283 C278.286527,56.366965 276.391206,55.0584204 274.221757,54.6607181 C273.656711,54.5718626 273.079556,54.5597459 272.522581,54.4305015 C269.208987,53.6509961 267.9901,49.2041805 264.769335,48.1136808 C263.267925,47.6047809 261.597002,47.9400086 260.148061,48.5700751 C258.69912,49.2001416 257.387404,50.1048525 255.970752,50.8035801 C254.554099,51.5023077 252.947753,52.0152465 251.660254,53.0047741 C251.527064,53.1057462 251.385802,53.2269129 251.256649,53.3521184 L251.002378,53.5984906 C250.470974,54.1382175 250.008667,54.7419469 249.626086,55.3957957 L249.565545,55.4967679 C249.525185,55.565429 249.48886,55.638129 249.452536,55.710829 C249.416211,55.7835289 249.391995,55.8239178 249.367779,55.8804622 C249.343562,55.9370067 249.303202,56.0097067 249.27495,56.0743289 L249.190193,56.2681955 L249.117544,56.4539843 C249.093328,56.5226454 249.065075,56.5913065 249.044895,56.6640065 C249.024715,56.7367065 249.004535,56.7811342 248.98839,56.8417176 L248.92785,57.0557786 L248.891525,57.2294508 C248.891525,57.3021508 248.863273,57.3788897 248.851165,57.4515896 C248.839057,57.5242896 248.851165,57.5606396 248.851165,57.6131452 C248.851165,57.6656507 248.851165,57.7666229 248.851165,57.8433618 C248.851165,57.9201006 248.851165,57.944334 248.851165,57.9928006 C248.851165,58.0412673 248.851165,58.1543561 248.851165,58.2391728 C248.851165,58.3239894 248.851165,58.3199505 248.851165,58.3603394 C248.8668,58.4790809 248.891081,58.5965211 248.923814,58.7117227 C249.14176,59.454878 249.892465,60.214189 250.465584,60.8765666 C250.401007,60.9371499 250.33643,60.9936943 250.271853,61.0583165 C247.519128,63.7129966 245.964411,67.3743275 245.965391,71.1999641 C245.966034,72.0412596 246.043036,72.880758 246.195446,73.7081135 C245.461866,73.1536369 244.673404,72.6758959 243.84243,72.2823861 C241.109033,70.9710445 238.119468,70.281402 235.088244,70.2629421 C230.144086,70.2063977 223.198049,68.3485092 223.198049,68.3485092 C223.375401,68.6876051 223.510928,69.0470065 223.601654,69.4188145 C223.29895,69.2451423 222.97203,69.0593535 222.612822,68.8654869 C219.717084,67.3096905 216.578027,66.2580492 213.329914,65.7555432 C213.329914,65.7555432 211.27153,66.0423042 210.997078,61.7166553 C210.902796,60.3650875 210.659147,59.0281357 210.27059,57.7302729 C209.08908,53.7741483 208.270411,49.7184789 207.824745,45.6136092 L207.134581,39.2644774 C207.134581,39.2644774 210.242338,22.7050369 208.373648,15.6450609 C208.975019,13.4317503 208.635991,11.4042286 206.654292,9.94619003 C198.836468,4.18673587 190.950032,26.6025638 190.950032,26.6025638 L188.019862,29.4499798 C187.268276,28.9597411 186.420563,28.6361164 185.533657,28.5008411 C185.533657,28.5008411 183.955562,30.1163963 182.857758,34.5268619 C182.276567,36.865378 178.305096,40.7709826 174.713014,43.9172763 C172.162233,46.1507813 169.700244,48.4731418 167.242291,50.8035801 C165.42607,52.5322242 161.377915,55.0040236 152.547043,56.4014788 C151.162679,56.6195787 149.903433,56.825562 148.753159,57.0153897 C149.047107,55.9718001 149.196491,54.8927665 149.197124,53.8085127 C149.168862,48.1875413 145.253942,43.3357284 139.768918,42.12401 C139.809266,41.8413763 139.809266,41.5544384 139.768918,41.2718047 C139.620037,40.6636545 139.312191,40.1060753 138.876952,39.6562495 C137.016334,37.3540834 134.99831,34.9872951 132.229582,33.8967953 C131.087872,33.4524058 129.864915,33.2555488 128.641536,33.3192344 L128.028057,33.3192344 C127.902939,33.3192344 127.781858,33.3192344 127.656741,33.3192344 C125.015816,33.4655476 122.565783,34.7429338 120.932686,36.8249891 C119.939818,38.1537832 119.342483,39.7289495 118.486841,41.1465991 C116.896639,43.7718763 114.450794,45.7953591 111.799111,47.3947587 C110.204873,48.360053 108.529913,49.1920639 107.024468,50.2866025 C101.563696,54.2568293 99.0452023,61.5954886 100.417458,68.1546426 C101.022865,71.0343697 102.302292,73.869669 101.959228,76.789785 C101.688813,79.0556011 100.469927,81.0912006 99.2268244,83.0137112 C97.9837219,84.9362219 96.6679705,86.8910436 96.1755727,89.1164709 C95.683175,91.3418981 96.199789,93.9631364 98.0644428,95.3121249 C98.7505708,95.8048692 99.5819965,96.1199025 100.167223,96.7176579 C100.556516,97.178241 100.882306,97.6890034 101.135875,98.2362798 C103.136661,101.853403 106.530834,104.492416 110.527756,105.538589 C111.155034,105.698949 111.801834,105.769657 112.448915,105.748611 L112.517528,105.748611 L112.642645,105.748611 C114.123874,105.841506 115.641428,105.445695 116.137862,104.133056 C116.213185,103.834707 116.325734,103.547032 116.472854,103.276812 C116.612241,103.075327 116.820347,102.931705 117.058081,102.872923 C117.535558,102.982075 117.99589,103.15601 118.426301,103.389901 C120.493892,104.463017 122.755703,105.1099 125.077706,105.292217 C125.465715,105.323203 125.855277,105.329947 126.244124,105.312411 C127.052172,105.388047 127.866651,105.271808 128.621356,104.973145 C129.34717,104.604476 129.974122,104.067106 130.449685,103.406056 C130.554622,103.272773 130.651488,103.131412 130.752389,103.002168 C130.219143,106.227828 129.215576,109.357678 127.773786,112.29161 C127.773786,112.29161 125.352158,116.330498 125.525708,120.401697 C125.432501,121.884947 125.746538,123.365453 126.433818,124.682918 C126.433818,124.682918 126.502431,124.505207 126.643693,124.226523 C127.337893,125.389723 129.614223,129.109539 131.107561,130.4141 C131.18021,134.255082 131.164066,139.065398 130.683776,140.054925 C129.876567,141.747219 127.325785,153.787144 138.295761,161.998203 L140.826362,167.543596 L130.409325,168.282713 C129.355916,168.137313 115.734257,166.303658 115.665644,168.973363 C115.597032,171.748079 117.724029,198.768239 124.787111,196.938623 C131.369904,195.234212 129.198511,187.354342 128.871591,186.296153 L129.105682,186.231531 L128.847375,186.158831 L134.114416,181.162726 C134.213705,180.554495 134.068622,179.93165 133.710811,179.430043 L133.76328,179.401771 L146.484901,179.971254 L149.475612,186.473864 C149.475612,186.473864 154.548923,194.196218 150.436191,200.694788 C146.323459,207.193359 142.069465,217.355201 141.383337,223.518544 C140.822326,228.559076 137.093019,233.510753 135.757087,235.142463 C133.371783,235.950241 124.222064,239.544851 127.874687,244.985233 C132.056032,251.213198 145.633295,263.067334 151.122319,262.659407 C156.611343,262.251479 154.411697,258.257019 154.411697,258.257019 L149.822712,253.806164 C149.822712,253.806164 149.015502,244.322856 149.342422,241.54814 C149.520008,240.106257 148.458528,239.068262 147.324398,238.628024 C147.756255,235.538274 148.850024,229.681887 151.199004,226.446738 C154.488382,221.907028 165.050718,201.930688 165.050718,201.930688 C165.050718,201.930688 168.408709,198.949989 167.653968,190.080591 C167.351264,186.502136 167.18175,183.359881 167.084885,180.875965 L179.039657,181.413137 C179.039657,181.413137 191.862179,180.124732 183.152389,166.376358 C174.442599,152.627983 155.929251,139.154253 155.929251,139.154253 L155.763773,130.644316 C156.603271,130.854339 157.095669,130.95935 157.095669,130.95935 C157.095669,130.95935 157.02302,130.652394 156.901938,130.103105 L157.095669,130.147533 C157.095669,130.147533 154.419769,118.559964 153.596416,109.34726 L154.351157,109.694605 C162.306205,118.907308 167.670112,111.120332 167.670112,111.120332 C167.670112,111.120332 184.472176,87.4847601 182.825469,88.5671821 C182.48108,88.7379955 182.08244,88.762746 181.719592,88.6358432 L182.930406,84.7746664 C182.930406,84.7746664 187.890708,77.1896349 180.6904,72.9245692 C174.813916,69.4430478 174.967285,80.356123 175.221556,84.4798275 L174.930961,84.2334554 C174.930961,84.2334554 169.308747,92.71512 166.289784,97.4406188 C163.270821,102.166118 160.736183,99.056174 160.736183,99.056174 L156.922119,94.7547584 C157.54854,93.0314941 157.856259,91.208513 157.830229,89.3749597 C157.998613,86.7878138 157.061118,84.2508309 155.251195,82.3957614 C152.341205,79.4271788 151.489599,76.5514906 151.400806,74.33818 C151.429423,73.1914561 151.688867,72.0622873 152.163619,71.0182141 L171.984647,60.5171056 C171.984647,60.5171056 176.165991,60.5817278 181.788205,51.9142743 C185.431791,46.3708614 189.441809,41.0775285 193.791409,36.069717 C193.791409,36.069717 193.674364,35.9000837 193.472562,35.6214005 C193.674364,35.3831061 193.791409,35.2538617 193.791409,35.2538617 C193.791409,35.2538617 193.561355,34.918634 193.169858,34.4016563 L196.225146,30.8757072 C196.128647,32.4693086 196.116521,34.066905 196.188821,35.6617894 L197.770952,41.0133158 L198.658882,70.808192 C198.658882,70.808192 197.698303,73.6354135 203.873455,76.498985 C209.0961,78.9223178 217.369997,82.9612057 219.783553,84.1526776 C219.69476,84.3707776 219.642291,84.4879053 219.642291,84.4879053 L220.360708,84.4394387 L220.465645,84.4879053 C232.52939,83.4054834 232.117713,95.4575249 232.117713,95.4575249 C232.117713,95.4575249 232.924923,119.973575 229.240012,128.507745 C225.555101,137.041915 226.083823,147.603607 226.083823,147.603607 C226.083823,147.603607 226.451103,145.802263 228.505451,148.156934 C228.465091,148.362918 228.420694,148.585056 228.372261,148.815273 C227.193736,154.724166 224.739819,167.293185 224.283746,172.390262 C223.781456,177.035159 222.886279,181.629038 221.607846,186.122481 L220.397032,208.671592 L228.109918,209.047208 L228.025161,209.854986 C227.939629,210.686153 227.450519,211.421844 226.717482,211.821924 C224.077907,213.25573 217.838178,218.284145 218.338648,233.801552 L218.072269,236.297585 C217.645096,240.524735 216.363962,244.620928 214.306637,248.33751 C214.129051,248.652543 213.971645,248.95546 213.838456,249.24626 C213.858663,249.082924 213.932481,248.930922 214.04833,248.814099 C214.04833,248.814099 210.040535,249.64611 210.863889,260.482446 C211.687242,271.318782 212.922273,273.213021 214.56898,273.346304 C216.215687,273.479587 224.255493,275.446526 223.823636,271.452066 C223.391779,267.457605 223.016427,258.584169 223.549185,257.231141 C224.081943,255.878114 226.269481,252.226959 224.194953,251.346482 C224.79653,248.861033 225.088001,246.310562 225.062703,243.753372 C225.062703,243.753372 229.09875,237.388085 231.984524,235.017258 C234.870297,232.646431 236.424176,228.619659 237.469512,223.437766 C237.542161,223.0985 245.973463,217.476368 244.734397,212.807413 C244.51645,211.999636 244.359044,211.284752 244.237963,210.63853 C244.185494,210.351769 244.141098,210.081164 244.100737,209.830753 L244.250071,209.830753 L245.965391,199.535627 L245.965391,209.560147 L246.982475,209.693431 L246.94615,210.501208 L246.514293,220.113761 C246.436001,221.985995 246.026029,223.829431 245.303479,225.558182 C243.487258,229.859598 240.137339,239.435801 241.049486,249.79151 L240.95262,259.024407 C240.662025,259.080952 236.472608,260.070479 237.267709,270.535238 C238.074919,281.367535 239.322057,283.265813 240.968765,283.399096 C242.615472,283.532379 250.655278,285.499318 250.227457,281.504858 C249.799636,277.510397 249.420247,268.636961 249.953006,267.283933 C250.485764,265.930906 251.446343,262.352451 249.371815,261.471974 C249.382615,260.258419 249.678486,259.064419 250.235529,257.986413 C251.139603,256.447597 254.158567,249.133171 256.430861,243.507 C258.753881,237.812652 260.045383,231.749947 260.244926,225.60261 C260.244926,225.533949 260.244926,225.465288 260.244926,225.396627 C260.305999,223.322757 260.750753,221.278189 261.556641,219.366567 C262.485642,217.227653 263.220474,215.009441 263.752251,212.738752 C263.808756,212.468147 263.853152,212.205619 263.893513,211.930974 L265.863104,212.193502 L272.587158,183.07312 C272.587158,183.07312 274.427596,167.289146 273.527557,160.160509 C273.491233,159.86567 273.450872,159.595065 273.40244,159.332537 L273.806044,159.368887 C273.806044,159.368887 275.1783,155.851016 274.766624,140.814236 C274.354947,125.777456 277.511136,121.023685 277.511136,121.023685 C279.214348,115.619653 281.095146,113.810232 282.19295,113.204398 C282.475449,113.024178 282.798994,112.91857 283.133349,112.897443 L288.222805,118.725558 L289.159168,119.799902 C289.161174,119.778408 289.161174,119.756774 289.159168,119.73528 L289.562772,120.20783 C289.53198,119.968157 289.52118,119.726335 289.530484,119.484869 C292.246744,121.064074 298.522797,124.755618 302.268249,127.405128 C307.151866,130.858377 308.491834,130.454489 312.761972,130.095028 C315.353114,129.880967 318.856403,128.426967 321.205382,127.320312 L321.419293,127.219339 C322.051354,127.556924 322.716863,127.827646 323.405028,128.027117 C323.405028,128.027117 330.298596,133.871388 330.964544,123.204685 C331.630492,112.537982 322.694684,115.114792 322.694684,115.114792 Z M143.897794,239.334829 C143.195882,239.125798 142.519124,238.840005 141.879771,238.482624 L143.897794,239.334829 Z M133.105404,123.871101 L133.129621,125.385684 L133.024683,125.434151 C133.056972,124.901018 133.081188,124.375962 133.105404,123.871101 Z M240.924368,259.060757 L240.924368,259.650435 C240.769548,259.484405 240.769548,259.226788 240.924368,259.060757 Z" id="Shape" fill="url(#linearGradient-1)" fill-rule="nonzero"></path>
                <polygon id="Rectangle-path" fill="#10538E" fill-rule="nonzero" points="253 82 265 82 265 95 253 95"></polygon>
                <path d="M238.720157,224.02439 C237.686537,229.207317 236.154348,233.235772 233.31696,235.609756 C230.479572,237.98374 226.495069,244.349593 226.495069,244.349593 C226.426161,252.817073 224.196785,255.390244 224.196785,255.390244 L221.8985,256 L216.223725,256 C216.223725,256 215.210372,253.154472 215.007701,251.463415 C214.938793,250.898374 215.340081,249.95122 215.899452,248.934959 C217.927943,245.209813 219.189207,241.113805 219.608323,236.890244 L219.871795,234.390244 C219.393492,218.873984 225.546571,213.837398 228.128593,212.402439 C228.852514,211.997403 229.332581,211.262327 229.413525,210.434959 L229.87156,206 L245.136707,206.752033 C245.136707,206.752033 244.812434,208.101626 245.392072,211.223577 C245.509621,211.869919 245.667704,212.589431 245.878481,213.390244 C247.094504,218.060976 238.785011,223.682927 238.720157,224.02439 Z" id="Shape" fill="#F6CCCC" fill-rule="nonzero"></path>
                <path d="M262.739145,212.755182 C262.233716,215.027691 261.53587,217.249185 260.65378,219.393644 C259.886223,221.310868 259.461919,223.357875 259.401779,225.433789 C259.401779,225.502982 259.401779,225.572175 259.401779,225.641369 C259.211327,231.793894 257.983718,237.863823 255.774887,243.574577 C253.611272,249.207705 250.743407,256.538098 249.882656,258.080696 C248.450679,260.657119 249.29578,265 249.29578,265 L241.001271,264.389473 L241.146034,249.871144 C240.28137,239.504398 243.466149,229.927267 245.191563,225.600667 C245.888732,223.870245 246.286107,222.025152 246.365314,220.150697 L246.756565,210.520653 L246.877853,207.671528 C246.877853,207.671528 261.541919,205.502123 262.77827,208.961775 C263.118658,209.877565 263.036495,211.241075 262.739145,212.755182 Z" id="Shape" fill="#F6CCCC" fill-rule="nonzero"></path>
                <path d="M245,211 L229,210.245136 L229.458186,206 L244.744551,206.719844 C244.744551,206.719844 244.408008,208.007782 245,211 Z" id="Shape" fill="#000000" fill-rule="nonzero" opacity="0.1"></path>
                <path d="M263.727716,213 L247,210.670418 L247.126911,207.700094 C247.126911,207.700094 262.470886,205.438405 263.764562,209.045226 C264.124826,209.999973 264.038854,211.421485 263.727716,213 Z" id="Shape" fill="#000000" fill-rule="nonzero" opacity="0.1"></path>
                <path d="M273.819649,183.121978 L267.148135,212 L247.403231,209.380952 L247.403231,199.440659 L245.695519,209.654945 L222,208.510623 L223.22563,186.147985 C224.495419,181.685432 225.383706,177.125758 225.881163,172.51685 C226.342817,167.464103 228.769565,155.001465 229.942084,149.146886 C230.350628,147.21685 230.579412,146 230.579412,146 C230.579412,146 271.164117,154.324542 273.819649,157.34652 C274.273132,157.862271 274.571369,158.958242 274.755213,160.412821 C275.645838,167.472161 273.819649,183.121978 273.819649,183.121978 Z" id="Shape" fill="#A39D94" fill-rule="nonzero"></path>
                <path d="M226,185 C226,185 242.080609,176.443389 246,178.250713 L226,185 Z" id="Shape" fill="#000000" fill-rule="nonzero" opacity="0.1"></path>
                <path d="M235,158 C235,158 248.58209,168.236515 249,171 L235,158 Z" id="Shape" fill="#000000" fill-rule="nonzero" opacity="0.1"></path>
                <path d="M231,193.024691 C231,193.024691 240.854839,192.62963 244,195 L231,193.024691 Z" id="Shape" fill="#000000" fill-rule="nonzero" opacity="0.1"></path>
                <path d="M248.26742,182 C248.26742,182 252.312298,196.48795 250.559638,200.450737 C248.806978,204.413524 247,199.523445 247,199.523445 L248.26742,182 Z" id="Shape" fill="#000000" fill-rule="nonzero" opacity="0.1"></path>
                <path d="M241.949044,259 C241.949044,259 237.249355,259.679094 238.103844,270.520191 C238.958333,281.361289 240.240066,283.264377 241.949044,283.398569 C243.658021,283.532761 251.989287,285.500913 251.562042,281.499547 C251.134798,277.498182 250.707553,268.625236 251.275788,267.267049 C251.844023,265.908862 252.826686,262.334471 250.673374,261.452056 L250.207677,263.5422 C250.207677,263.5422 245.64898,259.540835 242.944523,262.456464 C242.828371,261.745691 242.640951,261.047141 242.384833,260.370386 C242.115669,259.736024 241.526072,259.406643 241.949044,259 Z" id="Shape" fill="#494457" fill-rule="nonzero"></path>
                <path d="M323,126.709901 C323,126.709901 321.979403,127.282366 320.480907,127.996934 C318.168364,129.101265 314.721824,130.55476 312.170331,130.769942 C307.966443,131.127226 306.650197,131.53323 301.84286,128.082195 C298.153321,125.435048 291.977089,121.74447 289.287896,120.169174 L288.11745,119.474907 L288,119.405886 L288,119.357166 L290.231544,113.210263 L298.129021,109 L300.089215,110.684917 L305.925249,115.699068 C305.925249,115.699068 306.836496,117.168803 308.306642,117.067302 C309.776788,116.965801 317.621615,117.623528 317.621615,117.623528 L319.103911,117.86713 L322.226452,118.386816 L323,126.709901 Z" id="Shape" fill="#F6CCCC" fill-rule="nonzero"></path>
                <path d="M323,126.727929 C323,126.727929 321.882749,127.29374 320.242342,128 C318.50883,127.197432 316.354132,125.692616 317.183203,123.216693 C317.93247,120.989567 318.136413,119.252006 318.752674,118 L322.170929,118.513644 L323,126.727929 Z" id="Shape" fill="#000000" fill-rule="nonzero" opacity="0.1"></path>
                <path d="M321.948721,116.249759 C321.948721,116.249759 330.610848,113.849577 329.965669,123.93034 C329.32049,134.011103 322.645674,128.492605 322.645674,128.492605 C322.645674,128.492605 316.970488,127.052496 318.165264,123.258289 C319.36004,119.464082 319.013555,117.163748 321.948721,116.249759 Z" id="Shape" fill="#F6CCCC" fill-rule="nonzero"></path>
                <path d="M231,81.1238474 L221.893853,84.9398735 L221.753203,85 L221.652738,84.9518988 L221.086115,84.6673002 C218.731216,83.4968384 210.637756,79.4924161 205.546191,77.1154166 C199.518291,74.309515 200.454625,71.5036134 200.454625,71.5036134 L199.586608,42.1097903 L198.043465,36.8306869 C198.043465,36.8306869 196.954425,18.9370517 205.678804,14.4516177 C214.403184,9.96618357 208.76107,40.3701313 208.76107,40.3701313 L209.436195,46.6874183 C209.872225,50.7286864 210.672484,54.7225381 211.827262,58.6205168 C212.204364,59.902028 212.441499,61.2204413 212.534535,62.5527874 C212.803781,66.8257747 214.813081,66.5411761 214.813081,66.5411761 C217.986747,67.0382661 221.050854,68.0769381 223.871004,69.6116341 C224.918335,70.1631697 225.920698,70.7957681 226.86888,71.5036134 L231,81.1238474 Z" id="Shape" fill="#F6CCCC" fill-rule="nonzero"></path>
                <path d="M263.730899,95 L256,94.2105783 C256,94.2105783 258.278497,90.86343 259.281835,87.6070653 C259.423747,87.16059 259.537227,86.7057838 259.621611,86.2453128 C259.853458,84.9546082 259.793497,83.7586343 259.19789,82.8942175 C256.935383,79.6062759 272.65701,75 272.65701,75 C272.465948,76.8197104 272.408503,78.6506881 272.485124,80.4785869 C272.530025,81.7505393 272.663586,83.0179283 272.88486,84.2717584 C273.360546,86.8255378 274.307921,89.229327 276.114729,90.4608249 C281.051472,93.8158674 263.730899,95 263.730899,95 Z" id="Shape" fill="#F6CCCC" fill-rule="nonzero"></path>
                <path d="M263.728926,95 L256,94.1905813 C256,94.1905813 258.277915,90.7586461 259.280997,87.419794 C260.172181,88.7027226 260.4799,88.6743929 261.730755,88.9293598 C261.730755,88.9293598 269.531615,90.0989698 272.888542,84 C273.364107,86.6184695 274.31124,89.0831494 276.117587,90.3458425 C281.045076,93.785872 263.728926,95 263.728926,95 Z" id="Shape" fill="#000000" fill-rule="nonzero" opacity="0.1"></path>
                <path d="M289.274372,120.270741 C289.265198,120.514316 289.275955,120.758246 289.306533,121 L288.100503,119.57016 L288,119.451349 L290.215075,113.248549 L298.054271,109 L300,110.700239 C297.21407,111.785934 289.398995,115.231478 289.274372,120.270741 Z" id="Shape" fill="#000000" fill-rule="nonzero" opacity="0.1"></path>
                <path d="M231,81.2333941 L221.939624,84.9531128 L221.69972,84.9531128 L221,85 C221,85 221.051979,84.8866892 221.135946,84.6756968 C221.891643,82.882261 225.398241,74.1260745 223.882847,70 C224.924913,70.5376161 225.922238,71.1542492 226.865654,71.8442303 L231,81.2333941 Z" id="Shape" fill="#000000" fill-rule="nonzero" opacity="0.1"></path>
                <path d="M274,160 C270.462029,159.690629 235.066278,156.495105 231.764974,151.408112 C231.243133,150.579305 230.652847,149.793478 230,149.058462 C230.40113,147.182657 230.625764,146 230.625764,146 C230.625764,146 270.474063,154.090629 273.081411,157.027692 C273.526666,157.521119 273.819491,158.582378 274,160 Z" id="Shape" fill="#000000" fill-rule="nonzero" opacity="0.1"></path>
                <path d="M262.273469,90.71875 C262.273469,90.71875 270.326531,91.905 273.730612,85.6771875 C273.730612,85.6771875 279.416327,90.3246875 282.816327,90.7228125 C286.216327,91.1209375 302,110.897188 302,110.897188 C302,110.897188 289.346939,114.959688 290.163265,121.459688 L284.17551,114.553438 C284.17551,114.553438 281.183673,114.415313 278.6,122.678438 C278.6,122.678438 275.469388,127.415313 275.877551,142.446563 C276.285714,157.477813 274.926531,161 274.926531,161 C274.926531,161 235.195918,157.615938 231.661224,152.0625 C228.126531,146.509063 227.579592,149.21875 227.579592,149.21875 C227.579592,149.21875 227.032653,138.65625 230.706122,130.125 C234.379592,121.59375 233.563265,97.0846875 233.563265,97.0846875 C233.563265,97.0846875 233.971429,85.03125 222,86.1159375 C222,86.1159375 227.032653,74.46875 224.722449,70 C224.722449,70 231.608163,71.860625 236.514286,71.9175 C239.525563,71.9407942 242.493394,72.6348541 245.2,73.94875 C246.673469,74.6678125 248.032653,75.57375 248.804082,76.654375 C251.114286,79.904375 254.926531,78.4175 254.926531,78.4175 C255.887403,81.3914986 257.074511,84.2883179 258.477551,87.0828125 C258.636735,87.379375 258.795918,87.671875 258.959184,87.9521875 C259.195918,88.3584375 259.440816,88.7646875 259.685714,89.0978125 C260.665306,90.49125 260.942857,90.4546875 262.273469,90.71875 Z" id="Shape" fill="#1D79CA" fill-rule="nonzero"></path>
                <path d="M272.811845,80.809556 C272.376857,81.4414977 271.89262,82.0363924 271.363872,82.5884186 C268.676482,85.4104094 264.988706,87.0013767 261.138069,86.9999979 C260.644943,87.0002644 260.152117,86.9751192 259.661463,86.9246578 C259.898702,85.55598 259.837347,84.2877556 259.227889,83.3711182 C256.912767,79.8845475 273,75 273,75 C272.800401,76.929338 272.737518,78.8709283 272.811845,80.809556 Z" id="Shape" fill="#000000" fill-rule="nonzero" opacity="0.1"></path>
                <path d="M274.999903,73.0000487 C274.999903,80.7320083 268.731911,87 260.999951,87 C253.267992,87 247,80.7320083 247,73.0000487 C247,65.2680891 253.267992,59.0000974 260.999951,59.0000974 C264.717208,58.986213 268.286223,60.4567446 270.914739,63.0852605 C273.543255,65.7137765 275.013787,69.2827917 274.999903,73.0000487 Z" id="Shape" fill="#F6CCCC" fill-rule="nonzero"></path>
                <path d="M282,104.01705 L282.312859,114 C282.312859,114 286.853661,110.410912 286.997055,107.000853 C287.140449,103.590793 282,104.01705 282,104.01705 Z" id="Shape" fill="#000000" fill-rule="nonzero" opacity="0.1"></path>
                <path d="M247,114 C247,114 258.242962,129.321383 264.784322,130.875844 C271.325682,132.430304 249.45301,118.967781 247,114 Z" id="Shape" fill="#000000" fill-rule="nonzero" opacity="0.1"></path>
                <path d="M260,116 C260,116 265.822256,123.112936 270,124 L260,116 Z" id="Shape" fill="#000000" fill-rule="nonzero" opacity="0.1"></path>
                <path d="M238,133 C238,133 249.454545,144.312993 256,145 L238,133 Z" id="Shape" fill="#000000" fill-rule="nonzero" opacity="0.1"></path>
                <path d="M274.999998,73.1280172 C275.001924,76.8207385 273.555677,80.3662755 270.973153,83 L269.426844,82.0354031 C268.828664,81.7233043 268.312607,81.2738425 267.920804,80.7237129 C267.409395,79.8680872 267.558388,78.7945192 267.598656,77.7976346 C267.68322,75.6868222 267.103354,73.4024631 265.456375,72.0827009 C262.786576,69.9396008 258.50604,71.126176 255.791946,69.0234356 C255.138368,68.4671804 254.562701,67.8250444 254.080537,67.1144217 L251.53557,63.6959551 C251.38255,63.4941566 251.197315,63.292358 251,63.0542358 C255.051511,59.061181 261.099181,57.8971262 266.338267,60.1019285 C271.577352,62.3067307 274.983029,67.4491061 274.975837,73.144161 L274.999998,73.1280172 Z" id="Shape" fill="#000000" fill-rule="nonzero" opacity="0.1"></path>
                <path d="M251.756074,54.2254107 C252.992535,53.2370598 254.501571,52.7160045 255.892097,51.9881812 C257.282622,51.2603579 258.511182,50.3340373 259.901708,49.7137334 C261.292233,49.0934294 262.900028,48.7295178 264.341908,49.2464377 C267.435036,50.3588495 268.604341,54.8829329 271.784378,55.676922 C272.321626,55.8092535 272.874676,55.8216595 273.415875,55.9085021 C275.505337,56.3231645 277.324735,57.6556345 278.413075,59.5682954 C279.474539,61.4762882 280.020716,63.6503919 279.993217,65.8581773 C280.037179,67.0834964 279.867162,68.3069276 279.491522,69.4683463 C278.551337,72.1687361 276.192975,74.0172419 274.600981,76.3537201 C273.093983,78.5896318 272.294096,81.2636486 272.313725,84 L268.458178,81.4898367 C267.870506,81.1713679 267.36398,80.7105913 266.980745,80.1458448 C266.47905,79.2691486 266.625213,78.1691429 266.664717,77.1477091 C266.747674,74.984916 266.178823,72.6443025 264.567078,71.2920399 C261.944042,69.0961639 257.744813,70.3119597 255.086224,68.1574373 C254.445061,67.5874838 253.880328,66.9295346 253.407323,66.2014122 L250.910698,62.6987626 C250.369499,61.9378564 249.330556,60.9908591 249.093534,60.0645385 C248.568137,58.0712952 250.365549,55.3460932 251.756074,54.2254107 Z" id="Shape" fill="#362133" fill-rule="nonzero"></path>
                <path d="M269.457996,80.0787845 C268.853726,79.7645859 268.332893,79.3099877 267.938834,78.7528137 C267.422969,77.8878728 267.57326,76.8026168 267.61388,75.794879 C267.69918,73.6610861 267.114262,71.3518571 265.452933,70.0177265 C262.759872,67.8512943 258.44204,69.0507878 255.704299,66.9251548 C255.045026,66.3628436 254.464343,65.7137166 253.977978,64.9953573 L251.410838,61.5396736 C250.850291,60.7889702 249.786065,59.8546708 249.542349,58.940771 C249.099599,57.3659257 250.220692,55.313731 251.418961,54 C250.074462,55.2484524 248.599982,57.6188801 249.099599,59.3854811 C249.359563,60.299381 250.411603,61.2336804 250.968087,61.9843838 L253.535227,65.4400675 C254.021593,66.1584268 254.602276,66.8075537 255.261548,67.3698649 C257.987104,69.495498 262.304936,68.2960045 265.010182,70.4624367 C266.66745,71.7965672 267.252368,74.1057963 267.167067,76.2395892 C267.126448,77.247327 266.976157,78.332583 267.492022,79.1975239 C267.886081,79.7546979 268.406913,80.2092961 269.011184,80.5234947 L272.975628,83 C272.975628,82.7633652 272.975628,82.5267304 273,82.2941756 L269.457996,80.0787845 Z" id="Shape" fill="#000000" fill-rule="nonzero" opacity="0.1"></path>
                <path d="M215.221962,249 C215.221962,249 211.304443,249.840621 212.108862,261.067117 C212.913281,272.293614 214.119909,274.239652 215.728746,274.378354 C217.337584,274.517057 225.180666,276.55136 224.778457,272.415504 C224.376247,268.279647 223.974038,259.10847 224.508977,257.704633 C225.043915,256.300795 227.16758,252.530609 225.140445,251.618535 L223.503453,253.854587 C223.503453,253.854587 219.211879,249.718731 216.665894,252.732358 C216.665894,252.732358 214.284815,249.979324 215.221962,249 Z" id="Shape" fill="#494457" fill-rule="nonzero"></path>
                <path d="M218,256 C218.809981,256.416429 219.566219,256.924472 220.372361,257.340901 C221.166243,257.791874 222.052211,258.018182 222.948177,257.998859 C223.328554,257.991129 223.69685,257.852607 224,257.603251" id="Shape" fill="#000000" fill-rule="nonzero" opacity="0.1"></path>
                <path d="M243,267 C243.527797,267.457116 243.937368,268.04143 244.532723,268.419047 C245.377199,268.951687 246.458128,268.983486 247.488388,268.995411 C247.659872,269.010012 247.832685,268.989676 247.995074,268.935787 C248.179096,268.841572 248.334585,268.704772 248.446868,268.538295 L249,267.866533" id="Shape" fill="#000000" fill-rule="nonzero" opacity="0.1"></path>
                <path d="M177.202988,86.8388694 C177.202988,86.8388694 175.443133,69.3842152 182.287013,73.6803677 C189.130892,77.9765203 184.418392,85.6113972 184.418392,85.6113972 L182.811058,91 L177.202988,86.8388694 Z" id="Shape" fill="#FFC1C7" fill-rule="nonzero"></path>
                <path d="M189,31.8555516 L193.150225,27.8173036 C193.150225,27.8173036 201.106206,5.12991618 208.991633,10.9570012 C216.87706,16.7840862 198.997892,31.5183456 198.997892,31.5183456 L194.258335,37 L189,31.8555516 Z" id="Shape" fill="#FFC1C7" fill-rule="nonzero"></path>
                <path d="M129.21203,120.207349 L129,124.890731 C129,124.890731 132.888623,131.50451 134.512769,131.988143 C136.136916,132.471775 135.996976,118 135.996976,118 L129.21203,120.207349 Z" id="Shape" fill="#FB9570" fill-rule="nonzero"></path>
                <path d="M129.21203,120.207349 L129,124.890731 C129,124.890731 132.888623,131.50451 134.512769,131.988143 C136.136916,132.471775 135.996976,118 135.996976,118 L129.21203,120.207349 Z" id="Shape" fill="#000000" fill-rule="nonzero" opacity="0.1"></path>
                <polygon id="Shape" fill="#FFC1C7" fill-rule="nonzero" points="135 116 135.273903 133 154 133 152.590206 123.095546"></polygon>
                <path d="M140.026421,157 L140.878618,162.409275 L151.548748,186.895072 C151.548748,186.895072 156.390953,194.605217 152.463779,201.097971 C148.536606,207.590725 144.479836,217.735652 143.823998,223.887536 C143.16816,230.03942 138,236.061449 138,236.061449 L149.259206,241 C149.259206,241 150.044641,231.329855 153.186379,226.797101 C156.328118,222.264348 166.405245,202.315362 166.405245,202.315362 C166.405245,202.315362 169.613746,199.336812 168.895073,190.478261 C168.1764,181.61971 168.239235,175.394783 168.239235,175.394783 L167.127845,161.26087 L140.026421,157 Z" id="Shape" fill="#575988" fill-rule="nonzero"></path>
                <path d="M140.026421,157 L140.878618,162.409275 L151.548748,186.895072 C151.548748,186.895072 156.390953,194.605217 152.463779,201.097971 C148.536606,207.590725 144.479836,217.735652 143.823998,223.887536 C143.16816,230.03942 138,236.061449 138,236.061449 L149.259206,241 C149.259206,241 150.044641,231.329855 153.186379,226.797101 C156.328118,222.264348 166.405245,202.315362 166.405245,202.315362 C166.405245,202.315362 169.613746,199.336812 168.895073,190.478261 C168.1764,181.61971 168.239235,175.394783 168.239235,175.394783 L167.127845,161.26087 L140.026421,157 Z" id="Shape" fill="#1D79CA" fill-rule="nonzero" opacity="0.331584821"></path>
                <path d="M138.010777,235 C138.010777,235 125.764382,238.693962 129.825218,244.767421 C133.886054,250.840881 147.062807,262.385997 152.385417,261.990074 C157.708026,261.594151 155.579781,257.698268 155.579781,257.698268 L151.11965,253.343114 C151.11965,253.343114 150.321059,244.10623 150.656467,241.402076 C150.991875,238.697921 146.863159,237.442845 146.328103,239.026537 C145.793047,240.610229 138.010777,235 138.010777,235 Z" id="Shape" fill="#C4747B" fill-rule="nonzero"></path>
                <path d="M146.720236,124 L136.870279,125.084217 C135.045576,125.284667 133.67919,126.841808 133.726072,128.667374 C133.831419,132.585066 133.9003,138.816292 133.349254,139.952906 C132.538891,141.633644 130.042974,153.592278 140.845107,161.717862 L155.500514,166.352991 L132,168.033729 L132.745534,181 L136.392165,178.984726 L180.962105,181 C180.962105,181 193.591605,179.722317 185.013918,166.086975 C176.43623,152.451633 158.207125,139.082308 158.207125,139.082308 L158.004534,128.465846 L156.651229,125.378447 L146.720236,124 Z" id="Shape" fill="#1D79CA" fill-rule="nonzero"></path>
                <path d="M158,168 C161.188029,165.333333 164.811971,165.333333 168,168 L158,168 Z" id="Shape" fill="#000000" fill-rule="nonzero" opacity="0.1"></path>
                <path d="M132.427393,168.772227 C132.427393,168.772227 118.069738,166.639605 118.001616,169.462436 C117.933494,172.285267 120.005196,199.769638 126.88549,197.909793 C133.765784,196.049949 130.824529,186.957375 130.824529,186.957375 L135.969722,181.8614 C135.969722,181.8614 136.502675,179.03857 133.096588,179.311347 L132.427393,168.772227 Z" id="Shape" fill="#C4747B" fill-rule="nonzero"></path>
                <path d="M156.889257,93.2702687 L162.733811,99.8482443 C162.733811,99.8482443 165.280485,102.96841 168.305949,98.2210394 C171.331414,93.4736693 176.97372,85 176.97372,85 C176.97372,85 183.235153,90.4226602 184.886157,89.3405689 C186.53716,88.2584777 169.684538,111.922104 169.684538,111.922104 C169.684538,111.922104 164.318775,119.716415 156.336171,110.4983 L154,109.412141 L156.889257,93.2702687 Z" id="Shape" fill="#FB9570" fill-rule="nonzero"></path>
                <path d="M156.889257,93.2702687 L162.733811,99.8482443 C162.733811,99.8482443 165.280485,102.96841 168.305949,98.2210394 C171.331414,93.4736693 176.97372,85 176.97372,85 C176.97372,85 183.235153,90.4226602 184.886157,89.3405689 C186.53716,88.2584777 169.684538,111.922104 169.684538,111.922104 C169.684538,111.922104 164.318775,119.716415 156.336171,110.4983 L154,109.412141 L156.889257,93.2702687 Z" id="Shape" fill="#000000" fill-rule="nonzero" opacity="0.1"></path>
                <circle id="Oval" fill="#FFC1C7" fill-rule="nonzero" cx="140" cy="55" r="12"></circle>
                <path d="M139.341793,61.7517688 C139.341793,61.7517688 129.104269,66.5964744 130.315811,75.0747092 C131.527352,83.552944 131.729276,94.2516689 131.729276,94.2516689 C131.729276,94.2516689 136.377556,101.115002 130.214849,114.236079 C130.214849,114.236079 126.27734,120.89755 128.902346,125.742255 C128.902346,125.742255 131.814083,118.071471 139.341793,123.723628 C146.869503,129.375784 158.988954,132 158.988954,132 C158.988954,132 152.729324,104.546668 156.565872,100.711276 C156.565872,100.711276 163.229349,90.8200024 157.171643,84.5622577 C151.113936,78.3045129 154.142789,72.4504937 154.142789,72.4504937 L173.596104,62.0222649 C173.596104,62.0222649 177.69919,62.0868609 183.21978,53.4753967 C186.79378,47.9722252 190.729167,42.7122363 195,37.7301035 C195,37.7301035 190.824221,31.4723588 186.923058,31 C186.923058,31 185.372285,32.6149019 184.298052,36.9912859 C183.724589,39.3127074 179.827465,43.1925091 176.301879,46.3213815 C173.798027,48.5418715 171.383022,50.8471439 168.972055,53.1847144 C167.187051,54.9005476 163.213195,57.3551985 154.546636,58.7440141 C140.282757,61.0169884 139.341793,61.7517688 139.341793,61.7517688 Z" id="Shape" fill="#000000" fill-rule="nonzero" opacity="0.1"></path>
                <path d="M139.341793,60.7517688 C139.341793,60.7517688 129.104269,65.5964744 130.315811,74.0747092 C131.527352,82.552944 131.729276,93.2516689 131.729276,93.2516689 C131.729276,93.2516689 136.377556,100.115002 130.214849,113.236079 C130.214849,113.236079 126.27734,119.89755 128.902346,124.742255 C128.902346,124.742255 131.814083,117.071471 139.341793,122.723628 C146.869503,128.375784 158.988954,131 158.988954,131 C158.988954,131 152.729324,103.546668 156.565872,99.7112763 C156.565872,99.7112763 163.229349,89.8200024 157.171643,83.5622577 C151.113936,77.3045129 154.142789,71.4504937 154.142789,71.4504937 L173.596104,61.0222649 C173.596104,61.0222649 177.69919,61.0868609 183.21978,52.4753967 C186.79378,46.9722252 190.729167,41.7122363 195,36.7301035 C195,36.7301035 190.824221,30.4723588 186.923058,30 C186.923058,30 185.372285,31.6149019 184.298052,35.9912859 C183.724589,38.3127074 179.827465,42.1925091 176.301879,45.3213815 C173.798027,47.5418715 171.383022,49.8471439 168.972055,52.1847144 C167.187051,53.9005476 163.213195,56.3551985 154.546636,57.7440141 C140.282757,60.0169884 139.341793,60.7517688 139.341793,60.7517688 Z" id="Shape" fill="#FB9570" fill-rule="nonzero"></path>
                <path d="M149,111 C149,111 157.776764,122.941176 158,125 C158.004442,125 156.66516,112.165294 149,111 Z" id="Shape" fill="#000000" fill-rule="nonzero" opacity="0.1"></path>
                <path d="M138,71 C138,71 143.726134,77.041457 152,71.9776176 C147.378533,73.3533127 142.314777,72.9997115 138,71 Z" id="Shape" fill="#000000" fill-rule="nonzero" opacity="0.1"></path>
                <path d="M142.973203,42.9104005 C142.825264,42.305375 142.51881,41.7487307 142.08417,41.2955601 C140.223785,39.006524 138.202881,36.6569313 135.432884,35.5709512 C131.658765,34.1879234 127.406281,35.3759192 124.941468,38.5018864 C123.945422,39.8179813 123.352733,41.3843764 122.492511,42.7933245 C120.903776,45.4012916 118.446587,47.4117678 115.804182,49.0023855 C114.211331,49.9591784 112.532046,50.7867841 111.029745,51.8727642 C105.567952,55.8170117 103.044909,63.1080157 104.419618,69.6360076 C105.024654,72.494275 106.304698,75.3121713 105.958962,78.2148468 C105.691429,80.467549 104.469009,82.4860994 103.230124,84.3996852 C101.99124,86.313271 100.670038,88.2510794 100.176131,90.4553364 C99.6822232,92.6595934 100.200826,95.2715976 102.065326,96.607878 C102.752681,97.1004043 103.579975,97.4152981 104.168548,98.0047149 C104.558052,98.4635268 104.883339,98.9713074 105.135784,99.5145905 C107.117257,103.100114 110.515435,105.728071 114.532371,106.781372 C116.302206,107.237564 118.677077,107.072043 119.323272,105.392609 C119.397467,105.096054 119.509479,104.809855 119.65666,104.540781 C120.241117,103.733361 121.529392,104.185516 122.434889,104.649783 C124.496251,105.706736 126.754759,106.342614 129.073827,106.51896 C129.993615,106.637937 130.929138,106.528268 131.794433,106.200029 C132.525009,105.836137 133.153792,105.302548 133.626006,104.645746 C135.790967,101.880332 136.412467,98.2671264 136.782897,94.7992568 C137.025735,92.5425175 137.194487,90.2454071 136.754086,88.0169275 C136.054384,84.4400562 133.835917,81.0973368 134.165188,77.4720203 C134.515039,73.5964035 137.721321,70.4272794 138.211113,66.5718481 C138.460082,64.5532593 137.946107,62.515171 136.766434,60.8432021 C136.331139,60.3268978 135.962067,59.7601617 135.66749,59.155694 C135.380042,58.5301575 135.510509,57.7959332 135.996761,57.3026647 C136.257392,57.1225614 136.546692,56.9861375 136.852868,56.8989547 C139.499388,55.9017908 140.91114,53.3018979 141.100471,50.6414485 C141.174557,49.6321733 141.100471,48.7036401 141.384468,47.7185875 C141.837216,46.1966005 143.207809,44.533315 142.973203,42.9104005 Z" id="Shape" fill="#000000" fill-rule="nonzero" opacity="0.1"></path>
                <path d="M142.973203,42.9104005 C142.825264,42.305375 142.51881,41.7487307 142.08417,41.2955601 C140.223785,39.006524 138.202881,36.6569313 135.432884,35.5709512 C131.658765,34.1879234 127.406281,35.3759192 124.941468,38.5018864 C123.945422,39.8179813 123.352733,41.3843764 122.492511,42.7933245 C120.903776,45.4012916 118.446587,47.4117678 115.804182,49.0023855 C114.211331,49.9591784 112.532046,50.7867841 111.029745,51.8727642 C105.567952,55.8170117 103.044909,63.1080157 104.419618,69.6360076 C105.024654,72.494275 106.304698,75.3121713 105.958962,78.2148468 C105.691429,80.467549 104.469009,82.4860994 103.230124,84.3996852 C101.99124,86.313271 100.670038,88.2510794 100.176131,90.4553364 C99.6822232,92.6595934 100.200826,95.2715976 102.065326,96.607878 C102.752681,97.1004043 103.579975,97.4152981 104.168548,98.0047149 C104.558052,98.4635268 104.883339,98.9713074 105.135784,99.5145905 C107.117257,103.100114 110.515435,105.728071 114.532371,106.781372 C116.302206,107.237564 118.677077,107.072043 119.323272,105.392609 C119.397467,105.096054 119.509479,104.809855 119.65666,104.540781 C120.241117,103.733361 121.529392,104.185516 122.434889,104.649783 C124.496251,105.706736 126.754759,106.342614 129.073827,106.51896 C129.993615,106.637937 130.929138,106.528268 131.794433,106.200029 C132.525009,105.836137 133.153792,105.302548 133.626006,104.645746 C135.790967,101.880332 136.412467,98.2671264 136.782897,94.7992568 C137.025735,92.5425175 137.194487,90.2454071 136.754086,88.0169275 C136.054384,84.4400562 133.835917,81.0973368 134.165188,77.4720203 C134.515039,73.5964035 137.721321,70.4272794 138.211113,66.5718481 C138.460082,64.5532593 137.946107,62.515171 136.766434,60.8432021 C136.331139,60.3268978 135.962067,59.7601617 135.66749,59.155694 C135.380042,58.5301575 135.510509,57.7959332 135.996761,57.3026647 C136.257392,57.1225614 136.546692,56.9861375 136.852868,56.8989547 C139.499388,55.9017908 140.91114,53.3018979 141.100471,50.6414485 C141.174557,49.6321733 141.100471,48.7036401 141.384468,47.7185875 C141.837216,46.1966005 143.207809,44.533315 142.973203,42.9104005 Z" id="Shape" fill="#BB7684" fill-rule="nonzero"></path>
                <g id="Group" opacity="0.1" transform="translate(114.000000, 34.000000)" fill="#000000" fill-rule="nonzero">
                    <path d="M3.08514706,70.1651667 C2.94337007,70.4360189 2.8340532,70.7233293 2.75955882,71.0208889 C2.39029412,72.0266667 1.42544118,72.489 0.349411765,72.6025556 C1.84632353,72.7566667 3.44647059,72.3876111 3.95073529,71.0208889 C4.02522967,70.7233293 4.13454655,70.4360189 4.27632353,70.1651667 C4.37625772,70.0161921 4.5133344,69.8971836 4.67338235,69.8204444 C4.06985294,69.642 3.45044118,69.6501111 3.08514706,70.1651667 Z" id="Shape"></path>
                    <path d="M26.7816176,8.26927778 C26.6428154,7.65996566 26.3466577,7.09978938 25.9239706,6.64705556 C24.1292647,4.34755556 22.1797059,1.98722222 19.5075,0.896277778 C18.3461306,0.433125822 17.0978578,0.241878097 15.8545588,0.336611111 C16.6987043,0.390872026 17.5293389,0.579711554 18.3163235,0.896277778 C20.9885294,1.98722222 22.9380882,4.34755556 24.7327941,6.64705556 C25.1554813,7.09978938 25.4516389,7.65996566 25.5904412,8.26927778 C25.8167647,9.8915 24.4985294,11.5745556 24.0617647,13.0751111 C23.7719118,14.0646667 23.8552941,14.9933889 23.7877941,16.0113333 C23.6011765,18.6798889 22.2432353,21.2835556 19.6861765,22.2974444 C19.3908099,22.3850259 19.1117234,22.5220733 18.8602941,22.703 C18.3908451,23.200191 18.2664739,23.9398753 18.5466176,24.5685556 C18.8293786,25.1756761 19.1840944,25.7450148 19.6027941,26.2637778 C20.7419458,27.9414339 21.2392203,29.9875265 21.0004412,32.0145556 C20.5239706,35.8957222 17.4269118,39.0752778 17.0933824,42.9645556 C16.7757353,46.6145556 18.9198529,49.9644444 19.5908824,53.5536111 C20.0117647,55.7922778 19.8529412,58.0998889 19.6186765,60.3669444 C19.2613235,63.8506667 18.6657353,67.4844444 16.5732353,70.2584444 C16.1192887,70.9181887 15.5139949,71.4542808 14.8102941,71.8198333 C14.3989517,72.0039913 13.9598527,72.1150865 13.5119118,72.1483333 C14.355593,72.2509317 15.2110151,72.1380579 16.0014706,71.8198333 C16.7063937,71.4639441 17.3156359,70.9377212 17.7763235,70.2868333 C19.8688235,67.5128333 20.4644118,63.8790556 20.8217647,60.3953333 C21.0560294,58.1282778 21.2188235,55.8206667 20.7939706,53.582 C20.1229412,49.9928333 17.9788235,46.6307778 18.2964706,42.9929444 C18.6379412,39.0955556 21.7270588,35.916 22.2035294,32.0429444 C22.4423086,30.0159154 21.945034,27.9698227 20.8058824,26.2921667 C20.3871827,25.7734037 20.0324668,25.204065 19.7497059,24.5969444 C19.4695621,23.9682642 19.5939334,23.2285799 20.0633824,22.7313889 C20.3148116,22.5504622 20.5938981,22.4134148 20.8892647,22.3258333 C23.4463235,21.3200556 24.8042647,18.7082778 24.9908824,16.0397222 C25.0583824,15.0217778 24.9908824,14.0930556 25.2648529,13.1035 C25.6897059,11.5745556 27.0079412,9.90366667 26.7816176,8.26927778 Z" id="Shape"></path>
                </g>
                <path d="M126,185 C127.517177,186.741254 129.847667,187.417878 132,186.742013" id="Shape" fill="#000000" fill-rule="nonzero" opacity="0.1"></path>
                <path d="M152,255 C151.159027,255.828611 150.062534,256.16589 149,255.922795" id="Shape" fill="#000000" fill-rule="nonzero" opacity="0.1"></path>
                <ellipse id="Oval" fill="#4777F4" fill-rule="nonzero" opacity="0.1" cx="42" cy="264.5" rx="11" ry="1.5"></ellipse>
                <ellipse id="Oval" fill="#1D79CA" fill-rule="nonzero" cx="341" cy="301.5" rx="11" ry="1.5"></ellipse>
                <ellipse id="Oval" fill="#4777F4" fill-rule="nonzero" opacity="0.1" cx="341" cy="265.5" rx="11" ry="1.5"></ellipse>
                <ellipse id="Oval" fill="#4777F4" fill-rule="nonzero" opacity="0.1" cx="74" cy="281.5" rx="11" ry="1.5"></ellipse>
                <ellipse id="Oval" fill="#1D79CA" fill-rule="nonzero" cx="375" cy="282" rx="16" ry="3"></ellipse>
                <ellipse id="Oval" fill="#4777F4" fill-rule="nonzero" opacity="0.1" cx="141.5" cy="303.5" rx="36.5" ry="6.5"></ellipse>
                <path d="M382.362412,277.492931 C383.120659,276.88721 383.673748,276.070972 383.948881,275.151652 C384.151321,274.22161 383.746441,273.109604 382.841658,272.769936 C381.825326,272.389832 380.73876,273.077254 379.916605,273.776807 C379.094451,274.476361 378.148353,275.264874 377.07005,275.119303 C378.198119,274.11955 378.706443,272.613153 378.408633,271.152472 C378.361822,270.854907 378.233303,270.575377 378.036804,270.34374 C377.470798,269.753366 376.450335,270.008116 375.77278,270.473137 C373.624437,271.953117 373.025379,274.807941 373.012985,277.379708 C372.79815,276.45371 372.979933,275.487276 372.975802,274.549147 C372.971671,273.611017 372.703128,272.527317 371.885104,272.029946 C371.379314,271.757376 370.80987,271.61804 370.232532,271.62558 C369.265777,271.593231 368.191605,271.686235 367.530577,272.377701 C366.70429,273.239001 366.923256,274.678544 367.637994,275.612629 C368.352731,276.546714 369.435166,277.14922 370.430841,277.804293 C371.232145,278.270557 371.91565,278.907751 372.430453,279.66842 C372.489907,279.774446 372.539677,279.885403 372.579185,280 L378.63173,280 C379.984953,279.332533 381.239859,278.489219 382.362412,277.492931 Z" id="Shape" fill="#1D79CA" fill-rule="nonzero"></path>
                <path d="M348.366276,297.477812 C349.123371,296.873089 349.675057,296.05843 349.948586,295.141257 C350.151023,294.213092 349.750281,293.123507 348.841382,292.764347 C347.825068,292.38501 346.73852,293.071045 345.91638,293.769187 C345.09424,294.467328 344.148159,295.254251 343.069874,295.108973 C344.197924,294.111238 344.706239,292.60788 344.408434,291.150147 C344.363895,290.85253 344.235113,290.572988 344.036612,290.343047 C343.474747,289.753864 342.45017,290.0081 341.776759,290.472183 C339.628452,291.949176 339.029405,294.79824 339.017011,297.364818 C338.798049,296.440688 338.979829,295.476204 338.975698,294.539967 C338.971566,293.603731 338.703028,292.522217 337.885019,292.02585 C337.377767,291.759622 336.808108,291.627468 336.232476,291.642478 C335.265738,291.610194 334.191585,291.70301 333.530567,292.393081 C332.704296,293.252643 332.923258,294.689281 333.637983,295.621482 C334.352708,296.553682 335.435124,297.154972 336.434912,297.808723 C337.234703,298.27453 337.916747,298.910403 338.430358,299.669089 C338.489811,299.774901 338.539581,299.885635 338.579087,300 L344.631528,300 C345.986682,299.3268 347.242881,298.478451 348.366276,297.477812 Z" id="Shape" fill="#1D79CA" fill-rule="nonzero"></path>
                <path d="M85.1142319,261 C85.1142319,261 79.7426511,241.578951 86.1235539,227.286915 C88.840705,221.307828 89.661772,214.551265 88.4633457,208.032762 C87.872045,204.944887 87.0158848,201.921291 85.9056321,199" id="Shape" stroke="#535461" stroke-width="2"></path>
                <path d="M91.9978666,190.532512 C91.9978666,192.96167 87.4978754,200 87.4978754,200 C87.4978754,200 83.0021334,192.96167 83.0021334,190.532512 C82.9517226,188.929999 83.797815,187.427677 85.2102031,186.611862 C86.6225913,185.796046 88.3774087,185.796046 89.7897969,186.611862 C91.202185,187.427677 92.0482774,188.929999 91.9978666,190.532512 Z" id="Shape" fill="#1D79CA" fill-rule="nonzero"></path>
                <path d="M97.3897228,203.553882 C96.1359954,205.54835 89,209 89,209 C89,209 89.1301038,200.859316 90.3838312,198.868919 C91.6648222,196.945233 94.1963186,196.423944 96.0941337,197.693046 C97.9919489,198.962149 98.5663106,201.56038 97.3897228,203.553882 Z" id="Shape" fill="#1D79CA" fill-rule="nonzero"></path>
                <path d="M98.6482442,226.396198 C96.4363924,227.509786 88,226.742086 88,226.742086 C88,226.742086 92.3940427,219.533291 94.6058944,218.423921 C96.8039847,217.397259 99.4236822,218.297302 100.517769,220.455048 C101.611856,222.612794 100.783424,225.245465 98.6482442,226.396198 Z" id="Shape" fill="#1D79CA" fill-rule="nonzero"></path>
                <path d="M92.5173299,242.904523 C90.7011931,244.358784 83,245 83,245 C83,245 85.8362648,237.204824 87.6369451,235.746372 C89.4519947,234.433243 91.8977176,234.895516 93.1962134,236.797146 C94.4947093,238.698776 94.1892441,241.370881 92.5018734,242.870995 L92.5173299,242.904523 Z" id="Shape" fill="#1D79CA" fill-rule="nonzero"></path>
                <path d="M80.1357873,208.846257 C81.7046745,210.394596 89,212 89,212 C89,212 87.214457,204.615904 85.6380989,203.067564 C84.0612634,201.586128 81.6123469,201.654713 80.1178365,203.222164 C78.6233262,204.789615 78.6279753,207.284593 80.1283164,208.846257 L80.1357873,208.846257 Z" id="Shape" fill="#1D79CA" fill-rule="nonzero"></path>
                <path d="M75.3821849,229.400656 C77.5885939,230.508063 86,229.74172 86,229.74172 C86,229.74172 81.6167698,222.54568 79.4103608,221.438273 C77.2124876,220.38982 74.5765074,221.285424 73.4798049,223.453245 C72.3831024,225.621066 73.2286616,228.264538 75.3821849,229.400656 Z" id="Shape" fill="#1D79CA" fill-rule="nonzero"></path>
                <path d="M73.4826701,248.903644 C75.2988069,250.362708 83,251 83,251 C83,251 80.1637352,243.201556 78.3630549,241.746685 C76.5480053,240.433005 74.1022824,240.895472 72.8037866,242.797899 C71.5052907,244.700326 71.8107559,247.373552 73.4981266,248.874295 L73.4826701,248.903644 Z" id="Shape" fill="#1D79CA" fill-rule="nonzero"></path>
                <path d="M72,259.927124 C72,259.927124 78.8767955,258.515484 80.713555,256.63468 C82.5503146,254.753877 90.7976462,251.465585 91.7140164,253.815551 C92.6303865,256.165517 104.093052,264.157894 96.2998864,265.569534 C88.5067207,266.981175 77.9604253,267.450338 75.6694999,266.512012 C73.3785744,265.573686 72,259.927124 72,259.927124 Z" id="Shape" fill="#A8A8A8" fill-rule="nonzero"></path>
                <path d="M96.3117936,263.727811 C88.5186761,265.112355 77.9724459,265.572512 75.6815346,264.648126 C73.9332076,263.947709 72.7194265,260.575937 72.2411486,259 L72,259.061083 C72,259.061083 73.3745468,264.595187 75.6694772,265.519574 C77.9644076,266.443961 88.5066187,265.979731 96.2997361,264.595187 C98.550456,264.187968 99.1935188,263.259509 98.9523703,262.07043 C98.7715088,262.831929 97.987776,263.430541 96.3117936,263.727811 Z" id="Shape" fill="#000000" fill-rule="nonzero" opacity="0.2"></path>
                <path d="M343.058271,239 C343.058271,239 345.261498,241.890775 342.044787,246.236989 C338.828076,250.583203 336.176193,254.278088 337.237747,257 C337.237747,257 342.092857,248.898593 346.050653,248.786017 C350.008449,248.673442 347.396624,243.860844 343.058271,239 Z" id="Shape" fill="#1D79CA" fill-rule="nonzero"></path>
                <path d="M342.996155,239 C343.191058,239.279823 343.345181,239.585513 343.45397,239.908036 C347.35147,244.448214 349.425816,248.687054 345.678219,248.791518 C342.189915,248.891964 338.004761,255.079464 337,256.642411 C337.033047,256.763499 337.072261,256.882849 337.117492,257 C337.117492,257 342.027857,248.904018 346.030696,248.791518 C350.033534,248.679018 347.383882,243.857589 342.996155,239 Z" id="Shape" fill="#000000" fill-rule="nonzero" opacity="0.1"></path>
                <path d="M348,243.790239 C348,245.010915 347.771654,246 347.496063,246 C347.220472,246 347,245.035039 347,243.790239 C347,242.54544 347.275591,243.143716 347.551181,243.143716 C347.826772,243.143716 348,242.569564 348,243.790239 Z" id="Shape" fill="#FFD037" fill-rule="nonzero"></path>
                <path d="M348.523831,245.008047 C347.742689,245.713554 347.06007,246.13919 347.003771,245.95844 C346.947473,245.777691 347.528051,245.066353 348.309193,244.360846 C349.090335,243.655339 348.784212,244.168435 348.844029,244.360846 C348.903846,244.553257 349.304973,244.30254 348.523831,245.008047 Z" id="Shape" fill="#FFD037" fill-rule="nonzero"></path>
                <path d="M330.943741,239 C330.943741,239 328.741246,241.890775 331.956889,246.236989 C335.172531,250.583203 337.823534,254.278088 336.762332,257 C336.762332,257 331.912839,248.898593 327.952353,248.786017 C323.991866,248.673442 326.598819,243.860844 330.943741,239 Z" id="Shape" fill="#1D79CA" fill-rule="nonzero"></path>
                <path d="M331.007458,239 C330.812672,239.279823 330.658642,239.585513 330.549919,239.908036 C326.654766,244.448214 324.58167,248.687054 328.327009,248.791518 C331.813212,248.891964 335.995844,255.079464 337,256.642411 C336.96744,256.764117 336.926863,256.88357 336.87853,257 C336.87853,257 331.975172,248.904018 327.970696,248.791518 C323.96622,248.679018 326.614276,243.857589 331.007458,239 Z" id="Shape" fill="#000000" fill-rule="nonzero" opacity="0.1"></path>
                <path d="M327,243.790239 C327,245.010915 327.228346,246 327.503937,246 C327.779528,246 328,245.035039 328,243.790239 C328,242.54544 327.724409,243.143716 327.448819,243.143716 C327.173228,243.143716 327,242.569564 327,243.790239 Z" id="Shape" fill="#FFD037" fill-rule="nonzero"></path>
                <path d="M325.476064,245.008047 C326.257033,245.713554 326.935983,246.13919 326.995787,245.95844 C327.055591,245.777691 326.471623,245.066353 325.690654,244.360846 C324.909685,243.655339 325.21574,244.168435 325.155936,244.360846 C325.096133,244.553257 324.695094,244.30254 325.476064,245.008047 Z" id="Shape" fill="#FFD037" fill-rule="nonzero"></path>
                <path d="M328,257.442354 C328,257.442354 334.179722,257.243579 336.046513,255.881145 C337.913304,254.518712 345.553468,252.887104 346.016142,255.052918 C346.478817,257.218732 355.301818,265.939965 348.325492,265.997941 C341.349165,266.055917 332.115791,264.879834 330.257047,263.716175 C328.398302,262.552516 328,257.442354 328,257.442354 Z" id="Shape" fill="#A8A8A8" fill-rule="nonzero"></path>
                <path d="M348.451307,265.207107 C341.473234,265.267933 332.237549,264.034043 330.37834,262.813187 C328.961799,261.883424 328.394378,258.542363 328.209262,257 L328,257 C328,257 328.402426,262.383063 330.253588,263.603919 C332.104749,264.824775 341.348482,266.058665 348.326555,265.99784 C350.338686,265.99784 351.034884,265.207107 350.998665,264.064455 C350.716967,264.763949 349.948333,265.194073 348.451307,265.207107 Z" id="Shape" fill="#000000" fill-rule="nonzero" opacity="0.2"></path>
            </g>
        </g>
    </g>
</svg>