<?xml version="1.0" encoding="UTF-8"?>
<svg width="203px" height="90px" viewBox="0 0 203 90" version="1.1" xmlns="http://www.w3.org/2000/svg" xmlns:xlink="http://www.w3.org/1999/xlink">
    <!-- Generator: Sketch 52.5 (67469) - http://www.bohemiancoding.com/sketch -->
    <title>Asset 1</title>
    <desc>Created with Sketch.</desc>
    <defs>
        <linearGradient x1="11.6935981%" y1="17.8611077%" x2="88.3002344%" y2="82.1388923%" id="linearGradient-1">
            <stop stop-color="#106EC2" offset="0%"></stop>
            <stop stop-color="#116FC3" offset="2%"></stop>
            <stop stop-color="#2A84D1" offset="63%"></stop>
            <stop stop-color="#338CD6" offset="100%"></stop>
        </linearGradient>
        <linearGradient x1="0%" y1="50%" x2="100%" y2="50%" id="linearGradient-2">
            <stop stop-color="#4A4843" offset="0%"></stop>
            <stop stop-color="#737069" offset="100%"></stop>
        </linearGradient>
        <linearGradient x1="50.0069725%" y1="100%" x2="50.0069725%" y2="0%" id="linearGradient-3">
            <stop stop-color="#106EC2" offset="0%"></stop>
            <stop stop-color="#116FC3" offset="2%"></stop>
            <stop stop-color="#2A84D1" offset="63%"></stop>
            <stop stop-color="#338CD6" offset="100%"></stop>
        </linearGradient>
        <linearGradient x1="14.9375%" y1="85%" x2="85.375%" y2="14.625%" id="linearGradient-4">
            <stop stop-color="#106EC2" offset="0%"></stop>
            <stop stop-color="#116FC3" offset="2%"></stop>
            <stop stop-color="#2A84D1" offset="63%"></stop>
            <stop stop-color="#338CD6" offset="100%"></stop>
        </linearGradient>
        <linearGradient x1="4.03622549%" y1="85.4710763%" x2="111.035301%" y2="19.9439312%" id="linearGradient-5">
            <stop stop-color="#414042" offset="0%"></stop>
            <stop stop-color="#333132" offset="100%"></stop>
            <stop stop-color="#222323" offset="100%"></stop>
        </linearGradient>
        <linearGradient x1="-0.00797212759%" y1="49.8954716%" x2="99.9991419%" y2="49.8954716%" id="linearGradient-6">
            <stop stop-color="#4A4843" offset="0%"></stop>
            <stop stop-color="#7D7A72" offset="100%"></stop>
        </linearGradient>
        <linearGradient x1="-0.0154846702%" y1="49.9999946%" x2="100%" y2="49.9999946%" id="linearGradient-7">
            <stop stop-color="#106EC2" offset="0%"></stop>
            <stop stop-color="#116FC3" offset="2%"></stop>
            <stop stop-color="#2A84D1" offset="63%"></stop>
            <stop stop-color="#338CD6" offset="100%"></stop>
        </linearGradient>
        <linearGradient x1="14.6875%" y1="85.0000235%" x2="85.0625%" y2="14.6251336%" id="linearGradient-8">
            <stop stop-color="#106EC2" offset="0%"></stop>
            <stop stop-color="#116FC3" offset="2%"></stop>
            <stop stop-color="#2A84D1" offset="63%"></stop>
            <stop stop-color="#338CD6" offset="100%"></stop>
        </linearGradient>
    </defs>
    <g id="Design" stroke="none" stroke-width="1" fill="none" fill-rule="evenodd">
        <g id="Home" transform="translate(-70.000000, -29.000000)">
            <g id="Asset-1" transform="translate(70.000000, 29.000000)">
                <ellipse id="Oval" fill="url(#linearGradient-1)" cx="27.5" cy="27" rx="27.5" ry="27"></ellipse>
                <ellipse id="Oval" fill="url(#linearGradient-2)" cx="30" cy="86.5" rx="23" ry="3.5"></ellipse>
                <path d="M47.1019187,7 C45.3318819,7.37896032 43.4869589,9.26022762 42.5576896,11.8452784 C41.6760751,14.2949862 41.8769062,16.6837896 42.8980813,18 C44.6647142,17.6244233 46.5096372,15.7499231 47.4423104,13.1547216 C48.3239249,10.7016303 48.1230938,8.3162104 47.1019187,7 Z" id="Path" fill="#6B6A66"></path>
                <path d="M20.5845085,40 C20.5845085,40 12.2527889,52.1740322 11,61.3924051 C13.4247527,64.4695748 18.4493791,64.4728589 20.1500737,63.1986414 C20.9684277,57.1264035 27,46.3940763 27,46.3940763" id="Path" fill="#615F59"></path>
                <path d="M17.7787356,14.4227696 L18,14 C16.6234611,14.4026161 15.3143646,14.9888283 14.112069,15.741012 C9.68825412,18.5116294 7.01910203,23.1953704 7,28.2210386 C9.05577369,28.7031506 11.1622603,28.9644487 13.2796935,29 C12.4016603,23.7802929 13.9505109,18.2443409 17.7787356,14.4227696 Z" id="Path" fill="#BFB9B2"></path>
                <path d="M16.8516915,16.639787 C17.0330643,16.0785763 17.256378,15.5305678 17.5199056,15 C13.8747974,18.6695428 12.4013852,23.9852656 13.2199475,28.9973241 C15.3782793,29.0324853 16.8951254,28.7224281 19,27.9904374 C16.398422,24.765716 15.5972169,20.5325256 16.8516915,16.639787 Z" id="Path" fill="#D7D2CD"></path>
                <path d="M36.0971555,13.4399218 C36.7263897,13.3326955 37.3622855,13.271623 38,13.2571694 C32.3660242,12.3666665 26.4078841,13.9815337 25.2538591,15.1644405 C23.1954157,17.2710779 23.9798933,24.3718417 25.4029747,26 C25.5261571,24.4183605 25.7757636,22.866626 26.5051333,21.5607766 C28.5959932,17.7130066 31.613963,14.1875455 36.0971555,13.4399218 Z" id="Path" fill="#615F59"></path>
                <path d="M15.3107198,36.0461095 C14.4940658,34.0508306 14.013104,31.9325129 13.8875743,29.778098 C11.9025273,29.7394014 9.92791638,29.4784303 8.00017639,29 L8.00017639,29.1097318 C7.96733808,35.9273917 12.5228014,41.9022634 19.0716543,43.6309022 C19.7051459,43.798877 20.3494873,43.9222081 21,44 C18.4839051,41.7920638 16.4399908,39.1718023 15.3107198,36.0461095 Z" id="Path" fill="#615F59"></path>
                <path d="M30,80 L29.5674989,79.946745 C25.7042556,79.4508076 22.8881203,78.8650024 22.9629137,78.4489476 C14.5563671,69.6383474 13.6559727,55.8794196 20.8394307,46 C20.7971561,46.8687225 21.1093374,46.0499266 21.1093374,46.9319628 C21.1093374,58.2786099 24.205135,70.4240822 29.6097734,77.0143906 L29.8211461,77.2673519 L30,80 Z" id="Path" fill="#615F59"></path>
                <path d="M30.7201286,77.9180471 C30.7201286,77.9180471 23.6143458,78.3975588 20.4674992,76 C21.6611307,80.0662598 18.2167512,87 21.3705987,87 L30.8391417,87 C31.0878975,83.9752576 31.0480764,80.9364864 30.7201286,77.9180471 Z" id="Path" fill="#615F59"></path>
                <path d="M54.9999557,62.0218394 C55.0121509,53.3931091 52.5066919,44.942368 47.7813722,37.6740531 C47.9256709,37.5052537 48.0496298,37.3205824 48.1507739,37.1237264 C48.7724059,35.9417982 48.4538802,34.4919572 47.3916364,33.6683419 C48.8037834,31.6631988 49.5583238,29.2806383 49.5538225,26.8409558 C49.5538225,18.6794444 44.6499303,15.2507424 39.2004081,14.1667657 C38.8852305,14.1033947 38.5666639,14.0466944 38.2480973,14 C37.5813927,14.0145082 36.9165894,14.0758112 36.2587506,14.1834422 C31.5683658,14.9205464 28.4132009,18.4593137 26.2272918,22.3216064 C25.4647654,23.6323845 25.2105899,25.1899758 25.0750296,26.7775849 L25.1360317,26.8409558 C25.1360317,26.8409558 25.1123087,26.8609677 25.0682516,26.8809796 C24.5158436,27.1311281 20.7676026,28.3618586 19.3069408,29.6459542 C19.1951036,29.515877 19.0900444,29.3824645 18.9849852,29.2490519 C17.0646437,29.9299696 15.0411078,30.2863153 13,30.3030109 C13.0745581,32.4709645 13.8269175,34.6989537 14.582666,36.586741 C15.7417061,39.7219354 17.8395011,42.3501622 20.4219239,44.5514689 L20.493093,44.5514689 C20.8726618,44.594828 21.2590085,44.6215105 21.6487442,44.6315164 C21.4928499,44.808288 21.3369556,44.9883949 21.1844503,45.1718372 C20.9675539,45.4353269 20.7506575,45.702152 20.5405391,45.9756476 L20.3880338,46.1757664 C20.3439768,47.0462832 20.6693214,46.2257961 20.6693214,47.1096541 C20.6693214,58.6364966 23.9939366,70.9371316 29.7620254,77.5210399 L29.7383024,77.5210399 C30.056012,80.6714226 30.0945661,83.8430387 29.8535286,87 L32.9036343,87 C34.0592855,87 34.2592368,83.2344314 34.2592368,80.6929227 C35.4996132,80.7996528 36.7671015,80.8930415 38.0244229,80.9664184 C37.7499134,83.4979211 37.5160719,87 38.3633235,87 L51.0043172,87 C53.010609,87 52.519203,80.3860739 52.1769134,77.2942386 C53.6985773,72.4380226 54.9999557,67.405035 54.9999557,62.0218394 Z" id="Path" fill="#A39D94"></path>
                <path d="M48.9849393,54 C42.3649421,54 37,59.6073863 37,66.5013303 C37,73.3952743 42.3549017,78.9993189 48.9849393,78.9993189 C50.5632743,79.0163454 52.1287083,78.713967 53.586808,78.1104246 C53.6202761,78.093716 53.4462418,75.5038922 53.4797099,75.4905253 C57.7904058,73.5890934 61,71.6709529 61,66.5013303 C61,59.6073863 55.6015897,54 48.9849393,54 Z" id="Path" fill="#615F59"></path>
                <g id="Group" opacity="0.8" transform="translate(40.000000, 54.000000)" fill="#FFFFFF">
                    <path d="M10.4104918,20.97375 C4.76459016,20.97375 0.154918033,16.3110937 0.154918033,10.5295312 C0.154918033,4.74796875 4.76459016,0.0853125 10.4104918,0.0853125 C16.0563934,0.0853125 20.707377,4.74796875 20.707377,10.5295312 C20.707377,16.3110937 16.1011475,20.97375 10.4104918,20.97375 Z" id="Path"></path>
                </g>
                <path d="M49.9815925,52 C43.3649421,52 38,57.6075391 38,64.5016709 C38,71.3958027 43.3549017,77 49.9815925,77 C56.6082834,77 62,71.3958027 62,64.5016709 C62,57.6075391 56.5982429,52 49.9815925,52 Z" id="Path" fill="url(#linearGradient-3)"></path>
                <path d="M48.4661529,58.3484758 C47.5581133,57.6042087 46,58.1305597 46,59.1866143 L46,70.8166248 C46,71.8693268 47.5581133,72.3956778 48.4661529,71.6514108 L55.5756899,65.8380818 C55.8431673,65.6382324 56,65.3284412 56,64.9999433 C56,64.6714453 55.8431673,64.3616542 55.5756899,64.1618047 L48.4661529,58.3484758 Z" id="Path" fill="#FFFFFF"></path>
                <path d="M42,45 C42,45 44.0259124,55.980447 44.4590844,62.0878148 C44.6246249,64.3858185 46.5812341,66.1243654 48.8541147,65.993023 C51.8529981,65.8345214 55.2750573,64.8396713 55.9448079,63.2108151 C57.0210738,60.553385 42,45 42,45 Z" id="Path" fill="#615F59" opacity="0.75" style="mix-blend-mode: multiply;"></path>
                <path d="M49.2823129,40 C49.2823129,40 56,53.501426 56,63.0469341 C53.1564626,65.8687321 48.1258503,65.2172883 46.5918367,63.6950026 C46.5918367,57.3999627 42,45.6773496 42,45.6773496" id="Path" fill="#A39D94"></path>
                <path d="M27.0020278,86 C26.9770331,85.4591519 27.1840304,84.933128 27.5716521,84.552464 C27.9592739,84.1718 28.4911871,83.9721768 29.0353945,84.0031319 C30.0373433,84.0779332 30.8592033,84.9788004 31,86" id="Path" fill="#CCCCCC"></path>
                <path d="M21,86 C21.0360065,84.8183202 21.9819967,83.8931038 23.0949264,84.0099732 C24.1178536,84.1560111 24.9059846,84.9792873 25,86 L21,86 Z" id="Path" fill="#CCCCCC"></path>
                <path d="M31,42 C28.7042425,43.3148913 26.1128384,44.0038701 23.4776119,43.9999836 L22,44" id="Path" fill="#A39D94"></path>
                <path d="M45.0020278,86 C44.9770331,85.4591519 45.1840304,84.933128 45.5716521,84.552464 C45.9592739,84.1718 46.4911871,83.9721768 47.0353945,84.0031319 C48.0373433,84.0779332 48.8592033,84.9788004 49,86" id="Path" fill="#CCCCCC"></path>
                <path d="M39,86 C39.036036,84.8183202 39.982801,83.8931038 41.0933661,84.0099732 C42.1182993,84.1537687 42.9082279,84.9782475 43,86 L39,86 Z" id="Path" fill="#CCCCCC"></path>
                <path d="M50.9966556,64.8049998 C51.0259268,64.208728 50.8614693,63.6319566 50.5656012,63.2932416 C50.269733,62.9545265 49.8877228,62.9056922 49.5643256,63.1652433 C49.2409284,63.4247944 49.0256248,63.953019 49,64.5497569 C49.6236416,65.0439125 50.3350971,65.1348616 50.9966556,64.8049998 Z" id="Path" fill="#CCCCCC"></path>
                <path d="M55,63.2814528 C54.830886,62.2869997 54.2820074,61.8580199 53.7420295,62.0413113 C53.2020516,62.2246027 52.8756913,62.9421688 53.0448053,63.936622 C53.738533,64.1264392 54.4600767,63.8846561 55,63.2814528 Z" id="Path" fill="#CCCCCC"></path>
                <path d="M30,46.1470557 C28.7046847,46.7222536 27.3133627,47.012264 25.9099149,46.9996026 C22.8429984,46.9977598 19.9390825,45.5294116 18,43 C18,43 20.6366383,44.0244596 24.8223016,43.5578393" id="Path" fill="#615F59"></path>
                <path d="M59.615625,51.6375 C59.6373946,51.6405368 59.6594804,51.6405368 59.68125,51.6375 L59.74375,51.6375 C59.8740022,51.6104792 59.9922357,51.5426045 60.08125,51.44375 C60.1726761,51.3229255 60.2170976,51.1730028 60.20625,51.021875 C60.21052,50.9156817 60.194614,50.8096419 60.159375,50.709375 C60.1285245,50.6320077 60.0778726,50.5641127 60.0125,50.5125 C59.9400735,50.4622376 59.8582212,50.427158 59.771875,50.409375 C59.6626035,50.3894909 59.5516847,50.3800733 59.440625,50.38125 L58.9625,50.38125 C58.917784,50.3775681 58.872841,50.3775681 58.828125,50.38125 C58.7987036,50.3840834 58.7706122,50.3948878 58.746875,50.4125 C58.7257843,50.4273189 58.7112305,50.4497095 58.70625,50.475 C58.70225,50.5103037 58.70225,50.5459463 58.70625,50.58125 L58.70625,52.45625 C58.7074839,52.4973237 58.7242329,52.5364048 58.753125,52.565625 C58.7926444,52.6071634 58.8492388,52.6279532 58.90625,52.621875 C58.9653384,52.6265842 59.0238544,52.607454 59.06875,52.56875 C59.1007466,52.5401322 59.1189489,52.499177 59.11875,52.45625 L59.11875,51.678125 L59.959375,52.5625 C59.9974008,52.5998292 60.0501416,52.6181738 60.103125,52.6125 C60.1603887,52.6082731 60.2139524,52.5826072 60.253125,52.540625 C60.2936067,52.5038868 60.3163675,52.4515368 60.315625,52.396875 C60.3126933,52.3408359 60.2880305,52.2881472 60.246875,52.25 L59.615625,51.6375 Z M59.10625,51.29375 L59.10625,50.73125 L59.440625,50.73125 C59.4852865,50.7264209 59.5303385,50.7264209 59.575,50.73125 C59.6151796,50.7357275 59.6537297,50.7496484 59.6875,50.771875 C59.721736,50.7911233 59.7490632,50.8206367 59.765625,50.85625 C59.7858335,50.8980726 59.7954899,50.9442086 59.79375,50.990625 C59.79375,51.109375 59.765625,51.1875 59.703125,51.225 C59.6224437,51.2674805 59.5316287,51.2869409 59.440625,51.28125 L59.10625,51.29375 Z M59.5,49 C58.1192881,49 57,50.1192881 57,51.5 C57,52.8807119 58.1192881,54 59.5,54 C60.8807119,54 62,52.8807119 62,51.5 C62.0000097,50.122941 60.8864243,49.005164 59.509375,49 L59.5,49 Z M59.5,53.375 C58.4541108,53.375 57.60625,52.5271392 57.60625,51.48125 C57.60625,50.4353608 58.4541108,49.5875 59.5,49.5875 C60.5458892,49.5875 61.39375,50.4353608 61.39375,51.48125 C61.3987445,51.985414 61.2028173,52.4708234 60.8492459,52.8302584 C60.4956745,53.1896934 60.0135529,53.3935772 59.509375,53.396875 L59.5,53.375 Z" id="Shape" fill="url(#linearGradient-4)" fill-rule="nonzero"></path>
                <path d="M19.1799243,34.0735292 C19.6466742,34.3347067 19.703351,35.1249362 19.3032797,35.8448487 C18.9032083,36.5647612 18.2030835,36.936437 17.7396676,36.6752594 C17.2762516,36.4140818 17.2195749,35.6238523 17.6163122,34.9039398 C18.0130496,34.1840274 18.7131745,33.8157 19.1799243,34.0735292 Z M11.128489,34.0735292 C10.6617391,34.3347067 10.6050623,35.1249362 11.0017997,35.8448487 C11.3985371,36.5647612 12.1019959,36.936437 12.5687457,36.6752594 C13.0354956,36.4140818 13.0888385,35.6238523 12.6921011,34.9039398 C12.2953637,34.1840274 11.5952388,33.8157 11.128489,34.0735292 Z M42.5207521,17.2108348 C42.2914658,17.1426469 42.0433762,17.2024936 41.8699364,17.3678312 C41.6964966,17.5331687 41.6240561,17.7788785 41.6799025,18.012404 C41.735749,18.2459294 41.911398,18.4317925 42.1406843,18.4999804 C42.3760781,18.5994536 42.6473636,18.5551544 42.8392564,18.385908 C43.0311493,18.2166616 43.109936,17.9522028 43.0421356,17.7049149 C42.9743353,17.457627 42.7718597,17.2709559 42.5207521,17.2242285 L42.5207521,17.2108348 Z M43.2675519,19.4743736 C43.2675519,19.6149194 43.3809933,19.7288543 43.5209304,19.7288543 C43.6608675,19.7288543 43.7743089,19.6149194 43.7743089,19.4743736 C43.7743089,19.3338278 43.6608675,19.2198929 43.5209304,19.2198929 C43.3809933,19.2198929 43.2675519,19.3338278 43.2675519,19.4743736 Z M43.8876624,18.0345486 C43.738735,18.0331949 43.6037822,18.122435 43.5461658,18.2603697 C43.4885494,18.3983045 43.5197129,18.5575376 43.6250248,18.6633076 C43.7303367,18.7690776 43.8888802,18.8003767 44.0262175,18.7425096 C44.1635548,18.6846426 44.2524084,18.5491028 44.2510605,18.3995275 C44.2510605,18.3027291 44.2127741,18.2098953 44.1446237,18.1414485 C44.0764733,18.0730017 43.9840416,18.0345486 43.8876624,18.0345486 Z M45.151221,19.9933803 C45.436619,19.9933803 45.6679798,19.7610131 45.6679798,19.4743736 C45.6679798,19.1877341 45.436619,18.9553669 45.151221,18.9553669 C44.865823,18.9553669 44.6344622,19.1877341 44.6344622,19.4743736 C44.6344622,19.7610131 44.865823,19.9933803 45.151221,19.9933803 Z M44.2510605,20.6630663 C44.2510605,20.7999135 44.3615166,20.9108501 44.4977712,20.9108501 C44.6340257,20.9108501 44.7444818,20.7999135 44.7444818,20.6630663 C44.7444818,20.5262191 44.6340257,20.4152825 44.4977712,20.4152825 C44.429962,20.4151829 44.3651013,20.4431191 44.3184309,20.4925262 C44.2717604,20.5419334 44.2473951,20.6084554 44.2510605,20.67646 L44.2510605,20.6630663 Z M42.6707788,19.9933803 C42.4866511,19.9933803 42.337386,20.1432946 42.337386,20.3282233 C42.337386,20.513152 42.4866511,20.6630663 42.6707788,20.6630663 C42.8549065,20.6630663 43.0041716,20.513152 43.0041716,20.3282233 C43.004176,20.2388342 42.9685935,20.1531542 42.9053473,20.0902618 C42.8421011,20.0273694 42.7564424,19.9924864 42.6674449,19.9933803 L42.6707788,19.9933803 Z M21.6903719,64.6681356 C21.6903719,64.0245838 21.1709296,63.5028819 20.530165,63.5028819 C19.8894005,63.5028819 19.3699582,64.0245838 19.3699582,64.6681356 C19.3699582,65.3116875 19.8894005,65.8333893 20.530165,65.8333893 C20.8381427,65.834282 21.1337625,65.7118013 21.3515365,65.49308 C21.5693104,65.2743587 21.6912607,64.9774529 21.6903719,64.6681356 Z M20.0900866,67.721904 C20.088736,67.9118067 20.2015956,68.083766 20.3758968,68.1573804 C20.550198,68.2309949 20.7514998,68.1917188 20.8856815,68.057916 C21.0198632,67.9241133 21.0604112,67.7222225 20.9883669,67.5466399 C20.9163226,67.3710573 20.7459215,67.256477 20.5568365,67.2564722 C20.300354,67.2564656 20.0919186,67.4643124 20.0900866,67.721904 Z M22.6905502,67.0153852 C22.6905502,66.7768272 22.4979983,66.5834377 22.2604735,66.5834377 C22.0229487,66.5834377 21.8303968,66.7768272 21.8303968,67.0153852 C21.8303968,67.2539432 22.0229487,67.4473327 22.2604735,67.4473327 C22.3751169,67.4473361 22.4850169,67.4013682 22.5657685,67.3196367 C22.64652,67.2379051 22.6914389,67.1271754 22.6905502,67.0120368 L22.6905502,67.0153852 Z M22.5205199,69.3324989 C22.7433144,69.3324989 22.9239251,69.1511025 22.9239251,68.9273388 C22.9239251,68.7035751 22.7433144,68.5221788 22.5205199,68.5221788 C22.2977253,68.5221788 22.1171146,68.7035751 22.1171146,68.9273388 C22.1189452,69.1497938 22.2990208,69.329158 22.5205199,69.3291504 L22.5205199,69.3324989 Z M31.2454086,26.2482478 C30.83192,26.2444349 30.4830695,26.5564433 30.4391087,26.9693945 C30.3951479,27.3823456 30.6704338,27.7613759 31.0753783,27.845449 C31.2145488,28.7693158 31.9801111,29.4683089 32.9090385,29.5196641 C33.8310079,29.453341 34.5876715,28.7612143 34.7393648,27.845449 L35.3661432,27.845449 C35.790728,27.8179944 36.1211168,27.4641178 36.1211168,27.0368031 C36.1211168,26.6094885 35.790728,26.2556119 35.3661432,26.2281573 L31.2454086,26.2482478 Z M41.740613,46.6067033 C41.5795012,46.1906137 41.7847406,45.7221315 42.199028,45.5603189 C42.6133155,45.3985063 43.0797687,45.6046385 43.2408804,46.020728 C43.4142447,46.4761145 47.3249419,56.6419485 47.7583525,63.0977219 C48.2015186,62.3975003 48.9692707,61.9722008 49.7953823,61.9693009 L49.9820822,61.9693009 C50.5529655,62.0135355 51.0895276,62.2604306 51.4956854,62.6657744 C51.7945093,62.0328504 52.3595208,61.567329 53.03596,61.3967194 C53.2279665,61.3489714 53.4249302,61.3242439 53.6227313,61.3230539 C54.2883903,61.3277348 54.9203782,61.6176915 55.3597076,62.1199803 C54.7929399,53.3504417 49.3586377,41.9289463 48.931895,41.0817935 C48.378463,40.0404317 47.7850239,39.0124637 47.1482437,38.011283 C46.9591748,37.7135296 46.9848389,37.3268921 47.2115883,37.0569804 C47.3122483,36.9363162 47.3994501,36.8049445 47.4716347,36.6652141 C47.8969385,35.8183095 47.6745404,34.7880361 46.9382062,34.1940726 C46.6083601,33.9285091 46.5385416,33.4522628 46.7781777,33.1024844 C48.0740284,31.2253142 48.7663075,28.9945418 48.7618647,26.7103312 C48.7618647,21.205512 46.5014617,17.4720124 42.0473343,15.6203305 C35.7695485,13.0085549 27.124674,15.0711879 25.9044565,16.2900165 C25.1309853,17.0668523 24.7375818,19.025684 24.8776067,21.4064178 C25.0142978,23.7201831 25.6144048,25.6254398 26.1178278,26.1310528 C26.149456,26.1632541 26.1784442,26.1979673 26.20451,26.2348541 L29.1417003,26.2348541 C29.5662851,26.2623088 29.8966738,26.6161854 29.8966738,27.0435 C29.8966738,27.4708146 29.5662851,27.8246913 29.1417003,27.8521459 L28.5149219,27.8521459 C28.3632285,28.7679112 27.6065649,29.4600378 26.6845956,29.526361 C25.7643841,29.4756502 25.0030942,28.7890408 24.8542693,27.8755849 C23.5205812,28.3572553 22.2301379,28.9520747 20.9969149,29.6536013 C21.8671869,30.5498195 22.8815571,31.2923988 23.9974498,31.8501715 C24.3264242,32.0164837 24.5015031,32.3854346 24.4229391,32.7468227 C24.3443752,33.1082107 24.032113,33.3702924 23.6640571,33.3837525 C23.5400955,33.3824118 23.4180786,33.3526339 23.3073268,33.2966934 C21.7294924,32.51353 20.3299464,31.411139 19.196594,30.0587614 C17.1175128,27.5524677 15.9780354,24.3940192 15.9760198,21.1318465 C15.9740671,19.7389304 16.1820139,18.3537384 16.5927964,17.0233227 C16.6394714,16.8659465 16.6894804,16.7119187 16.7428232,16.5578909 C16.1339742,16.8424281 15.5467372,17.1714579 14.9858433,17.5423294 C9.73442998,20.8953932 7.27346783,27.295496 8.91778847,33.32322 C10.5621091,39.3509441 15.9274008,43.5974857 22.14712,43.7940219 C22.1637896,43.7940219 22.1704575,43.7940219 22.1737914,43.7940219 L23.6073803,43.7940219 C26.0794326,43.793398 28.509831,43.1546178 30.6653052,41.9389916 C30.9154357,41.7972326 31.2218658,41.8002653 31.4691663,41.9469474 C31.7164668,42.0936296 31.8670668,42.3616766 31.8642368,42.6501178 C31.8614067,42.938559 31.7055766,43.2035733 31.4554461,43.3453323 C29.6766242,44.3519928 27.7220985,45.0067143 25.697753,45.2740281 C24.1632867,45.4593601 22.6142586,45.4907671 21.0735953,45.3677841 C23.7948891,47.1983605 27.247982,47.5390125 30.2719017,46.2752087 C30.681586,46.1023004 31.1532634,46.2956899 31.3254229,46.7071562 C31.4975823,47.1186225 31.3050304,47.5923518 30.8953462,47.7652601 C29.5042444,48.346774 28.0113322,48.6427844 26.5045635,48.635852 L26.4278831,48.635852 C24.5505772,48.6300441 22.7044242,48.1535499 21.0569256,47.2496019 C18.2090991,51.3314844 16.688212,56.1982071 16.7028161,61.1824198 C16.723479,63.2354009 16.9796591,65.2791501 17.4662855,67.2732143 C18.1637327,70.0050451 19.331532,72.593312 20.9169007,74.9210288 L20.9969149,74.9210288 C21.4338196,75.0039356 21.7215861,75.4262317 21.640363,75.8652861 C21.1402738,78.5440303 20.7402025,82.3679375 20.9735774,84.6381732 C21.5592795,83.7813277 22.5258823,83.26715 23.5607053,83.2619684 C23.667391,83.2619684 23.7774106,83.2619684 23.8940981,83.2619684 C24.9153637,83.3803116 25.8302757,83.9515478 26.387876,84.8189884 C26.4601357,84.7312992 26.5369214,84.6474735 26.617917,84.5678562 C27.1309196,84.0864315 27.8216109,83.8434557 28.5215897,83.8981701 C29.8439277,84.0592903 30.8968066,85.0866144 31.0953819,86.4094928 L33.5824919,86.4094928 C34.085915,85.7398067 34.3659649,82.2072129 34.1892668,78.6444832 C34.1625635,78.3495356 34.2988725,78.063596 34.5443826,77.8995455 C34.7898928,77.7354949 35.1051506,77.7196964 35.3657008,77.8583867 C35.6262511,77.997077 35.7902234,78.2679686 35.792886,78.5641209 C35.8162235,78.9726293 35.839561,79.6088311 35.8495628,80.3588794 C36.5496876,80.4091059 37.2731499,80.4526355 38.0099479,80.4861198 C38.1399711,79.3576988 38.2633264,78.533985 38.2699943,78.4770617 C38.3362802,78.0360067 38.7460127,77.7324302 39.1851574,77.7990046 C39.6243021,77.8655789 39.9265638,78.2770937 39.8602778,78.7181486 C39.5813081,80.5646336 39.3976964,82.4243847 39.3101797,84.2899365 C39.9008559,83.6634197 40.7215009,83.3075913 41.5805845,83.305498 C41.6916106,83.298644 41.8029511,83.298644 41.9139772,83.305498 C42.9352428,83.4238412 43.8501548,83.9950774 44.4077551,84.862518 C44.4782583,84.7733048 44.5551423,84.6893717 44.6377961,84.6113858 C45.1507988,84.1299611 45.84149,83.8869853 46.5414688,83.9416997 C47.8379554,84.0983421 48.8786664,85.0905016 49.1019253,86.3827053 L51.5090211,86.3827053 C51.5090211,86.3827053 52.3224995,85.8703955 52.1391334,81.1658511 C52.0891245,79.849918 51.972437,78.557424 51.8690853,77.5930761 C52.4062718,77.5061133 52.9366,77.3807874 53.4560349,77.2180519 C53.7894276,80.0977019 54.2095025,85.7364583 52.7892493,87.3939312 C52.4755603,87.7742189 52.0107075,87.9960151 51.5190229,87.9999971 L39.0834726,87.9999971 C38.7583715,87.9992095 38.4504753,87.8531816 38.2433228,87.6015339 C37.8399176,87.1327537 37.5131927,86.1751026 37.8332497,82.371286 C37.8332497,82.1603349 37.8699229,81.9527322 37.8899265,81.748478 C37.1998035,81.7183421 36.5196822,81.6748125 35.8628985,81.6279345 C35.8262253,83.9216091 35.5861825,86.6505797 34.7193613,87.547959 C34.4641565,87.8332801 34.1010562,87.997386 33.719183,87.9999971 L21.7170433,87.9999971 C21.1492987,88.0010043 20.6124041,87.7406438 20.2601169,87.2934783 C18.5931531,85.2844202 19.516651,78.7549814 19.9267241,76.2436588 C17.7062356,73.1335821 16.2029478,69.5660435 15.5259396,65.799905 C13.6634797,65.4799638 11.9819377,64.4866588 10.7984301,63.0073143 C10.669207,62.8374656 10.6117224,62.6233663 10.6384016,62.4112937 C11.1584943,58.4199649 12.9388117,53.4743336 15.9260109,47.7116853 C16.522784,46.5631737 17.1095552,45.4983729 17.6496515,44.5474187 C11.9574021,42.5445494 7.88230155,37.4810224 7.12593425,31.4711459 C6.36956695,25.4612693 9.06200937,19.5385937 14.079015,16.1761699 C15.2839929,15.3791546 16.5949268,14.7569086 17.9730425,14.3278364 C18.2867203,14.2277642 18.6294757,14.3290844 18.8391635,14.5838662 C19.0488514,14.838648 19.0834317,15.1958105 18.9265458,15.4863933 C18.5910909,16.1287908 18.3165011,16.8014354 18.1063996,17.4954514 C17.7445608,18.6675777 17.5613447,19.8879343 17.5629694,21.1151044 C17.5639335,23.7410649 18.3990064,26.2982364 19.9467277,28.4146822 C21.2536274,27.5440903 23.1873054,26.7806482 24.3375105,26.3386555 C23.6940624,25.0260708 23.3640036,23.0538455 23.2739875,21.5135676 C23.1906393,20.1373628 23.1739697,16.7587967 24.7675871,15.1515503 C25.7210905,14.1905508 29.0183449,13.1190531 32.9190403,12.8277397 C32.8790332,12.7138931 32.84236,12.6000465 32.8056868,12.4928967 C32.0922263,10.1188597 32.5556422,7.58409806 33.9658936,6.18780268 C34.1187013,6.03467375 34.3380609,5.96920907 34.549331,6.01368431 C36.3663216,6.39205692 37.9799426,8.09975631 38.6633977,10.3666435 C38.9298432,11.2477912 39.0360028,12.1699525 38.9767869,13.0889173 C39.7313571,13.2181606 40.4773323,13.3937241 41.2105185,13.6146208 C41.306825,13.1461726 41.4360605,12.6851671 41.5972541,12.2350676 C42.5974324,9.4525221 44.5644497,7.36979853 46.6348188,6.92110889 C46.9374311,6.85684044 47.2499074,6.97273822 47.4382954,7.21911917 C48.6385094,8.77279077 48.8152075,11.4649286 47.8883756,14.0767042 C47.5610916,14.9871312 47.1124868,15.8488199 46.5548046,16.6382532 C48.6785165,18.6473114 50.36215,21.8082294 50.36215,26.7170281 C50.3661134,29.0977324 49.7079415,31.4322294 48.4618112,33.457418 C49.3774978,34.5673767 49.5478868,36.1180793 48.8952218,37.4018687 C48.8618825,37.4688374 48.8218754,37.5391544 48.7818683,37.6094714 C50.2013241,39.897882 51.4184162,42.3068013 52.4191834,44.8085963 C52.8236999,45.8242868 53.1915433,46.853371 53.5227134,47.8958489 C53.5727223,48.0230893 53.6193973,48.153678 53.6660723,48.2842668 C55.8831342,54.3851066 57,59.5215985 57,63.5464115 C56.9999514,63.7606187 56.916144,63.9662388 56.7666251,64.1189931 C55.3697094,65.5186369 53.359351,66.2921243 51.098948,66.2921243 C49.1686039,66.2921243 47.3249419,65.6894068 46.4014439,64.7618917 C46.2503976,64.6098839 46.165311,64.4040657 46.164735,64.1893101 C46.1880725,58.1688327 41.783954,46.7238983 41.740613,46.6067033 Z M45.0745407,86.4262349 L47.7616864,86.4262349 C47.5777477,85.8146632 47.0577113,85.3654864 46.4281153,85.2743749 C46.0830051,85.2498657 45.7433886,85.3712514 45.4912816,85.6092179 C45.2663222,85.827845 45.1197808,86.115138 45.0745407,86.4262349 Z M39.6569082,86.4262349 L43.6576214,86.4262349 C43.4714851,85.4826639 42.7095343,84.7617813 41.7606165,84.6314763 C41.6973154,84.628141 41.6338838,84.628141 41.5705827,84.6314763 C40.5811662,84.6739725 39.7716399,85.4371837 39.66691,86.4262349 L39.6569082,86.4262349 Z M27.0546615,86.4262349 L29.7718126,86.4262349 C29.6044173,85.7914194 29.0829522,85.3135126 28.4382415,85.2040579 C28.0940904,85.1792562 27.7553872,85.3007478 27.5047418,85.5389009 C27.2512268,85.769067 27.0910016,86.0849513 27.0546615,86.4262349 Z M21.637029,86.4262349 L25.6644137,86.4262349 C25.5008154,85.4526138 24.7277207,84.6978373 23.7540731,84.5611593 L23.5607053,84.5611593 C22.5403927,84.5977534 21.7112493,85.4001955 21.637029,86.4228865 L21.637029,86.4262349 Z M18.8865387,45.6657944 C16.4427697,49.9919662 13.0988402,56.715614 12.2686922,62.3242345 C13.0691524,63.2092475 14.1136107,63.8351519 15.2692272,64.1223415 C15.158307,63.1440847 15.1026524,62.1603026 15.1025308,61.175723 C15.0841676,55.8788559 16.6918713,50.7050434 19.7066849,46.3589195 C19.4244124,46.1423876 19.1510303,45.911346 18.8865387,45.6657944 Z M46.3714385,13.5208648 C47.0182205,11.709364 47.0382241,9.83759157 46.4514528,8.65894415 C45.1178817,9.22482885 43.8009803,10.8253785 43.1175251,12.767468 C42.9578461,13.2201318 42.8341041,13.6847833 42.7474591,14.1570665 C43.6557285,14.5372754 44.5189858,15.0179507 45.3212513,15.5901946 C45.7607042,14.9535863 46.1138655,14.2610816 46.3714385,13.53091 L46.3714385,13.5208648 Z M52.5692101,64.2864146 C52.744281,64.3260905 52.9231664,64.3463027 53.1026385,64.3466863 C53.2041745,64.345666 53.3055292,64.3378356 53.406026,64.3232473 C53.8753625,64.1696714 54.3234496,63.9570293 54.739597,63.690394 C54.5695667,62.9872237 54.1094847,62.6222448 53.6060616,62.6222448 C53.5148531,62.6229504 53.424106,62.6353277 53.3360135,62.6590775 C52.7459083,62.8131053 52.3791762,63.4325649 52.5692101,64.2864146 Z M48.6685147,64.2562787 C49.1631344,64.425941 49.6754369,64.538284 50.1954536,64.5911218 C50.439745,64.5730294 50.6818944,64.5326824 50.9189159,64.4705783 C50.9667808,63.8436727 50.4995856,63.2964906 49.8753965,63.2484013 L49.7887144,63.2484013 C49.2146432,63.2498701 48.7328632,63.683342 48.6685147,64.2562787 Z" id="Shape" fill="url(#linearGradient-5)" fill-rule="nonzero"></path>
                <circle id="Oval" fill="#FFFFFF" cx="33.5" cy="27.5" r="1"></circle>
                <circle id="Oval" fill="#FFFFFF" cx="26.5" cy="27.5" r="1"></circle>
                <path d="M75.281607,66.4748868 L75.281607,72.3038739 C75.2800992,72.4500275 75.223512,72.5899885 75.1235693,72.6947589 C74.976245,72.8223471 74.7847784,72.8841327 74.5922938,72.8661997 C74.3971985,72.8864202 74.2031663,72.8187976 74.0610182,72.6810437 C73.961848,72.5810283 73.9040797,72.4460317 73.899618,72.3038739 L73.899618,66.4748868 L72.5546166,66.4748868 C72.4193328,66.471757 72.2890302,66.4222318 72.1847412,66.3343054 C72.0515079,66.2093934 71.9841569,66.0275206 72.003166,65.8439847 C71.9858678,65.6657195 72.0489635,65.4890999 72.1746537,65.3639505 C72.2786292,65.2678457 72.4142898,65.2152046 72.5546166,65.2165114 L76.6535085,65.2165114 C76.8928869,65.2559922 77.0913534,65.4269693 77.1695123,65.6610441 C77.2476712,65.8951189 77.1927603,66.1540701 77.0267464,66.3343054 C76.9209071,66.4217941 76.789707,66.4712111 76.6535085,66.4748868 L75.281607,66.4748868 Z M82.6421275,65.6725439 C82.6453888,65.5329925 82.6952033,65.3987435 82.7833526,65.2919453 C82.9276756,65.153508 83.1245228,65.0870165 83.3213532,65.1102181 C83.5148818,65.0921249 83.7074489,65.1538748 83.8559913,65.2816589 C83.9605615,65.3838216 84.0200158,65.5248715 84.020754,65.6725439 L84.020754,72.3107316 C84.0212487,72.4546061 83.9655993,72.5927722 83.8660788,72.6947589 C83.7218743,72.8237363 83.5327816,72.8880102 83.3415282,72.8730574 C83.1460042,72.8995635 82.9492707,72.8339541 82.8068902,72.6947589 C82.7063444,72.592586 82.6474755,72.4553748 82.6421275,72.3107316 L82.6421275,69.4991025 L79.414124,69.4991025 L79.414124,72.3141604 C79.4128313,72.4576725 79.3574481,72.5951777 79.2594488,72.6981878 C79.1136434,72.826685 78.923735,72.8908251 78.7315358,72.8764862 C78.5363363,72.8995596 78.3410054,72.8344179 78.1968977,72.6981878 C78.0963519,72.5960149 78.037483,72.4588037 78.032135,72.3141604 L78.032135,65.6725439 C78.0369789,65.528784 78.0959925,65.3924636 78.1968977,65.2919453 C78.5134105,65.0563706 78.942936,65.0563706 79.2594488,65.2919453 C79.3572988,65.397821 79.4125133,65.5373555 79.414124,65.6828304 L79.414124,68.2921593 L82.6421275,68.2921593 L82.6421275,65.6725439 Z M86.5695317,71.556392 L89.1452095,71.556392 C89.3454901,71.537891 89.5464512,71.5834298 89.7201976,71.6866871 C89.8481427,71.8087401 89.9107067,71.9860979 89.8883228,72.1632925 C89.9095906,72.3403612 89.8472038,72.5172169 89.7201976,72.6398979 C89.5451534,72.7395033 89.3449764,72.7836706 89.1452095,72.7667641 L85.876856,72.7667641 C85.7015733,72.776846 85.5272758,72.7339033 85.3758429,72.6433267 C85.2417896,72.5279642 85.1746162,72.350903 85.1976303,72.1735789 L85.1976303,65.8131254 C85.1769207,65.6391662 85.2394761,65.4656598 85.3657554,65.3468064 C85.5184014,65.2495401 85.6972812,65.2039383 85.876856,65.2165114 L89.1452095,65.2165114 C89.3112051,65.2020398 89.4765596,65.2509138 89.609235,65.353664 C89.7254628,65.4802964 89.7851046,65.6503383 89.7739977,65.8234118 C89.7980853,65.9984405 89.7380033,66.1745829 89.6125975,66.2965884 C89.4725431,66.3942711 89.3044576,66.4413458 89.135122,66.4303122 L86.5661692,66.4303122 L86.5661692,68.2612999 L89.0308844,68.2612999 C89.2054206,68.244663 89.3796514,68.2961251 89.5184474,68.4053102 C89.6274286,68.5367425 89.680659,68.7069848 89.6663976,68.8784868 C89.6828908,69.0460701 89.6291525,69.2129551 89.5184474,69.3379481 C89.37671,69.4402665 89.2038325,69.4876816 89.0308844,69.471672 L86.5661692,69.471672 L86.5695317,71.556392 Z M101.250223,72.0398551 C101.265684,72.143066 101.271314,72.2475604 101.267035,72.3518773 C101.26556,72.4451795 101.242519,72.5368106 101.199785,72.619325 C101.151221,72.6993954 101.081221,72.7636385 100.998035,72.804481 C100.876506,72.8549121 100.745815,72.8782924 100.614709,72.8730574 C100.444995,72.9017778 100.272374,72.8426743 100.154046,72.7153318 C100.052583,72.5508286 99.9914563,72.3638311 99.9758337,72.1701501 L99.4680957,68.2612999 C99.4378332,68.093288 99.3974831,68.0109964 99.3403206,68.0109964 C99.283158,68.0109964 99.2293579,68.093288 99.1822829,68.2612999 L97.9919566,72.4170248 C97.963715,72.544808 97.9034724,72.662944 97.8171064,72.7599064 C97.6825622,72.8578014 97.517376,72.9017432 97.3530809,72.8833438 C97.2537817,72.8846845 97.1546149,72.8754915 97.0571806,72.8559133 C96.9880876,72.8414171 96.9227753,72.8122064 96.8655179,72.7701929 C96.8176291,72.733484 96.7794877,72.6851618 96.7545553,72.6296114 C96.7267596,72.5638032 96.7031727,72.4962284 96.6839427,72.4273113 C96.4777091,71.7278328 96.2748381,71.0420697 96.0753295,70.3700217 C95.875821,69.6979738 95.6751916,69.0064959 95.4734414,68.2955881 C95.4263663,68.1207185 95.3725663,68.0349981 95.3221287,68.0349981 C95.2716912,68.0349981 95.2279786,68.1207185 95.1977161,68.2955881 L94.7000655,72.1290043 C94.6835535,72.3379013 94.6114747,72.5382487 94.4915903,72.7084742 C94.3422282,72.8527429 94.137705,72.921843 93.9334147,72.8970591 C93.7603951,72.9177701 93.5890432,72.8465833 93.4794767,72.7084742 C93.3836587,72.5078715 93.3644807,72.2780859 93.4256767,72.0638568 L94.3369151,65.9228475 C94.3597421,65.7003757 94.4599406,65.493594 94.6193654,65.3399488 C94.7766525,65.2009013 94.9795695,65.1274391 95.1876286,65.1342198 C95.3921843,65.1284294 95.5933427,65.1884076 95.7626167,65.3056606 C95.9565024,65.4880885 96.0893937,65.7279328 96.1425796,65.9914238 L97.3530809,70.5174608 L98.5333197,65.9708509 C98.577225,65.7047022 98.7103274,65.4623321 98.9099201,65.2850877 C99.0742061,65.1710162 99.2693962,65.1122636 99.4680957,65.1170757 C99.6727177,65.1163602 99.8707911,65.1905816 100.026271,65.3262335 C100.200398,65.4851044 100.311607,65.7033726 100.338984,65.9399916 L101.250223,72.0398551 Z M103.5031,71.5529632 L106.072053,71.5529632 C106.272333,71.5344622 106.473295,71.5800009 106.647041,71.6832582 C106.773587,71.8062451 106.835888,71.9828577 106.815166,72.1598637 C106.834821,72.3367442 106.772686,72.5128857 106.647041,72.6364691 C106.471997,72.7360744 106.27182,72.7802418 106.072053,72.7633353 L102.800337,72.7633353 C102.626145,72.7731452 102.452998,72.730198 102.302686,72.6398979 C102.16791,72.5248811 102.099542,72.3480076 102.121111,72.1701501 L102.121111,65.8131254 C102.101805,65.6386588 102.165554,65.4653088 102.292599,65.3468064 C102.444204,65.2500261 102.621867,65.2044345 102.800337,65.2165114 L106.08214,65.2165114 C106.248136,65.2020398 106.41349,65.2509138 106.546166,65.353664 C106.662394,65.4802964 106.722035,65.6503383 106.710929,65.8234118 C106.735016,65.9984405 106.674934,66.1745829 106.549528,66.2965884 C106.409474,66.3942711 106.241388,66.4413458 106.072053,66.4303122 L103.5031,66.4303122 L103.5031,68.2612999 L105.957728,68.2612999 C106.1322,68.2453479 106.30619,68.296739 106.445291,68.4053102 C106.554272,68.5367425 106.607502,68.7069848 106.593241,68.8784868 C106.609734,69.0460701 106.555996,69.2129551 106.445291,69.3379481 C106.303301,69.4397187 106.130624,69.4870788 105.957728,69.471672 L103.493013,69.471672 L103.5031,71.5529632 Z M110.416408,65.2165114 C110.907763,65.2038699 111.395778,65.3022266 111.845472,65.5045319 C112.230108,65.6863393 112.567553,65.9576262 112.830685,66.2965884 C113.099218,66.6494963 113.294818,67.0542443 113.405673,67.4863875 C113.532937,67.9716308 113.595148,68.4722181 113.590611,68.9744937 C113.596505,69.4987361 113.532019,70.0213353 113.398948,70.5277473 C113.285866,70.9624387 113.088022,71.3694284 112.817235,71.724404 C112.555325,72.0566792 112.220027,72.3210425 111.838747,72.4958876 C111.406237,72.6826881 110.939799,72.7738422 110.470208,72.7633353 L108.452705,72.7633353 C108.20388,72.7633353 108.045842,72.7221895 107.978592,72.6398979 C107.904102,72.5346113 107.868385,72.4059215 107.877717,72.2764434 L107.877717,65.7034033 C107.8686,65.5760221 107.901761,65.4492156 107.971867,65.3433776 C108.035755,65.2576572 108.197155,65.2165114 108.452705,65.2165114 L110.416408,65.2165114 Z M109.259706,71.6386836 L110.470208,71.6386836 C111.629151,71.6386836 112.209743,70.7403339 112.211984,68.9436343 C112.215264,68.5732295 112.182601,68.2034023 112.114472,67.8395556 C112.061123,67.5450237 111.946463,67.2655802 111.778222,67.0200686 C111.621285,66.7986924 111.40871,66.6245676 111.162883,66.5160326 C110.855918,66.3927993 110.527593,66.3344718 110.197845,66.3445918 L109.252981,66.3445918 L109.259706,71.6386836 Z M115.893926,72.1804365 C115.908091,72.3694661 115.848927,72.5566128 115.729163,72.7016166 C115.580807,72.8297453 115.388095,72.8915418 115.194525,72.8730574 C115.003691,72.8949015 114.812801,72.8325123 114.669975,72.7016166 C114.557239,72.557217 114.50201,72.374797 114.515299,72.190723 L114.515299,65.8028389 C114.490611,65.6143625 114.553478,65.4249206 114.685334,65.290464 C114.817191,65.1560074 115.002969,65.0919 115.1878,65.1170757 C115.373477,65.1037543 115.557869,65.1571301 115.708988,65.2679436 C115.84283,65.4093295 115.908128,65.6040596 115.887201,65.7994101 L115.893926,72.1804365 Z M118.752054,71.0523561 L118.284666,72.3004451 C118.230594,72.458746 118.139403,72.6011732 118.019028,72.7153318 C117.878611,72.8300696 117.700837,72.8864133 117.521378,72.8730574 C117.328546,72.8832865 117.139328,72.8169219 116.993465,72.6879013 C116.862327,72.5678927 116.848877,72.3450197 116.94639,72.060428 L119.135379,65.5456777 C119.178033,65.4209396 119.258009,65.3130014 119.36403,65.2370843 C119.502229,65.1408741 119.667705,65.093868 119.83478,65.1033605 C120.002852,65.0943801 120.169236,65.141309 120.308893,65.2370843 C120.413195,65.3140091 120.491831,65.4217234 120.534181,65.5456777 L122.743346,72.060428 C122.841547,72.2559882 122.815034,72.4925468 122.676096,72.6604708 C122.53252,72.7914875 122.343955,72.85928 122.151545,72.8490557 C121.975006,72.8705589 121.797547,72.8172627 121.66062,72.7016166 C121.553366,72.5972022 121.470609,72.469447 121.418519,72.3278756 L120.907419,71.0283544 L118.752054,71.0523561 Z M120.651869,69.8316976 L119.83478,67.1435059 L119.000879,69.8419841 L120.651869,69.8316976 Z M127.511376,67.1435059 C127.508572,67.3025322 127.562321,67.4572171 127.662689,67.5789656 C127.765224,67.7063419 127.887976,67.815288 128.025839,67.9012743 C128.170741,67.9953952 128.323818,68.0757387 128.48314,68.1412914 C128.64454,68.2064389 128.785765,68.2681576 128.91354,68.3264474 C129.198833,68.4529091 129.476206,68.5971932 129.744078,68.7584782 C129.956628,68.8865729 130.151181,69.0434389 130.322429,69.2247972 C130.473934,69.3845599 130.588779,69.5766197 130.658679,69.787123 C130.727435,70.0180433 130.757002,70.2592435 130.746105,70.5003167 C130.759585,71.1379206 130.523663,71.7547804 130.090416,72.2147247 C129.663378,72.6501843 129.017778,72.8833438 128.146889,72.9004879 C127.843453,72.9162202 127.539649,72.8779309 127.249101,72.787337 C126.998977,72.7064479 126.755085,72.6067383 126.519437,72.48903 C126.356892,72.4073354 126.208189,72.2996856 126.078949,72.1701501 C125.979386,72.0639651 125.898612,71.9409958 125.840212,71.8066956 C125.796318,71.6978943 125.773482,71.581461 125.772962,71.463814 C125.77329,71.3584217 125.804944,71.2556071 125.863749,71.1689358 C125.934712,71.0296806 126.065235,70.9320763 126.216812,70.904917 C126.353507,70.8871165 126.491926,70.91997 126.606863,70.9974951 L126.943113,71.2306545 C127.062689,71.3140908 127.187354,71.3896777 127.316351,71.4569564 C127.448961,71.5255682 127.587388,71.5818016 127.729939,71.6249684 C127.882886,71.6700473 128.041492,71.6919969 128.200689,71.6901159 C128.344081,71.6906993 128.486422,71.6651533 128.621002,71.6146819 C128.7551,71.5661385 128.879327,71.4929216 128.987515,71.3986665 C129.09547,71.3040405 129.182562,71.1871859 129.243065,71.0557849 C129.308424,70.9046963 129.340559,70.7408508 129.337216,70.5757507 C129.341405,70.4158601 129.301815,70.2579425 129.22289,70.1197182 C129.145553,69.9920554 129.050406,69.8765508 128.94044,69.7768366 C128.830492,69.6813052 128.709699,69.5995723 128.580652,69.5333906 C128.464738,69.4762665 128.345738,69.4258962 128.224227,69.3825227 C127.940153,69.2843232 127.661743,69.1698472 127.390326,69.0396412 C127.145866,68.9241801 126.919298,68.772851 126.717825,68.5904663 C126.079885,67.9790005 125.910449,67.0133991 126.300875,66.2142968 C126.433239,65.9579599 126.619194,65.7343927 126.8456,65.559393 C127.078633,65.3854414 127.339032,65.2532544 127.615614,65.168508 C127.900452,65.0834725 128.196531,65.0441422 128.493227,65.0519282 C128.806723,65.0560456 129.117632,65.1104285 129.414553,65.2130826 C129.670397,65.298262 129.910274,65.4269421 130.124041,65.5936811 C130.290603,65.7203874 130.421624,65.8894632 130.504004,66.0840018 C130.571693,66.2483342 130.557936,66.4358081 130.467017,66.5880378 C130.420491,66.6646288 130.357189,66.7291798 130.282079,66.7766226 C130.210551,66.8247585 130.130659,66.8585093 130.046704,66.8760583 C129.968012,66.8931929 129.886658,66.8931929 129.807966,66.8760583 C129.737566,66.8659931 129.671249,66.8363332 129.616303,66.7903379 L129.374203,66.6223259 C129.279728,66.560992 129.182073,66.5049063 129.081665,66.4543139 C128.972316,66.4038738 128.860019,66.3603595 128.745415,66.3240189 C128.629563,66.2898992 128.509577,66.2725852 128.388989,66.2725867 C128.264786,66.2711087 128.141839,66.2980578 128.029202,66.3514495 C127.926799,66.4023951 127.834472,66.4721343 127.756839,66.5571784 C127.684344,66.6408828 127.625327,66.7357827 127.581989,66.8383413 C127.534515,66.9336439 127.504868,67.0371308 127.494564,67.1435059 L127.511376,67.1435059 Z M132.857757,71.556392 L135.42671,71.556392 C135.62699,71.537891 135.827951,71.5834298 136.001698,71.6866871 C136.128244,71.8096739 136.190545,71.9862866 136.169823,72.1632925 C136.189478,72.340173 136.127343,72.5163145 136.001698,72.6398979 C135.826654,72.7395033 135.626476,72.7836706 135.42671,72.7667641 L132.158356,72.7667641 C131.983073,72.776846 131.808776,72.7339033 131.657343,72.6433267 C131.522567,72.5283099 131.454198,72.3514364 131.475768,72.1735789 L131.475768,65.8131254 C131.456461,65.6386588 131.52021,65.4653088 131.647256,65.3468064 C131.799902,65.2495401 131.978781,65.2039383 132.158356,65.2165114 L135.436797,65.2165114 C135.602793,65.2020398 135.768147,65.2509138 135.900823,65.353664 C136.01705,65.4802964 136.076692,65.6503383 136.065585,65.8234118 C136.089673,65.9984405 136.029591,66.1745829 135.904185,66.2965884 C135.764131,66.3942711 135.596045,66.4413458 135.42671,66.4303122 L132.857757,66.4303122 L132.857757,68.2612999 L135.322472,68.2612999 C135.496944,68.2453479 135.670934,68.296739 135.810035,68.4053102 C135.919016,68.5367425 135.972247,68.7069848 135.957985,68.8784868 C135.974478,69.0460701 135.92074,69.2129551 135.810035,69.3379481 C135.668046,69.4397187 135.495369,69.4870788 135.322472,69.471672 L132.857757,69.471672 L132.857757,71.556392 Z M138.910263,71.0557849 L138.442875,72.3038739 C138.388803,72.4621748 138.297612,72.604602 138.177238,72.7187606 C138.036821,72.8334984 137.859047,72.8898422 137.679587,72.8764862 C137.486755,72.8867153 137.297538,72.8203507 137.151674,72.6913301 C137.020536,72.5713216 137.007086,72.3484485 137.104599,72.0638568 L139.293589,65.5491065 C139.336243,65.4243684 139.416219,65.3164302 139.522239,65.2405131 C139.660438,65.1443029 139.825914,65.0972968 139.99299,65.1067893 C140.161061,65.0978089 140.327446,65.1447378 140.467103,65.2405131 C140.572197,65.3174033 140.651928,65.4250112 140.695753,65.5491065 L142.904918,72.0638568 C143.00037,72.2604146 142.972652,72.4959511 142.834305,72.6638996 C142.690729,72.7949164 142.502164,72.8627089 142.309755,72.8524845 C142.133216,72.8739878 141.955756,72.8206915 141.818829,72.7050454 C141.712606,72.5997569 141.630011,72.4722525 141.576729,72.3313044 L141.065628,71.0317832 L138.910263,71.0557849 Z M140.810078,69.8351265 L139.99299,67.1469348 L139.165814,69.8419841 L140.810078,69.8351265 Z M143.742181,65.9365627 C143.739744,65.8120528 143.752164,65.6877027 143.779169,65.5662506 C143.799208,65.4810015 143.846534,65.4049925 143.913669,65.3502352 C143.992534,65.2917164 144.085516,65.2561605 144.182669,65.2473707 C144.33205,65.2275286 144.482609,65.2183627 144.633245,65.2199402 L146.237159,65.2199402 C146.609501,65.2156788 146.9813,65.2501452 147.346785,65.3228047 C147.637129,65.3755776 147.912596,65.492619 148.153786,65.6656863 C148.374261,65.8364089 148.543212,66.0669124 148.641349,66.3308766 C148.759753,66.6599983 148.815669,67.009087 148.806112,67.3595213 C148.840778,67.8749871 148.692821,68.386015 148.389161,68.799624 C148.09333,69.1409422 147.694776,69.3724898 147.255997,69.4579567 L147.04416,69.5025313 C146.970744,69.5166376 146.896674,69.5269373 146.822234,69.5333906 L148.903624,71.6249684 C149.038174,71.7549702 149.117776,71.9333017 149.125549,72.1221467 C149.131786,72.3107923 149.058317,72.4930934 148.923799,72.6227538 C148.789152,72.7630519 148.608211,72.8473644 148.416061,72.8593421 C148.240345,72.8802948 148.064487,72.8213555 147.935223,72.6981878 L145.12417,69.6774009 L145.12417,72.2970163 C145.122075,72.4457971 145.060061,72.5871497 144.952682,72.6879013 C144.80118,72.8150821 144.606821,72.8766322 144.411319,72.8593421 C144.219115,72.8807706 144.027671,72.8127588 143.890131,72.674186 C143.798569,72.570296 143.74614,72.4366386 143.742181,72.2970163 L143.742181,65.9365627 Z M145.12417,68.371022 L146.237159,68.371022 C146.544305,68.3906872 146.850968,68.3255391 147.12486,68.1824372 C147.355483,67.9896846 147.470301,67.687872 147.427485,67.3869519 C147.432822,67.2257236 147.399342,67.0656172 147.329972,66.9206329 C147.271496,66.8020247 147.18186,66.7023113 147.07106,66.6326124 C146.952693,66.5624552 146.822807,66.5148206 146.687734,66.4920309 C146.538779,66.4671434 146.3881,66.4545303 146.237159,66.4543139 L145.12417,66.4543139 L145.12417,68.371022 Z M153.342129,72.9862083 C152.835714,72.9896383 152.33302,72.8978107 151.859265,72.7153318 C151.414079,72.5399574 151.010604,72.2699551 150.675664,71.9232754 C150.333807,71.5627454 150.07029,71.1328033 149.902288,70.6614711 C149.710646,70.1223317 149.620523,69.5511504 149.63665,68.9779225 C149.634351,68.4068114 149.728767,67.8395833 149.915738,67.3012315 C150.078336,66.840636 150.327308,66.4167221 150.648764,66.0531425 C150.95588,65.7173479 151.329544,65.4520271 151.74494,65.2748013 C152.176204,65.0913986 152.639511,64.999243 153.106754,65.0039248 C153.431158,64.999911 153.75428,65.0461557 154.065067,65.1410774 C154.32914,65.2229876 154.582161,65.3381708 154.818268,65.483959 C155.005235,65.597844 155.173222,65.7413659 155.315919,65.9091322 C155.416759,66.0156104 155.486606,66.1485634 155.517669,66.2931596 C155.538568,66.3705826 155.538568,66.4523248 155.517669,66.5297479 C155.490769,66.5948954 155.470594,66.6428988 155.457144,66.6703293 C155.378249,66.7850894 155.266766,66.8724444 155.137706,66.9206329 C155.021812,66.982227 154.883724,66.982227 154.767831,66.9206329 C154.64678,66.8554854 154.51228,66.7731938 154.36433,66.677187 C154.197729,66.5682684 154.022229,66.4741991 153.83978,66.3960241 C153.601987,66.2973483 153.346542,66.2506251 153.089941,66.2588714 C152.778854,66.2536982 152.472166,66.3342514 152.20224,66.4920309 C151.945933,66.6449833 151.725574,66.8533038 151.55664,67.1023602 C151.376323,67.3680802 151.243163,67.6640232 151.163227,67.9767082 C151.071831,68.3115704 151.026563,68.6577702 151.028727,69.005353 C151.029495,69.3536891 151.07932,69.7001073 151.176677,70.0339978 C151.271074,70.3558702 151.421412,70.6578307 151.620527,70.9254899 C151.813613,71.1864691 152.061854,71.3997598 152.346828,71.5495344 C152.65915,71.7097191 153.006247,71.7864066 153.355579,71.7724075 C153.531419,71.7685689 153.706265,71.7444129 153.876767,71.7004023 C154.012788,71.6660432 154.144712,71.6166023 154.27018,71.5529632 C154.377642,71.4998221 154.480071,71.4366935 154.576168,71.3643784 L154.851893,71.1552206 C154.996257,71.0288331 155.198947,70.9981634 155.373081,71.0763578 C155.514107,71.1212387 155.633873,71.2177196 155.709332,71.3472343 C155.765034,71.4581734 155.787265,71.5834509 155.773219,71.7072599 C155.735794,71.8349557 155.670236,71.9522371 155.581556,72.0501415 C155.445309,72.2194733 155.284256,72.3663545 155.104081,72.4856012 C154.584641,72.8255543 153.979508,73.0042414 153.362304,72.9999236 L153.342129,72.9862083 Z M161.220475,65.6759727 C161.223576,65.5357756 161.274734,65.4011141 161.365063,65.2953742 C161.50859,65.1579036 161.703992,65.0914852 161.899701,65.1136469 C162.094234,65.0957749 162.287762,65.1574449 162.437701,65.2850877 C162.540706,65.3883497 162.599867,65.528702 162.602464,65.6759727 L162.602464,72.3107316 C162.601171,72.4542437 162.545788,72.5917489 162.447789,72.6947589 C162.303015,72.8227215 162.11435,72.8868502 161.923238,72.8730574 C161.72692,72.8971695 161.530144,72.8319561 161.385238,72.6947589 C161.284692,72.592586 161.225823,72.4553748 161.220475,72.3107316 L161.220475,69.4991025 L157.992472,69.4991025 L157.992472,72.3141604 C157.992966,72.4580349 157.937317,72.596201 157.837796,72.6981878 C157.693592,72.8271651 157.504499,72.8914391 157.313246,72.8764862 C157.116928,72.9005983 156.920152,72.835385 156.775245,72.6981878 C156.677026,72.5947313 156.619576,72.4580364 156.613845,72.3141604 L156.613845,65.6725439 C156.619127,65.5295714 156.676706,65.3937948 156.775245,65.2919453 C156.922035,65.1577888 157.116942,65.0919527 157.313246,65.1102181 C157.50408,65.088374 157.69497,65.1507631 157.837796,65.2816589 C157.936805,65.3867735 157.992213,65.5267966 157.992472,65.6725439 L157.992472,68.2818728 L161.220475,68.2818728 L161.220475,65.6759727 Z M167.79417,71.556392 L170.363122,71.556392 C170.563403,71.537891 170.764364,71.5834298 170.938111,71.6866871 C171.066056,71.8087401 171.12862,71.9860979 171.106236,72.1632925 C171.127503,72.3403612 171.065117,72.5172169 170.938111,72.6398979 C170.763066,72.7395033 170.562889,72.7836706 170.363122,72.7667641 L167.094769,72.7667641 C166.919523,72.7764383 166.745339,72.7335237 166.593756,72.6433267 C166.459703,72.5279642 166.392529,72.350903 166.415543,72.1735789 L166.415543,65.8131254 C166.394834,65.6391662 166.457389,65.4656598 166.583668,65.3468064 C166.736314,65.2495401 166.915194,65.2039383 167.094769,65.2165114 L170.376572,65.2165114 C170.541442,65.2029033 170.705447,65.2517324 170.837235,65.353664 C170.953463,65.4802964 171.013105,65.6503383 171.001998,65.8234118 C171.025823,65.9977628 170.967192,66.1733095 170.84396,66.2965884 C170.702332,66.3935787 170.533429,66.4405517 170.363122,66.4303122 L167.79417,66.4303122 L167.79417,68.2612999 L170.258885,68.2612999 C170.433421,68.244663 170.607652,68.2961251 170.746448,68.4053102 C170.856783,68.535975 170.910199,68.7068118 170.894398,68.8784868 C170.912649,69.0462609 170.85868,69.2138643 170.746448,69.3379481 C170.60471,69.4402665 170.431833,69.4876816 170.258885,69.471672 L167.79417,69.471672 L167.79417,71.556392 Z M173.544051,72.3107316 C173.543069,72.4576666 173.485034,72.5982189 173.382651,72.7016166 C173.236931,72.8297131 173.046264,72.8916326 172.854738,72.8730574 C172.659642,72.8932779 172.46561,72.8256553 172.323462,72.6879013 C172.224292,72.5878859 172.166524,72.4528893 172.162062,72.3107316 L172.162062,65.6176829 C172.163511,65.4949908 172.20099,65.375558 172.269662,65.2748013 C172.340275,65.1719368 172.501675,65.1205045 172.757225,65.1205045 C172.881741,65.1172093 173.002528,65.1640134 173.093475,65.2507995 C173.176046,65.3304145 173.252488,65.4163886 173.322126,65.5079607 L176.684629,70.1128605 L176.684629,65.6725439 C176.688352,65.5298938 176.744802,65.3939474 176.842667,65.2919453 C176.985396,65.1554343 177.179357,65.0890885 177.373943,65.1102181 C177.56651,65.091492 177.758273,65.1533731 177.905218,65.2816589 C178.005161,65.3864294 178.061748,65.5263903 178.063256,65.6725439 L178.063256,72.3861655 C178.065933,72.5089677 178.029345,72.6293226 177.959018,72.7290471 C177.888406,72.8284828 177.727005,72.879915 177.481543,72.879915 C177.350811,72.8842664 177.223362,72.8376763 177.125117,72.74962 C177.03597,72.6724132 176.955861,72.5849712 176.886379,72.48903 L173.523876,68.0315693 L173.544051,72.3107316 Z M184.364588,69.8179824 L183.228061,69.8179824 C183.034942,69.8348079 182.841629,69.7879307 182.676611,69.6842585 C182.548183,69.5594963 182.48468,69.3804667 182.505123,69.2007955 C182.488152,69.0155083 182.555008,68.832449 182.686698,68.7036172 C182.848444,68.5910705 183.042879,68.5378763 183.238149,68.5527493 L185.013551,68.5527493 C185.232525,68.522868 185.45145,68.6080358 185.595264,68.7790511 C185.714789,69.0242695 185.765967,69.2982542 185.743214,69.5711076 C185.745115,70.0095987 185.690856,70.4464657 185.581814,70.8706289 C185.478089,71.2683127 185.292384,71.638866 185.037088,71.9575635 C184.775222,72.2810795 184.442312,72.5371537 184.065325,72.7050454 C183.60633,72.9030165 183.110872,72.9977468 182.612723,72.9827795 C182.096334,72.9899711 181.583521,72.8944699 181.102959,72.7016166 C180.671504,72.5211927 180.282857,72.2488016 179.96307,71.9027025 C179.647063,71.5443434 179.407725,71.1227887 179.260307,70.6648999 C179.088642,70.1411921 179.004528,69.5917845 179.011482,69.0396412 C179.007499,68.4997395 179.088093,67.9626533 179.25022,67.4486706 C179.396203,66.9792581 179.632866,66.5443973 179.946258,66.1697222 C180.25422,65.8055411 180.636327,65.5141869 181.065972,65.3159471 C181.541709,65.0993972 182.058185,64.9917242 182.579098,65.000496 C182.885813,64.9988316 183.192009,65.0263818 183.493699,65.0827876 C183.811956,65.1515123 184.116597,65.2743807 184.39485,65.4462421 C184.581164,65.5642482 184.758733,65.6960402 184.926126,65.8405559 C185.072756,65.9652159 185.204769,66.1067359 185.319539,66.2623002 C185.409833,66.3817972 185.466763,66.5239665 185.484301,66.6737582 C185.492231,66.8121315 185.425093,66.9437909 185.309451,67.0166398 C185.239271,67.0758581 185.162532,67.1264922 185.080801,67.1675077 C184.899753,67.254125 184.693539,67.2687957 184.50245,67.2086534 C184.397213,67.1775575 184.302026,67.1183722 184.226725,67.0372126 C184.002879,66.7733758 183.729669,66.5577242 183.423087,66.4028817 C183.14185,66.2845837 182.83952,66.2273628 182.535386,66.2348697 C182.245273,66.2334966 181.958758,66.3003777 181.698122,66.4303122 C181.437519,66.5626884 181.2081,66.7510127 181.025621,66.9823516 C180.823966,67.2415871 180.669122,67.5353228 180.568321,67.849842 C180.449802,68.2158321 180.391848,68.5993854 180.396833,68.9847801 C180.392361,69.3741049 180.447961,69.7617247 180.561596,70.1334334 C180.660599,70.4501286 180.818105,70.744585 181.025621,71.0009239 C181.213797,71.2342124 181.448855,71.4236289 181.714935,71.556392 C182.002083,71.6890647 182.31431,71.755785 182.629536,71.7518346 C182.861411,71.7517945 183.090635,71.7015396 183.302036,71.6043955 C183.509569,71.5083015 183.696846,71.3720603 183.853487,71.203224 C184.01592,71.0273395 184.143763,70.8213175 184.230087,70.5963236 C184.325637,70.3485012 184.373582,70.0842604 184.371313,69.8179824 L184.364588,69.8179824 Z M188.063342,72.1804365 C188.076079,72.3692911 188.017084,72.555905 187.898579,72.7016166 C187.748639,72.8292594 187.555112,72.8909294 187.360578,72.8730574 C187.169962,72.8927292 186.979915,72.8306157 186.836028,72.7016166 C186.723292,72.557217 186.668063,72.374797 186.681353,72.190723 L186.681353,65.8028389 C186.65807,65.614681 186.721398,65.4261158 186.852907,65.2920131 C186.984416,65.1579105 187.169334,65.0933344 187.353853,65.1170757 C187.539589,65.1031641 187.724175,65.1565961 187.875041,65.2679436 C188.011356,65.4079279 188.078124,65.6033583 188.056617,65.7994101 L188.063342,72.1804365 Z M190.622207,72.3107316 C190.621225,72.4576666 190.56319,72.5982189 190.460807,72.7016166 C190.315087,72.8297131 190.12442,72.8916326 189.932894,72.8730574 C189.737798,72.8932779 189.543766,72.8256553 189.401618,72.6879013 C189.302448,72.5878859 189.244679,72.4528893 189.240218,72.3107316 L189.240218,65.6176829 C189.241667,65.4949908 189.279146,65.375558 189.347818,65.2748013 C189.418431,65.1719368 189.579831,65.1205045 189.835381,65.1205045 C189.959897,65.1172093 190.080684,65.1640134 190.171631,65.2507995 C190.254202,65.3304145 190.330644,65.4163886 190.400282,65.5079607 L193.762785,70.1128605 L193.762785,65.6725439 C193.766508,65.5298938 193.822958,65.3939474 193.920823,65.2919453 C194.063552,65.1554343 194.257513,65.0890885 194.452098,65.1102181 C194.644666,65.091492 194.836429,65.1533731 194.983374,65.2816589 C195.083317,65.3864294 195.139904,65.5263903 195.141412,65.6725439 L195.141412,72.3861655 C195.144089,72.5089677 195.107501,72.6293226 195.037174,72.7290471 C194.966562,72.8284828 194.805161,72.879915 194.559699,72.879915 C194.428967,72.8842664 194.301518,72.8376763 194.203273,72.74962 C194.114126,72.6724132 194.034017,72.5849712 193.964535,72.48903 L190.602032,68.0315693 L190.622207,72.3107316 Z M197.683464,71.5529632 L200.252417,71.5529632 C200.452698,71.5344622 200.653659,71.5800009 200.827405,71.6832582 C200.95535,71.8053113 201.017914,71.982669 200.995531,72.1598637 C201.016798,72.3369324 200.954412,72.5137881 200.827405,72.6364691 C200.652361,72.7360744 200.452184,72.7802418 200.252417,72.7633353 L196.984064,72.7633353 C196.808818,72.7730095 196.634634,72.7300949 196.483051,72.6398979 C196.348997,72.5245354 196.281824,72.3474742 196.304838,72.1701501 L196.304838,65.8131254 C196.284128,65.6391662 196.346684,65.4656598 196.472963,65.3468064 C196.625609,65.2495401 196.804489,65.2039383 196.984064,65.2165114 L200.265867,65.2165114 C200.430737,65.2029033 200.594742,65.2517324 200.72653,65.353664 C200.842758,65.4802964 200.9024,65.6503383 200.891293,65.8234118 C200.915118,65.9977628 200.856486,66.1733095 200.733255,66.2965884 C200.591627,66.3935787 200.422724,66.4405517 200.252417,66.4303122 L197.686827,66.4303122 L197.686827,68.2612999 L200.151542,68.2612999 C200.326078,68.244663 200.500309,68.2961251 200.639105,68.4053102 C200.74944,68.535975 200.802856,68.7068118 200.787055,68.8784868 C200.805307,69.0462609 200.751337,69.2138643 200.639105,69.3379481 C200.497368,69.4402665 200.32449,69.4876816 200.151542,69.471672 L197.686827,69.471672 L197.683464,71.5529632 Z" id="Shape" fill="url(#linearGradient-6)" fill-rule="nonzero"></path>
                <path d="M183.137917,17 C173.304377,17 165.329514,25.2993139 165.329514,35.499998 C165.329514,45.7006821 173.304377,53.999996 183.137917,53.999996 C192.971457,53.999996 201,45.7006821 201,35.499998 C201,25.2993139 192.971457,17 183.137917,17 Z M191.964953,37.0144226 L181.688552,45.5906027 C180.373387,46.691396 178.118819,45.9241764 178.118819,44.35638 L178.118819,27.1873411 C178.118819,25.6328876 180.373387,24.8523251 181.688552,25.9531184 L191.964953,34.5326342 C192.351335,34.8267726 192.577931,35.2830203 192.577931,35.766857 C192.577931,36.2506936 192.351335,36.7069414 191.964953,37.0010797 L191.964953,37.0144226 Z M158.528905,35.3465541 C159.450227,33.4664492 159.958044,31.4127361 160.01853,29.3222129 C160.01853,24.3553003 157.733767,20.5492243 153.586972,18.4877387 C151.694132,17.5768616 149.629679,17.0722375 147.527821,17.0066715 L139.073191,17.0066715 C137.381569,17.0139485 136.011017,18.373652 136,20.0555352 L136,50.9244464 C136.001849,52.6167366 137.381187,53.9881503 139.083256,53.9899888 C140.795726,53.9920313 142.192691,52.6268603 142.220192,50.9244464 L142.220192,41.6844546 L147.40704,41.6844546 L154.264685,52.5723005 C154.85044,53.4645036 155.850239,54.0016954 156.921854,53.999996 C157.48828,53.9975503 158.041842,53.8318566 158.515485,53.5229856 C159.431546,52.976954 159.995857,51.9963483 160.00511,50.9344536 C160.002538,50.3535719 159.836335,49.785025 159.525343,49.2932709 L153.821823,40.2033873 C155.857001,39.1026589 157.500854,37.4041788 158.528905,35.3398826 L158.528905,35.3465541 Z M152.89584,32.6979788 C151.889336,34.6026847 150.18499,35.499998 147.527821,35.499998 L142.210127,35.499998 L142.210127,23.1844566 L147.527821,23.1844566 C148.669462,23.2194834 149.79135,23.4898251 150.822442,23.978362 C152.83545,24.9790832 153.798338,26.6736376 153.798338,29.3155414 C153.743025,30.4940287 153.435337,31.647201 152.89584,32.6979788 Z" id="Shape" fill="url(#linearGradient-7)" fill-rule="nonzero"></path>
                <path d="M200.609375,20.6375037 L200.675,20.6375037 L200.7375,20.6375037 C200.868744,20.6131378 200.987778,20.5448037 201.075,20.443754 C201.166426,20.3229297 201.210848,20.1730072 201.2,20.0218797 C201.20361,19.9157235 201.187723,19.8098052 201.153125,19.7093801 C201.122456,19.6327781 201.071721,19.5658507 201.00625,19.5156305 C200.933824,19.4653681 200.851971,19.4302886 200.765625,19.4125056 C200.656468,19.3914783 200.545539,19.3810133 200.434375,19.3812557 L199.95625,19.3812557 C199.911544,19.3773334 199.866581,19.3773334 199.821875,19.3812557 C199.792624,19.3847921 199.764707,19.3955294 199.740625,19.4125056 C199.720555,19.4282828 199.706271,19.4502587 199.7,19.4750055 C199.696178,19.510319 199.696178,19.5459418 199.7,19.5812553 L199.7,21.4562524 C199.70008,21.4969601 199.715733,21.5360942 199.74375,21.5656272 C199.784238,21.6076772 199.842,21.6284717 199.9,21.6218772 C199.958078,21.6260873 200.015438,21.6069673 200.059375,21.5687522 C200.091372,21.5401345 200.109574,21.4991793 200.109375,21.4562524 L200.109375,20.6781286 L200.95,21.5625022 C200.988026,21.5998314 201.040767,21.618176 201.09375,21.6125022 C201.151735,21.6075904 201.206049,21.5820959 201.246875,21.5406273 C201.285557,21.5028904 201.307026,21.4509122 201.30625,21.3968775 C201.303825,21.341361 201.280361,21.2888484 201.240625,21.2500027 L200.609375,20.6375037 Z M200.10625,20.2937542 L200.10625,19.7312551 L200.440625,19.7312551 C200.485287,19.726426 200.530338,19.726426 200.575,19.7312551 C200.616036,19.7362322 200.655494,19.7500957 200.690625,19.7718801 C200.723209,19.7922195 200.749246,19.8215115 200.765625,19.8562549 C200.788283,19.8972891 200.799101,19.9438087 200.796875,19.9906297 C200.809054,20.0791492 200.774812,20.1677047 200.70625,20.2250043 C200.624324,20.2671481 200.532602,20.2865715 200.440625,20.2812543 L200.10625,20.2937542 Z M200.5,18.0000078 C199.119288,18.0000078 198,19.1192942 198,20.5000039 C198,21.8807136 199.119288,23 200.5,23 C201.880712,23 203,21.8807136 203,20.5000039 C203.000002,19.8358794 202.735752,19.1990466 202.265559,18.7300263 C201.795365,18.2610061 201.157873,17.9983475 200.49375,18.0000078 L200.5,18.0000078 Z M200.5,22.375001 C199.73405,22.375001 199.04352,21.9136043 198.750403,21.2059596 C198.457287,20.4983148 198.619308,19.6837804 199.160917,19.1421726 C199.702525,18.6005647 200.517061,18.4385438 201.224707,18.7316598 C201.932353,19.0247759 202.39375,19.7153048 202.39375,20.4812539 C202.395414,20.9859597 202.19587,21.4705191 201.83928,21.827695 C201.48269,22.1848709 200.998459,22.3852102 200.49375,22.384376 L200.5,22.375001 Z" id="Shape" fill="url(#linearGradient-8)" fill-rule="nonzero"></path>
                <path d="M96.1945226,48.8170154 C96.7157845,49.4020857 97.0022144,50.1545528 96.9999871,50.9330155 C96.9999881,52.6254893 95.6082745,53.9980286 93.8902823,53.9998763 C93.0102073,54.0077246 92.1693482,53.6417295 91.5826435,52.9954459 L78.2771855,38.6186987 L78.2771855,50.9229712 C78.2493282,52.6261478 76.8387853,53.9918827 75.1097048,53.989832 C73.3917126,53.9879843 71.999999,52.615445 72,50.9229712 L72,20.063521 C72,18.3715896 73.3922622,17.0000083 75.1097048,17.0000083 C76.8382308,16.9961248 78.2493104,18.3608877 78.2771855,20.063521 L78.2771855,32.3811859 L91.5826435,18.0044387 C92.1769976,17.3686012 93.0128961,17.0047653 93.8902823,17.0000083 C95.1260557,17.0174667 96.2375985,17.7443887 96.7336999,18.8595343 C97.2298012,19.9746799 97.0190272,21.2725222 96.1945226,22.1795211 L83.8168781,35.4982682 L96.1945226,48.8170154 Z" id="Path" fill="#1C73C1"></path>
                <path d="M130,20.070434 C129.993714,20.7159834 129.788697,21.3441733 129.41247,21.8706748 L119.118951,36.489297 L119.118951,51.0012382 C119.06372,52.6730791 117.682877,54 115.998329,54 C114.313781,54 112.932938,52.6730791 112.877707,51.0012382 L112.877707,36.489297 L102.584188,21.8706748 C102.204366,21.4074337 101.997932,20.8278139 102.000016,20.2304554 C102.000016,18.6402427 103.171718,17.0000233 105.0921,17.0000233 C106.114714,16.9960721 107.07286,17.4955103 107.650372,18.333535 L115.973149,30.145115 L124.346286,18.333535 C124.924201,17.4959606 125.882088,16.9966574 126.904558,17.0000233 C127.53784,17.0138459 128.152169,17.2171868 128.667147,17.5834346 C129.494749,18.1456935 129.992643,19.0747239 130,20.070434 Z" id="Path" fill="#1C73C1"></path>
            </g>
        </g>
    </g>
</svg>