<?xml version="1.0" encoding="UTF-8"?>
<svg width="200px" height="206px" viewBox="0 0 200 206" version="1.1" xmlns="http://www.w3.org/2000/svg" xmlns:xlink="http://www.w3.org/1999/xlink">
    <!-- Generator: Sketch 52.5 (67469) - http://www.bohemiancoding.com/sketch -->
    <title>Group 30</title>
    <desc>Created with Sketch.</desc>
    <defs>
        <polygon id="path-1" points="0 0.0332578397 64.7119151 0.0332578397 64.7119151 114.923066 0 114.923066"></polygon>
    </defs>
    <g id="Design" stroke="none" stroke-width="1" fill="none" fill-rule="evenodd">
        <g id="after-subscription-option2" transform="translate(-620.000000, -300.000000)">
            <g id="Group-30" transform="translate(620.000000, 300.000000)">
                <path d="M134.370617,106 L82.9459573,106 C80.2659659,106 77.9175116,104.098492 77.2109181,101.356813 C76.5043245,98.6142942 77.6144597,95.7097842 79.921373,94.2636144 C102.327035,80.219904 113.96486,63.8378134 115.500297,44.1814869 C116.035187,37.3598125 121.763105,31.9112859 128.265269,32.0010945 C134.900365,32.113565 141.115698,34.934981 145.771065,39.9457957 C150.429993,44.9612267 152.997626,51.6024447 153,58.6465422 L153,58.6490602 L153,60.767955 C153,77.9746897 148.19548,88.9451844 139.330619,103.17145 C138.229584,104.937405 136.366962,106 134.370617,106" id="Fill-1" fill="#FFC380"></path>
                <path d="M200,109.873472 C200,99.4663683 191.531597,91 181.122885,91 L84.0305004,91 C82.951705,91 81.8925533,91.2893868 80.9644926,91.8385003 C74.1489593,95.8674704 67.2672792,99.1841961 61.7374006,101.849601 C59.8087181,102.779487 57.9870733,103.657668 56.3301944,104.485747 C54.2892627,105.506216 53,107.592046 53,109.873472 L53,186.973017 C53,189.254844 54.2892627,191.340673 56.3301944,192.361143 C80.6742481,204.528616 100.909579,206 124.506373,206 C128.160487,206 131.897585,205.964728 135.740518,205.928255 C139.990755,205.888574 144.384912,205.846489 148.991941,205.846489 L168.03743,205.846489 C178.446142,205.846489 186.914545,197.38012 186.914545,186.973017 C186.914545,183.473921 185.95762,180.194872 184.290318,177.382368 C189.714362,174.062436 193.340814,168.083512 193.340814,161.273302 C193.340814,157.774206 192.383488,154.494756 190.716988,151.682654 C196.140631,148.362722 199.767083,142.383797 199.767083,135.573187 C199.767083,130.678461 197.893723,126.213407 194.826513,122.8566 C198.166729,119.336261 200,114.746153 200,109.873472" id="Fill-3" fill="#FFCF99"></path>
                <path d="M187.709704,56 L174.290296,56 C170.816569,56 168,53.313415 168,50 C168,46.6861858 170.816569,44 174.290296,44 L187.709704,44 C191.18385,44 194,46.6861858 194,50 C194,53.313415 191.184268,56 187.709704,56" id="Fill-5" fill="#29CCB1"></path>
                <path d="M96.7097044,56 L83.2902956,56 C79.816569,56 77,53.313415 77,50 C77,46.6861858 79.816569,44 83.2902956,44 L96.7097044,44 C100.183431,44 103,46.6861858 103,50 C103,53.313415 100.184268,56 96.7097044,56" id="Fill-7" fill="#29CCB1"></path>
                <path d="M115.135755,24 C113.106896,24 111.134665,22.8814427 110.047789,20.8804909 L103.787029,9.35665256 C102.166676,6.37369465 103.128578,2.55897834 105.935395,0.836524556 C108.742211,-0.885514176 112.331672,0.136336718 113.952417,3.11929463 L120.212786,14.643133 C121.83314,17.626506 120.872019,21.4408072 118.064812,23.163261 C117.140792,23.7306331 116.131244,24 115.135755,24" id="Fill-9" fill="#29CCB1"></path>
                <path d="M155.8644,24 C154.868524,24 153.85937,23.7306373 152.935353,23.1632739 C150.128154,21.4408466 149.166645,17.6266039 150.787385,14.6432768 L157.047344,3.11961557 C158.667693,0.136703508 162.257534,-0.885961766 165.064732,0.836880584 C167.871541,2.55930789 168.83344,6.37396557 167.2127,9.35687763 L160.95235,20.8805389 C159.865869,22.8814599 157.892472,24 155.8644,24" id="Fill-11" fill="#29CCB1"></path>
                <path d="M38,171.542586 L38,206 L26,206 L26,171.542586 C26,167.930842 28.6881821,165 32,165 C35.3122172,165 38,167.930842 38,171.542586" id="Fill-13" fill="#73C3FF"></path>
                <path d="M187.709704,56 L174.290296,56 C170.816569,56 168,53.313415 168,50 C168,46.6861858 170.816569,44 174.290296,44 L187.709704,44 C191.18385,44 194,46.6861858 194,50 C194,53.313415 191.184268,56 187.709704,56" id="Fill-15" fill="#F5EA76"></path>
                <path d="M96.7097044,56 L83.2902956,56 C79.816569,56 77,53.313415 77,50 C77,46.6861858 79.816569,44 83.2902956,44 L96.7097044,44 C100.183431,44 103,46.6861858 103,50 C103,53.313415 100.184268,56 96.7097044,56" id="Fill-17" fill="#F5EA76"></path>
                <path d="M115.135755,24 C113.106896,24 111.134665,22.8814427 110.047789,20.8804909 L103.787029,9.35665256 C102.166676,6.37369465 103.128578,2.55897834 105.935395,0.836524556 C108.742211,-0.885514176 112.331672,0.136336718 113.952417,3.11929463 L120.212786,14.643133 C121.83314,17.626506 120.872019,21.4408072 118.064812,23.163261 C117.140792,23.7306331 116.131244,24 115.135755,24" id="Fill-19" fill="#F5EA76"></path>
                <path d="M155.8644,24 C154.868524,24 153.85937,23.7306373 152.935353,23.1632739 C150.128154,21.4408466 149.166645,17.6266039 150.787385,14.6432768 L157.047344,3.11961557 C158.667693,0.136703508 162.257534,-0.885961766 165.064732,0.836880584 C167.871541,2.55930789 168.83344,6.37396557 167.2127,9.35687763 L160.95235,20.8805389 C159.865869,22.8814599 157.892472,24 155.8644,24" id="Fill-21" fill="#F5EA76"></path>
                <path d="M38,171.542586 L38,206 L26,206 L26,171.542586 C26,167.930842 28.6881821,165 32,165 C35.3122172,165 38,167.930842 38,171.542586" id="Fill-23" fill="#73C3FF"></path>
                <g id="Group-27" transform="translate(0.000000, 91.000000)">
                    <mask id="mask-2" fill="white">
                        <use xlink:href="#path-1"></use>
                    </mask>
                    <g id="Clip-26"></g>
                    <path d="M58.5683931,0.0332578397 L6.14364465,0.0332578397 C2.75219811,0.0332578397 -0.000286163522,2.73074913 -0.000286163522,6.05493031 L-0.000286163522,108.824861 C-0.000286163522,112.153049 2.75219811,114.846533 6.14364465,114.923066 L45.4621038,114.923066 C52.9939277,114.846533 59.5266321,110.587125 62.6846509,104.39716 C63.9830157,101.863955 64.7119151,99.0013763 64.7119151,95.9785192 L64.7119151,6.05493031 C64.7119151,2.73074913 61.9594308,0.0332578397 58.5683931,0.0332578397" id="Fill-25" fill="#1D79CA" mask="url(#mask-2)"></path>
                </g>
                <path d="M38,171.473707 L38,206 L26,206 L26,171.473707 C26,167.899986 28.6881821,165 32,165 C35.3122172,165 38,167.899986 38,171.473707" id="Fill-28" fill="#D7D2CD"></path>
            </g>
        </g>
    </g>
</svg>