<?xml version="1.0" encoding="UTF-8"?>
<svg width="146px" height="128px" viewBox="0 0 146 128" version="1.1" xmlns="http://www.w3.org/2000/svg" xmlns:xlink="http://www.w3.org/1999/xlink">
    <!-- Generator: Sketch 52.5 (67469) - http://www.bohemiancoding.com/sketch -->
    <title>search</title>
    <desc>Created with Sketch.</desc>
    <g id="Design" stroke="none" stroke-width="1" fill="none" fill-rule="evenodd">
        <g id="Search" transform="translate(-647.000000, -376.000000)">
            <g id="Group" transform="translate(441.000000, 376.000000)">
                <g id="search" transform="translate(206.000000, 0.000000)">
                    <g id="documents">
                        <path d="M83.0583421,107.571274 L19.1043692,107.571274 C14.6029778,107.571274 10.9183489,103.877563 10.9183489,99.3632315 L10.9183489,8.20619836 C10.9183489,3.69186722 14.6029778,0 19.1043692,0 L83.0583421,0 C87.561573,0 91.2462019,3.69186722 91.2462019,8.20619836 L91.2462019,99.3632315 C91.2462019,103.877563 87.561573,107.571274 83.0583421,107.571274" id="Fill-1" fill="#E0E2EE"></path>
                        <path d="M77.5991676,111.468784 L13.6451947,111.468784 C9.14380335,111.468784 5.45917447,107.775073 5.45917447,103.260741 L5.45917447,12.1037083 C5.45917447,7.58937714 9.14380335,3.89750992 13.6451947,3.89750992 L77.5991676,3.89750992 C82.1023985,3.89750992 85.7870274,7.58937714 85.7870274,12.1037083 L85.7870274,103.260741 C85.7870274,107.775073 82.1023985,111.468784 77.5991676,111.468784" id="Fill-3" fill="#E8EBF2"></path>
                        <path d="M72.2887435,114.545655 L8.20257271,114.545655 C3.69187663,114.545655 -0.000368671523,110.867238 -0.000368671523,106.371599 L-0.000368671523,15.5920136 C-0.000368671523,11.0963746 3.69187663,7.41979402 8.20257271,7.41979402 L72.2887435,7.41979402 C76.8012829,7.41979402 80.4935282,11.0963746 80.4935282,15.5920136 L80.4935282,106.371599 C80.4935282,110.867238 76.8012829,114.545655 72.2887435,114.545655" id="Fill-5" fill="#D8DBEA"></path>
                        <path d="M72.2887435,114.545655 L8.20257271,114.545655 C3.69187663,114.545655 -0.000368671523,110.867238 -0.000368671523,106.371599 L-0.000368671523,15.5920136 C-0.000368671523,11.0963746 3.69187663,7.41979402 8.20257271,7.41979402 L72.2887435,7.41979402 C76.8012829,7.41979402 80.4935282,11.0963746 80.4935282,15.5920136 L80.4935282,106.371599 C80.4935282,110.867238 76.8012829,114.545655 72.2887435,114.545655" id="Fill-8" fill="#F1F2F7"></path>
                        <path d="M63.0517572,35.0775893 L15.7163316,35.0775893 C14.3645232,35.0775893 13.2579951,34.0253932 13.2579951,32.7399602 C13.2579951,31.4527736 14.3645232,30.4005774 15.7163316,30.4005774 L63.0517572,30.4005774 C64.4035656,30.4005774 65.5100937,31.4527736 65.5100937,32.7399602 C65.5100937,34.0253932 64.4035656,35.0775893 63.0517572,35.0775893" id="Fill-11" fill="#E0E2EE"></path>
                        <path d="M63.0517572,49.108625 L15.7163316,49.108625 C14.3645232,49.108625 13.2579951,48.0564289 13.2579951,46.7709959 C13.2579951,45.4838093 14.3645232,44.4316131 15.7163316,44.4316131 L63.0517572,44.4316131 C64.4035656,44.4316131 65.5100937,45.4838093 65.5100937,46.7709959 C65.5100937,48.0564289 64.4035656,49.108625 63.0517572,49.108625" id="Fill-13" fill="#E0E2EE"></path>
                        <path d="M63.0517572,63.1396608 L15.7163316,63.1396608 C14.3645232,63.1396608 13.2579951,62.0874646 13.2579951,60.8020316 C13.2579951,59.5165987 14.3645232,58.4626489 15.7163316,58.4626489 L63.0517572,58.4626489 C64.4035656,58.4626489 65.5100937,59.5165987 65.5100937,60.8020316 C65.5100937,62.0874646 64.4035656,63.1396608 63.0517572,63.1396608" id="Fill-15" fill="#E0E2EE"></path>
                        <path d="M63.0517572,77.1706965 L15.7163316,77.1706965 C14.3645232,77.1706965 13.2579951,76.1185003 13.2579951,74.8330674 C13.2579951,73.5458807 14.3645232,72.4936846 15.7163316,72.4936846 L63.0517572,72.4936846 C64.4035656,72.4936846 65.5100937,73.5458807 65.5100937,74.8330674 C65.5100937,76.1185003 64.4035656,77.1706965 63.0517572,77.1706965" id="Fill-17" fill="#E0E2EE"></path>
                        <path d="M40.4246589,91.2017322 L15.72685,91.2017322 C14.3692576,91.2017322 13.2579951,90.1495361 13.2579951,88.8641031 C13.2579951,87.5769165 14.3692576,86.5247203 15.72685,86.5247203 L40.4246589,86.5247203 C41.7822512,86.5247203 42.8935137,87.5769165 42.8935137,88.8641031 C42.8935137,90.1495361 41.7822512,91.2017322 40.4246589,91.2017322" id="Fill-19" fill="#E0E2EE"></path>
                    </g>
                    <g transform="translate(37.434339, 21.046554)">
                        <path d="M52.8408759,52.0214385 C43.375681,61.4804067 28.7223922,62.547491 18.0842196,55.244509 C16.724677,54.294447 15.4306307,53.2273627 14.2239126,52.0214385 C13.6026909,51.402609 13.0171945,50.7639451 12.4654385,50.091563 C11.3619266,48.7487823 10.3953613,47.3167472 9.60345257,45.8371099 C8.20818478,43.3379906 7.25948208,40.6861473 6.74146659,37.9450498 C5.07032083,29.3488728 7.56910054,20.096181 14.2239126,13.4477303 C20.8946025,6.77944529 30.1533851,4.29817683 38.7552209,5.9523558 C41.4961382,6.48589794 44.1517118,7.43397654 46.6524763,8.81245901 C48.1350723,9.62169765 49.5482027,10.5876271 50.8938522,11.6904131 C51.5646922,12.2398226 52.2037764,12.8269173 52.8230133,13.4477303 C54.0317161,14.6536545 55.1153807,15.9448662 56.0482055,17.3054978 C63.3579797,27.9346886 62.2882083,42.5803211 52.8408759,52.0214385" id="Fill-21" fill-opacity="0.1" fill="#FFFFFF"></path>
                        <path d="M50.1922998,50.1582623 C40.3450498,60.0025528 24.3867878,60.0007213 14.5377055,50.1582623 C4.70144981,40.3267924 4.70144981,24.3744631 14.5505322,14.5320042 C24.3867878,4.70053421 40.3450498,4.70053421 50.1813055,14.5320042 C60.0285554,24.3744631 60.0285554,40.3267924 50.1922998,50.1582623 M55.2460243,9.47524401 C42.6062159,-3.15841467 22.1237894,-3.15841467 9.48398096,9.47524401 C-3.15399505,22.1070712 -3.16498937,42.5923528 9.47298664,55.2260115 C20.9767148,66.7204797 39.007407,67.7571064 51.6893603,58.319408 C52.9280542,57.3963341 54.1209384,56.3615389 55.258851,55.2260115 C56.3949312,54.0886525 57.4302301,52.8963487 58.3519209,51.6582575 C67.7942133,38.9806429 66.7479201,20.9715437 55.2460243,9.47524401" id="Fill-23" fill="#E0E2EE"></path>
                        <path d="M104.989358,102.848781 L104.458694,103.379187 C100.948009,106.889964 95.1991502,106.889964 91.6866605,103.379187 L59.2710371,70.9793612 L72.5737346,57.6831469 L104.989358,90.0829722 C108.501848,93.5937501 108.501848,99.3380033 104.989358,102.848781" id="Fill-25" fill="#FF5B6F"></path>
                        <path d="M59.0506686,50.667629 L68.6296219,60.241914 L61.8291821,67.0371707 L52.2520985,57.4628857 C53.5160791,56.520969 54.731445,55.4650504 55.8944567,54.3063432 C57.0537288,53.1476361 58.1101623,51.9309936 59.0506686,50.667629" id="Fill-27" fill="#E0E2EE"></path>
                        <polygon id="Fill-29" fill="#EF4459" points="104.504197 89.6844905 91.2861912 102.894262 88.9065557 100.513994 102.122768 87.3042223"></polygon>
                        <polygon id="Fill-31" fill="#EF4459" points="73.3089143 58.1405726 59.7289242 71.7141826 57.711273 69.6977529 71.2912631 56.1241429"></polygon>
                        <path d="M43.6733958,11.1458046 L10.3697011,44.4316131 C9.11548252,42.1848612 8.26268528,39.8008077 7.79882067,37.3365131 L36.5744832,8.57452183 C39.0383179,9.05596868 41.4254365,9.90652478 43.6733958,11.1458046" id="Fill-33" fill-opacity="0.5" fill="#FFFFFF"></path>
                        <path d="M54.5917447,19.0575616 L18.5868282,53.006135 C17.2974426,52.1577312 16.0701734,51.2028333 14.925726,50.1236922 C14.3365615,49.5681475 13.7793963,48.9984036 13.2579951,48.3967114 L49.701491,14.0310357 C50.3395957,14.5244588 50.945701,15.0498302 51.5329832,15.6053749 C52.6774306,16.684516 53.7070568,17.839978 54.5917447,19.0575616" id="Fill-35" fill-opacity="0.5" fill="#FFFFFF"></path>
                    </g>
                </g>
            </g>
        </g>
    </g>
</svg>