<?xml version="1.0" encoding="UTF-8"?>
<svg width="20px" height="20px" viewBox="0 0 20 20" version="1.1" xmlns="http://www.w3.org/2000/svg" xmlns:xlink="http://www.w3.org/1999/xlink">
    <!-- Generator: Sketch 52.5 (67469) - http://www.bohemiancoding.com/sketch -->
    <title>No Icon</title>
    <desc>Created with Sketch.</desc>
    <g id="Design" stroke="none" stroke-width="1" fill="none" fill-rule="evenodd">
        <g id="Price-Plan" transform="translate(-472.000000, -537.000000)">
            <g id="Pricing-Table" transform="translate(174.000000, 253.000000)">
                <g id="Pricing-Option" transform="translate(0.000000, 30.000000)">
                    <g id="Features" transform="translate(41.000000, 252.000000)">
                        <g id="Feature" transform="translate(255.000000, 0.000000)">
                            <g id="No-Icon">
                                <rect id="bound" x="0" y="0" width="24" height="24"></rect>
                                <path d="M12.0355339,10.6213203 L9.20710678,7.79289322 C8.81658249,7.40236893 8.18341751,7.40236893 7.79289322,7.79289322 C7.40236893,8.18341751 7.40236893,8.81658249 7.79289322,9.20710678 L10.6213203,12.0355339 L7.79289322,14.863961 C7.40236893,15.2544853 7.40236893,15.8876503 7.79289322,16.2781746 C8.18341751,16.6686989 8.81658249,16.6686989 9.20710678,16.2781746 L12.0355339,13.4497475 L14.863961,16.2781746 C15.2544853,16.6686989 15.8876503,16.6686989 16.2781746,16.2781746 C16.6686989,15.8876503 16.6686989,15.2544853 16.2781746,14.863961 L13.4497475,12.0355339 L16.2781746,9.20710678 C16.6686989,8.81658249 16.6686989,8.18341751 16.2781746,7.79289322 C15.8876503,7.40236893 15.2544853,7.40236893 14.863961,7.79289322 L12.0355339,10.6213203 Z M12,22 C6.4771525,22 2,17.5228475 2,12 C2,6.4771525 6.4771525,2 12,2 C17.5228475,2 22,6.4771525 22,12 C22,17.5228475 17.5228475,22 12,22 Z" id="Combined-Shape" fill="#A3B1BC"></path>
                            </g>
                        </g>
                    </g>
                </g>
            </g>
        </g>
    </g>
</svg>