<?xml version="1.0" encoding="UTF-8"?>
<svg width="22px" height="22px" viewBox="0 0 22 22" version="1.1" xmlns="http://www.w3.org/2000/svg" xmlns:xlink="http://www.w3.org/1999/xlink">
    <!-- Generator: Sketch 52.5 (67469) - http://www.bohemiancoding.com/sketch -->
    <title>search - anticon</title>
    <desc>Created with Sketch.</desc>
    <g id="Design" stroke="none" stroke-width="1" fill="none" fill-rule="evenodd">
        <g id="Home" transform="translate(-1138.000000, -493.000000)" fill="#FFFFFF">
            <g id="Cover-#7" transform="translate(0.000000, -31.000000)">
                <g id="Content" transform="translate(248.000000, 83.000000)">
                    <g id="Add-Button" transform="translate(867.000000, 418.000000)">
                        <path d="M44.265625,43.046875 C44.4218758,43.2187509 44.5,43.4218738 44.5,43.65625 C44.5,43.8906262 44.4218758,44.0937491 44.265625,44.265625 C44.0937491,44.4218758 43.8906262,44.5 43.65625,44.5 C43.4218738,44.5 43.2265633,44.4218758 43.0703125,44.265625 L38.2421875,39.4375 C36.5703041,40.8125069 34.6562608,41.5 32.5,41.5 C30.0156126,41.5 27.89454,40.6211025 26.1367188,38.8632812 C24.3788975,37.10546 23.5,34.9843874 23.5,32.5 C23.5,30.0156126 24.3788975,27.89454 26.1367188,26.1367188 C27.89454,24.3788975 30.0156126,23.5 32.5,23.5 C34.9843874,23.5 37.10546,24.3788975 38.8632812,26.1367188 C40.6211025,27.89454 41.5,30.0156126 41.5,32.5 C41.5,34.6562608 40.8125069,36.5703041 39.4375,38.2421875 L44.265625,43.046875 Z M35.3359375,39.25 C36.2109419,38.8749981 36.9882779,38.3476596 37.6679688,37.6679688 C38.3476596,36.9882779 38.8749981,36.2109419 39.25,35.3359375 C39.6250019,34.445308 39.8125,33.500005 39.8125,32.5 C39.8125,31.499995 39.6250019,30.554692 39.25,29.6640625 C38.8749981,28.7890581 38.3476596,28.0117221 37.6679688,27.3320312 C36.9882779,26.6523404 36.2109419,26.1250019 35.3359375,25.75 C34.445308,25.3749981 33.500005,25.1875 32.5,25.1875 C31.499995,25.1875 30.554692,25.3749981 29.6640625,25.75 C28.7890581,26.1250019 28.0117221,26.6523404 27.3320312,27.3320312 C26.6523404,28.0117221 26.1328143,28.7890581 25.7734375,29.6640625 C25.3828105,30.554692 25.1875,31.499995 25.1875,32.5 C25.1875,33.500005 25.3828105,34.445308 25.7734375,35.3359375 C26.1328143,36.2109419 26.6523404,36.9882779 27.3320312,37.6679688 C28.0117221,38.3476596 28.7890581,38.8749981 29.6640625,39.25 C30.554692,39.6250019 31.499995,39.8125 32.5,39.8125 C33.500005,39.8125 34.445308,39.6250019 35.3359375,39.25 Z" id="search---anticon"></path>
                    </g>
                </g>
            </g>
        </g>
    </g>
</svg>