<?xml version="1.0" encoding="UTF-8"?>
<svg width="13px" height="14px" viewBox="0 0 13 14" version="1.1" xmlns="http://www.w3.org/2000/svg" xmlns:xlink="http://www.w3.org/1999/xlink">
    <!-- Generator: Sketch 52.5 (67469) - http://www.bohemiancoding.com/sketch -->
    <title>Login - simple-line-icons</title>
    <desc>Created with Sketch.</desc>
    <g id="Design" stroke="none" stroke-width="1" fill="none" fill-rule="evenodd">
        <g id="Submit-Video" transform="translate(-1345.000000, -121.000000)" fill="#2B313D">
            <g id="Group-2" transform="translate(1177.000000, 72.000000)">
                <path d="M174.766602,58.2041016 L176.251953,56.71875 L168.40625,56.71875 C168.296223,56.71875 168.20101,56.6785486 168.120605,56.5981445 C168.040201,56.5177405 168,56.4225266 168,56.3125 C168,56.1940098 168.040201,56.0966801 168.120605,56.0205078 C168.20101,55.9443356 168.296223,55.90625 168.40625,55.90625 L176.226562,55.90625 L174.766602,54.4335938 C174.681966,54.3574215 174.639648,54.2622076 174.639648,54.1479492 C174.639648,54.0336908 174.681966,53.9384769 174.766602,53.8623047 C174.842774,53.7776688 174.935872,53.7353516 175.045898,53.7353516 C175.155925,53.7353516 175.253255,53.7776688 175.337891,53.8623047 L177.737305,56.3251953 L175.337891,58.7880859 C175.295573,58.8219403 175.249024,58.8494465 175.198242,58.8706055 C175.147461,58.8917644 175.09668,58.9023438 175.045898,58.9023438 C174.995117,58.9023438 174.944336,58.8917644 174.893555,58.8706055 C174.842773,58.8494465 174.800456,58.8219403 174.766602,58.7880859 C174.681966,58.7034501 174.639648,58.6061203 174.639648,58.4960938 C174.639648,58.3860672 174.681966,58.2887374 174.766602,58.2041016 Z M180.1875,49.8125 C180.416017,49.8125 180.60856,49.890787 180.765137,50.0473633 C180.921713,50.2039396 181,50.3964832 181,50.625 L181,62 C181,62.2285168 180.921713,62.4210604 180.765137,62.5776367 C180.60856,62.734213 180.416017,62.8125 180.1875,62.8125 L172.875,62.8125 C172.654947,62.8125 172.464519,62.734213 172.303711,62.5776367 C172.142903,62.4210604 172.0625,62.2285168 172.0625,62 L172.0625,58.3310547 L172.887695,58.3310547 L172.887695,61.5048828 C172.887695,61.6403002 172.934244,61.7566727 173.027344,61.8540039 C173.120443,61.9513351 173.2347,62 173.370117,62 L179.692383,62 C179.8278,62 179.944173,61.9513351 180.041504,61.8540039 C180.138835,61.7566727 180.1875,61.6403002 180.1875,61.5048828 L180.174805,51.1201172 C180.174805,50.9846998 180.12614,50.8683273 180.028809,50.7709961 C179.931477,50.6736649 179.815105,50.625 179.679688,50.625 L173.370117,50.625 C173.2347,50.625 173.120443,50.6736649 173.027344,50.7709961 C172.934244,50.8683273 172.887695,50.9846998 172.887695,51.1201172 L172.887695,54.28125 L172.0625,54.28125 L172.0625,50.625 C172.0625,50.3964832 172.142903,50.2039396 172.303711,50.0473633 C172.464519,49.890787 172.654947,49.8125 172.875,49.8125 L180.1875,49.8125 Z" id="Login---simple-line-icons"></path>
            </g>
        </g>
    </g>
</svg>