<?xml version="1.0" encoding="UTF-8"?>
<svg width="39px" height="30px" viewBox="0 0 39 30" version="1.1" xmlns="http://www.w3.org/2000/svg" xmlns:xlink="http://www.w3.org/1999/xlink">
    <!-- Generator: Sketch 52.5 (67469) - http://www.bohemiancoding.com/sketch -->
    <title>Group 9</title>
    <desc>Created with Sketch.</desc>
    <defs>
        <polygon id="path-1" points="0 0.0561871508 38.9240374 0.0561871508 38.9240374 26.9398609 0 26.9398609"></polygon>
        <polygon id="path-3" points="0.0215638206 0.0619951112 7.93246865 0.0619951112 7.93246865 13 0.0215638206 13"></polygon>
    </defs>
    <g id="Design" stroke="none" stroke-width="1" fill="none" fill-rule="evenodd">
        <g id="Submit-Video" transform="translate(-652.000000, -517.000000)">
            <g id="Group-5" transform="translate(464.000000, 155.000000)">
                <g id="Group-4" transform="translate(169.000000, 355.000000)">
                    <g id="Group-9" transform="translate(19.000000, 7.000000)">
                        <g id="Group-3">
                            <mask id="mask-2" fill="white">
                                <use xlink:href="#path-1"></use>
                            </mask>
                            <g id="Clip-2"></g>
                            <path d="M30.8630491,10.7082603 C30.7817801,4.82090279 25.9289789,0.0561569832 19.9755111,0.0561569832 C17.3272363,0.0561569832 14.7758152,1.01186648 12.7914526,2.74725754 C11.0204117,4.29606201 9.80890292,6.36563464 9.3291193,8.63793352 C9.29407251,8.63755642 9.25932982,8.63733017 9.22466316,8.63733017 C4.13824211,8.63733017 -1.52046784e-05,12.7425369 -1.52046784e-05,17.7885955 C-1.52046784e-05,22.8345788 4.13824211,26.9398609 9.22466316,26.9398609 L15.6671135,26.9398609 C16.1254585,26.9398609 16.4972129,26.5711374 16.4972129,26.1163609 C16.4972129,25.6615089 16.1254585,25.2927855 15.6671135,25.2927855 L9.22466316,25.2927855 C5.05356374,25.2927855 1.66018363,21.9263832 1.66018363,17.7885955 C1.66018363,13.6507324 5.05356374,10.2843302 9.22466316,10.2843302 C9.44687953,10.2843302 9.68179181,10.2961709 9.94293216,10.3205313 C10.3856164,10.3616346 10.7829146,10.0494 10.8432012,9.61189441 C11.1421251,7.43839441 12.223862,5.43926313 13.8892304,3.98277151 C15.5701836,2.51270447 17.7316047,1.70315698 19.9754351,1.70315698 C25.0640608,1.70315698 29.2038386,5.81017374 29.2038386,10.8581933 C29.2038386,11.0399531 29.1902304,11.2272939 29.175862,11.4257212 L29.1697041,11.5100397 C29.1524468,11.7522855 29.2438269,11.9897799 29.419593,12.1589447 C29.595131,12.3281095 29.8367333,12.4116737 30.0807684,12.3874642 C30.3015404,12.3653665 30.5242889,12.3542799 30.7427801,12.3542799 C34.3384585,12.3542799 37.2638386,15.2564028 37.2638386,18.8235704 C37.2638386,22.3905872 34.3385345,25.2927101 30.7427801,25.2927101 L23.9682596,25.2927101 C23.5097626,25.2927101 23.1380842,25.6614335 23.1380842,26.1162101 C23.1380842,26.571062 23.5097626,26.9397855 23.9682596,26.9397855 L30.7427801,26.9397855 C35.2539322,26.9397855 38.9240374,23.2988581 38.9240374,18.8235704 C38.9239614,14.3882547 35.3189322,10.7723665 30.8630491,10.7082603" id="Fill-1" fill="#1D79CA" mask="url(#mask-2)"></path>
                        </g>
                        <path d="M20.1430639,5.66586025 C20.6163055,5.66586025 21,5.29299072 21,4.83293013 C21,4.37294582 20.6163055,4 20.1430639,4 C16.5597697,4 13.4924108,6.60283989 13.0079464,10.0543241 C12.9440627,10.5101129 13.2723495,10.9301251 13.7412747,10.9922192 C13.7805937,10.9974064 13.8195989,11 13.8581332,11 C14.280048,11 14.6475755,10.6971579 14.7061224,10.2795868 C15.0752195,7.64928512 17.4125463,5.66586025 20.1430639,5.66586025" id="Fill-4" fill="#1D79CA"></path>
                        <g id="Group-8" transform="translate(16.000000, 17.000000)">
                            <mask id="mask-4" fill="white">
                                <use xlink:href="#path-3"></use>
                            </mask>
                            <g id="Clip-7"></g>
                            <path d="M7.15220714,4.35648883 C7.36663571,4.35648883 7.58006429,4.26723184 7.73420714,4.09176816 C8.02113571,3.76517039 7.99335,3.26390782 7.67213571,2.97209777 L4.83520714,0.395337989 C4.34606429,-0.0491312849 3.60820714,-0.0490586592 3.11892143,0.395192737 L0.281921429,2.97209777 C-0.0393642857,3.26390782 -0.0670785714,3.76524302 0.21985,4.09184078 C0.506778571,4.41851117 0.999778571,4.4468352 1.32106429,4.15502514 L3.19706429,2.45108101 L3.19706429,12.2070363 C3.19706429,12.6449693 3.54620714,13.0000363 3.97699286,13.0000363 C4.40763571,13.0000363 4.75692143,12.6449693 4.75692143,12.2070363 L4.75692143,2.45093575 L6.63292143,4.15495251 C6.78170714,4.29003631 6.96727857,4.35648883 7.15220714,4.35648883" id="Fill-6" fill="#1D79CA" mask="url(#mask-4)"></path>
                        </g>
                    </g>
                </g>
            </g>
        </g>
    </g>
</svg>