<?xml version="1.0" encoding="UTF-8"?>
<svg width="31px" height="31px" viewBox="0 0 31 31" version="1.1" xmlns="http://www.w3.org/2000/svg" xmlns:xlink="http://www.w3.org/1999/xlink">
    <!-- Generator: Sketch 52.5 (67469) - http://www.bohemiancoding.com/sketch -->
    <title>Group 8</title>
    <desc>Created with Sketch.</desc>
    <defs>
        <polygon id="path-1" points="6.47887943e-06 0 30.9999357 0 30.9999357 31 6.47887943e-06 31"></polygon>
    </defs>
    <g id="Design" stroke="none" stroke-width="1" fill="none" fill-rule="evenodd">
        <g id="Video-Loading" transform="translate(-464.000000, -594.000000)">
            <g id="Group-5" transform="translate(464.000000, 586.000000)">
                <g id="Group-8" transform="translate(0.000000, 8.000000)">
                    <g id="Group-3">
                        <mask id="mask-2" fill="white">
                            <use xlink:href="#path-1"></use>
                        </mask>
                        <g id="Clip-2"></g>
                        <path d="M15.4774039,1.6141918 C13.0722398,1.6141918 10.6988023,2.24490859 8.55998398,3.47976211 C5.3493043,5.33352578 3.05264023,8.3266 2.09303281,11.9076449 C1.13342539,15.4888109 1.62585313,19.2293363 3.47955625,22.440016 C5.33331992,25.6508168 8.32639414,27.9474809 11.9075602,28.9069672 C15.4887262,29.8664535 19.2291305,29.3740863 22.4398102,27.5203227 C25.6506109,25.6666195 27.9473355,22.6734848 28.9068219,19.0924398 C29.8664293,15.5112738 29.3738805,11.770809 27.5201168,8.56006875 C25.6664137,5.34926797 22.6732789,3.05260391 19.092234,2.09305703 C17.8967965,1.77270352 16.6828922,1.6141918 15.4774039,1.6141918 M15.5251754,31.0000121 C14.1793395,31.0000121 12.8247848,30.8230941 11.4899684,30.4653832 C7.49266367,29.3942484 4.15156602,26.8305727 2.08237656,23.246682 C0.0131871094,19.6627914 -0.536517969,15.4874789 0.534616797,11.4901137 C1.60569102,7.49268789 4.16930625,4.15171133 7.75331797,2.08240078 L8.1566207,2.78105117 L7.75331797,2.08240078 C11.3373902,0.0131507812 15.5125816,-0.536554297 19.5099469,0.534641016 C23.5073727,1.60571523 26.8483492,4.16945156 28.9175387,7.75334219 C30.9867281,11.3372934 31.5364938,15.5125453 30.4652984,19.5099711 C29.3942242,23.5073969 26.8304879,26.8483734 23.2465973,28.9175629 C20.8594156,30.2959125 18.2097027,31.0000121 15.5251754,31.0000121" id="Fill-1" fill="#000000" mask="url(#mask-2)"></path>
                    </g>
                    <path d="M11.6463547,9.62724373 C11.6357327,9.62724373 11.6232813,9.63017248 11.6090006,9.63871468 C11.5725316,9.6604973 11.5725316,9.68990688 11.5725316,9.70406253 L11.5725316,21.2958307 C11.5725316,21.3099863 11.5725316,21.3394569 11.6090006,21.3611785 C11.6454105,21.3830222 11.6700772,21.3683174 11.6819975,21.3611785 L21.3908814,15.5654165 C21.4026836,15.5583387 21.4274094,15.5436339 21.4274094,15.4999466 C21.4274094,15.4563814 21.4028017,15.4416766 21.3908814,15.4345988 L11.6819975,9.63871468 C11.6747981,9.63438257 11.6628778,9.62724373 11.6463547,9.62724373 M11.6454695,23 C11.3628647,23 11.0803779,22.9231812 10.8227938,22.7693605 C10.3075666,22.4617803 10,21.9109303 10,21.2958307 L10,9.70406253 C10,9.08896297 10.3075666,8.53811297 10.8227938,8.23053268 C11.3380209,7.92319645 11.9531542,7.92307442 12.4683813,8.23065471 L22.1772652,14.0265388 C22.6924334,14.333997 23,14.884847 23,15.4998856 C23,16.1149852 22.6924924,16.6658352 22.1773242,16.9734765 L12.4683223,22.7692385 C12.2107382,22.9230592 11.9281334,23 11.6454695,23" id="Fill-4" fill="#000000"></path>
                    <path d="M24.1936567,9 C23.9525723,9 23.7140315,8.89021926 23.5550042,8.68054793 C21.8927273,6.48858011 19.3934075,5.01568851 16.6978169,4.63980073 C16.2562831,4.57823451 15.9472519,4.16297155 16.0075078,3.71228946 C16.0678849,3.26154557 16.475203,2.94611138 16.9162523,3.0076776 C20.0272759,3.44154642 22.9121732,5.14166438 24.8311585,7.67218463 C25.1039151,8.03181546 25.0393595,8.54919429 24.6869682,8.8276022 C24.5400527,8.94381155 24.3661885,9 24.1936567,9" id="Fill-6" fill="#000000"></path>
                </g>
            </g>
        </g>
    </g>
</svg>