<?xml version="1.0" encoding="UTF-8"?>
<svg width="18px" height="18px" viewBox="0 0 18 18" version="1.1" xmlns="http://www.w3.org/2000/svg" xmlns:xlink="http://www.w3.org/1999/xlink">
    <!-- Generator: Sketch 52.5 (67469) - http://www.bohemiancoding.com/sketch -->
    <title></title>
    <desc>Created with Sketch.</desc>
    <g id="Design" stroke="none" stroke-width="1" fill="none" fill-rule="evenodd">
        <g id="Contact-validation" transform="translate(-463.000000, -298.000000)" fill="#EA6363">
            <g id="Group-2" transform="translate(462.000000, 152.000000)">
                <path d="M10.82,152.5 L10.82,150.82 L9.18,150.82 L9.18,152.5 L10.82,152.5 Z M10.82,159.18 L10.82,154.18 L9.18,154.18 L9.18,159.18 L10.82,159.18 Z M10,146.68 C11.5200076,146.68 12.9266602,147.059996 14.22,147.82 C15.4733396,148.540004 16.4599964,149.52666 17.18,150.78 C17.9400038,152.07334 18.32,153.479992 18.32,155 C18.32,156.520008 17.9400038,157.92666 17.18,159.22 C16.4599964,160.47334 15.4733396,161.459996 14.22,162.18 C12.9266602,162.940004 11.5200076,163.32 10,163.32 C8.4799924,163.32 7.0733398,162.940004 5.78,162.18 C4.5266604,161.446663 3.5400036,160.45334 2.82,159.2 C2.0599962,157.90666 1.68,156.506674 1.68,155 C1.68,153.493326 2.0599962,152.09334 2.82,150.8 C3.553337,149.54666 4.5466604,148.553337 5.8,147.82 C7.0933398,147.059996 8.4933258,146.68 10,146.68 Z" id=""></path>
            </g>
        </g>
    </g>
</svg>